<svg width="29" height="29" viewBox="0 0 29 29" fill="none" xmlns="http://www.w3.org/2000/svg">
<path d="M28.876 9.28134C28.9409 11.5879 28.1235 13.8324 26.5905 15.557C25.0575 17.2817 22.9243 18.3566 20.626 18.5626C20.6072 17.8566 20.4677 17.159 20.2135 16.5001C22.0075 16.3156 23.671 15.4783 24.8879 14.1473C26.1048 12.8163 26.7901 11.0846 26.8135 9.28134C26.8067 7.42117 26.0836 5.63513 24.7942 4.29427C23.5049 2.9534 21.7486 2.16082 19.8901 2.08117C18.0316 2.00152 16.2139 2.64093 14.8146 3.86657C13.4153 5.0922 12.5419 6.80983 12.376 8.66259C11.7116 8.42792 11.0171 8.28903 10.3135 8.25009C10.6189 5.99254 11.723 3.9191 13.4257 2.4056C15.1284 0.892097 17.317 0.0387017 19.5948 9.24979e-05C20.8151 -0.00536781 22.0245 0.230971 23.153 0.695464C24.2815 1.15996 25.3069 1.8434 26.1698 2.70633C27.0327 3.56927 27.7162 4.59459 28.1807 5.72311C28.6452 6.85163 28.8815 8.06098 28.876 9.28134ZM9.28228 10.3126C6.82047 10.3126 4.45948 11.2905 2.71872 13.0313C0.977951 14.7721 0 17.1331 0 19.5949C0 22.0567 0.977951 24.4177 2.71872 26.1584C4.45948 27.8992 6.82047 28.8772 9.28228 28.8772C11.7438 28.8772 14.1045 27.8993 15.8451 26.1587C17.5857 24.4182 18.5635 22.0574 18.5635 19.5959C18.5635 17.1344 17.5857 14.7736 15.8451 13.0331C14.1045 11.2925 11.7438 10.3126 9.28228 10.3126Z" fill="#3B5BE4"/>
</svg>
