<?xml version="1.0" encoding="utf-8"?>
<!-- Generator: Adobe Illustrator 24.3.0, SVG Export Plug-In . SVG Version: 6.00 Build 0)  -->
<svg version="1.1" id="Layer_1" xmlns="http://www.w3.org/2000/svg" xmlns:xlink="http://www.w3.org/1999/xlink" x="0px" y="0px"
	 viewBox="0 0 1454 1080" style="enable-background:new 0 0 1454 1080;" xml:space="preserve">
<style type="text/css">
	.st0{fill:#E85509;}
	.st1{font-family:'Nourd-Heavy';}
	.st2{font-size:236.8696px;}
	.st3{letter-spacing:-7.14;}
</style>
<g>
	<g>
		<text transform="matrix(0.98 0 0 1 504.7729 655.6527)" class="st0 st1 st2 st3">Whizz</text>
	</g>
	<g>
		<path d="M203.36,655.32c0-39,0-78,0-117c38.33,0,76.67,0,115,0c0-18.67,0-37.33,0-56c19.67,0,39.33,0,59,0c0,57.67,0,115.33,0,173
			c-19.67,0-39.33,0-59,0c0-19.33,0-38.67,0-58c-18.67,0-37.33,0-56,0c0,19.33,0,38.67,0,58
			C242.7,655.32,223.03,655.32,203.36,655.32z"/>
		<path class="st0" d="M261.36,482.32c-0.08-7.73,0.26-48.82,33-82c32.51-32.95,73.23-34.04,83-34c5.3,0.02,62.84,1.22,96,50
			c26.29,38.68,18.67,79.93,17,88c-7.14,34.53-28.02,55.67-36,63c8.74,7.9,24.01,23.93,33,49c5.53,15.42,6.88,29.22,7,39
			c-20,0-40,0-60,0c0.19-3.36,1.03-25.01-16-42c-16.19-16.16-36.47-16.07-40-16c0-19.67,0-39.33,0-59c3.74-0.12,25.22-1.14,41-19
			c13.01-14.73,13.94-31.62,14-37c0.06-5.5-0.56-22.18-13-37c-16.13-19.22-39.27-19.94-43-20c-1.5-0.02-30.5,0.04-48,24
			c-8.66,11.85-10.51,24.09-11,30c0,1,0,2,0,3C299.36,482.32,280.36,482.32,261.36,482.32z"/>
		<rect x="203.36" y="482.32" width="42" height="42"/>
		<rect x="161.36" y="440.32" class="st0" width="42" height="42"/>
		<rect x="119.36" y="483.32" class="st0" width="42" height="42"/>
	</g>
</g>
</svg>
