<?xml version="1.0" encoding="utf-8"?>
<!-- Generator: Adobe Illustrator 24.3.0, SVG Export Plug-In . SVG Version: 6.00 Build 0)  -->
<svg version="1.1" id="icon" xmlns="http://www.w3.org/2000/svg" xmlns:xlink="http://www.w3.org/1999/xlink" x="0px" y="0px"
	 viewBox="0 0 800 800" style="enable-background:new 0 0 800 800;" xml:space="preserve">
<style type="text/css">
	.st0{fill:#6FCFFD;}
	.st1{fill:#F97300;}
</style>
<g>
	<path class="st0" d="M771,503.8c0,63.9-0.6,127.8,0.4,191.7c0.2,16.6-5.2,21.4-21,20.3c-18-1.3-36.2-1-54.3,0
		c-12.2,0.7-16.3-4.5-15.9-15.6c0.2-6.4-0.1-12.8-0.1-19.2c0-121.9,0-243.9,0-365.8c0-23.1,0-23.1,22.4-23c16,0,32,1,47.9-0.3
		c16-1.3,21.2,3.8,21,20.3C770.5,376,771,439.9,771,503.8z"/>
	<path class="st0" d="M650.5,577.6c0,40.5-0.5,81,0.3,121.4c0.3,13.6-4.4,17.5-17.4,16.8c-19.7-1-39.4-0.6-59.1-0.2
		c-9,0.2-13.7-1.9-13.7-12.3c0.3-84.2,0.3-168.3,0-252.5c0-10.1,4.1-12.9,13.4-12.7c20.8,0.4,41.6,0.7,62.3,0
		c11.4-0.4,14.5,3.9,14.3,14.8C650.2,494.5,650.5,536.1,650.5,577.6z"/>
	<path class="st0" d="M531.2,647.8c0,18.1-0.2,36.2,0.1,54.3c0.1,9-2.4,13.9-12.6,13.6c-21.8-0.5-43.6-0.4-65.4,0
		c-9.1,0.2-12-3.7-11.9-12.4c0.3-37.2,0.3-74.5,0-111.7c-0.1-9.1,3.6-12.1,12.3-11.9c21.8,0.4,43.6,0.4,65.4,0
		c9-0.1,12.4,3.6,12.3,12.3C531.1,610.5,531.2,629.1,531.2,647.8z"/>
	<path class="st1" d="M652.7,371.7c-0.9-9.8-5.2-13.9-14.6-14.7c-18-1.4-36.1-3.3-54.1-5.1c-16.7-1.7-10-17.5-15.3-26
		c-4.3-6.8,0.6-10.4,5.7-14.1c14.8-10.5,29.2-21.4,44.1-31.8c6.8-4.8,9.1-10.1,4.9-17.5c-8.7-15.2-17.5-30.4-26.4-45.6
		c-3.9-6.7-9-7.8-16.1-4.4c-15.9,7.6-32.6,13.5-47.8,22.1c-15.9,8.9-19.8-6.1-28.5-11.9c-8.4-5.6-6.3-11.5-2.6-19
		c7.2-14.8,12.8-30.5,20.3-45.1c5.4-10.6,2.7-16.7-6.9-22c-13.5-7.5-27-15-40.2-23c-8.9-5.4-14.2-2.8-19.6,5.2
		c-9.2,13.7-20.8,26-28.6,40.4c-8.9,16.4-19.7,5.9-30,5c-10.1-0.9-12.5-6.7-13-16.1c-0.9-17-3.9-33.9-5.1-50.9
		c-0.7-9.4-4.6-13.2-13.8-13.1c-16,0.2-32,0.5-47.9,0c-10.9-0.4-15.1,4.2-15.8,14.8c-1.2,17.5-3.9,34.9-5.1,52.4
		c-1.2,17.4-16.8,11-25.3,16.1c-6.8,4-11.1,0.2-15.3-6.1c-9.7-14.6-20.8-28.3-30.7-42.8c-5-7.5-9.7-9.7-18.3-5.3
		c-15.2,7.8-29.9,16.3-44.2,25.6c-8,5.2-8.7,10.3-4.7,18.6c7.9,16.3,14.3,33.3,22.4,49.4c7.1,14.2-7.3,16.7-12,24.2
		c-3.9,6.2-9.2,9.1-17.5,4.9c-15.6-8-32.3-14-47.8-22c-9.8-5-15.1-3.1-20.8,5.9c-8.8,14-17.1,28.1-24.5,42.9
		c-3.9,7.8-2.5,12.5,4.5,17.3c14.5,9.9,28,21.5,43,30.6c15,9.1,4,19.6,3.5,29.5c-0.5,9.3-6.4,12.1-14.9,12.7
		c-17,1.1-33.9,3.3-50.9,4.4c-9.8,0.6-14.3,4.8-14.1,14.8c0.4,17,0.5,34.1,0.4,51.1c0,7.2,3,10.5,10.3,11.1c18,1.6,36,4.3,54,5.4
		c8.9,0.5,14.5,3.1,15.1,12.2c0.6,9.9,11.6,20.4-3.2,29.6C90.3,490.6,76.8,502,62.3,512c-6.7,4.7-9,9-4.9,17.2
		c7.5,15.3,16.3,29.9,25.3,44.4c4.8,7.6,10.3,9.3,18.8,5.2c16.3-7.9,33.3-14.3,49.4-22.4c14.2-7.1,16.8,7.1,24.2,12.1
		c5.8,3.9,9.7,8.5,5.2,17.2c-8.3,16.1-14.5,33.2-22.5,49.4c-4,8.2-3.5,13.8,4.8,18.5c14.9,8.3,29.6,16.9,44.3,25.5
		c7.3,4.3,12.4,3,17.3-4.2c10.2-15,21.3-29.3,31.6-44.2c4-5.8,8-10.4,15.4-6c8.5,5.1,24-1,25.2,16.2c1.2,17.5,3.8,34.9,5.1,52.5
		c0.7,9.5,4,14.9,14.3,14.8c16.5-0.2,33-0.1,49.5,0.1c9.2,0.1,13-4,13.6-13.5c1.2-18,3.9-36,5.5-54c0.6-6.7,2.4-11.4,9.8-11.9
		c15-0.9,20-9.1,17.8-23.3c-0.7-4.7-0.1-9.6-0.1-14.4c0.2-27.7,13.5-41.4,41-41.7c20.3-0.3,40.6-1.3,60.7,0.3
		c15.7,1.2,18.9-4.8,17.8-18.7c-1.1-13.2-0.2-26.6-0.2-40c0.1,0,0.1,0,0.2,0c0-14.4-0.2-28.8,0-43.2c0.5-25.3,14.3-39.3,39.8-39.8
		c16.5-0.4,33-0.1,49.6-0.1C656.5,407.9,656.2,407.9,652.7,371.7z M340.8,506.6c-61-0.2-110.6-48.8-110.9-108.7
		c-0.3-62.9,48.1-112.3,110.2-112.4c61.4-0.1,110.9,49,111.1,110.2C451.4,456.7,401.6,506.8,340.8,506.6z"/>
</g>
</svg>
