<svg width="25" height="35" viewBox="0 0 25 35" fill="none" xmlns="http://www.w3.org/2000/svg">
<path d="M5.99836 33.9969C6.39246 33.9989 6.78336 33.9232 7.14745 33.7742C7.51155 33.6252 7.84163 33.406 8.1189 33.1297L22.1224 19.3328C22.6844 18.7785 23 18.0272 23 17.2435C23 16.4603 22.6844 15.7089 22.1224 15.1543L8.1189 1.47577C7.55476 1.11551 6.88459 0.952236 6.21522 1.01211C5.54585 1.07195 4.91609 1.35152 4.42716 1.80595C3.93824 2.26038 3.61856 2.86334 3.51893 3.51826C3.4193 4.17318 3.54574 4.84205 3.87782 5.41774L15.8809 17.2435L3.87782 29.0694C3.31568 29.6241 3 30.3754 3 31.1587C3 31.9423 3.31568 32.6937 3.87782 33.2479C4.45677 33.7631 5.21896 34.0324 5.99836 33.9969Z" fill="#C5C5C5" stroke="#C5C5C5"/>
</svg>
