<svg width="25" height="35" viewBox="0 0 25 35" fill="none" xmlns="http://www.w3.org/2000/svg">
<path d="M19.0016 33.9969C18.6075 33.9989 18.2166 33.9232 17.8525 33.7742C17.4885 33.6252 17.1584 33.406 16.8811 33.1297L2.87758 19.3328C2.31564 18.7785 2 18.0272 2 17.2435C2 16.4603 2.31564 15.7089 2.87758 15.1543L16.8811 1.47577C17.4452 1.11551 18.1154 0.952236 18.7848 1.01211C19.4542 1.07195 20.0839 1.35152 20.5728 1.80595C21.0618 2.26038 21.3814 2.86334 21.4811 3.51826C21.5807 4.17318 21.4543 4.84205 21.1222 5.41774L9.11913 17.2435L21.1222 29.0694C21.6843 29.6241 22 30.3754 22 31.1587C22 31.9423 21.6843 32.6937 21.1222 33.2479C20.5432 33.7631 19.781 34.0324 19.0016 33.9969Z" fill="#C5C5C5" stroke="#C5C5C5"/>
</svg>
