<svg width="" height="" viewBox="0 0 230 230" fill="none" xmlns="http://www.w3.org/2000/svg">
<g clip-path="url(#clip0_525_318)">
<path d="M217.55 78.0801C215.662 78.696 214.632 80.7251 215.248 82.6118C218.649 93.0333 220.374 103.93 220.374 115.001C220.374 142.858 209.526 169.048 189.827 188.747C170.129 208.446 143.938 219.294 116.08 219.294C88.2226 219.294 62.0322 208.446 42.3335 188.747C22.6348 169.048 11.7871 142.858 11.7871 115C11.7871 87.1422 22.6353 60.9519 42.334 41.2532C62.0327 21.5545 88.223 10.7063 116.081 10.7063C130.855 10.7063 145.131 13.7313 158.512 19.6983C171.441 25.4636 182.899 33.6726 192.567 44.0976C193.917 45.5526 196.191 45.6389 197.646 44.2885C199.101 42.9391 199.187 40.6656 197.837 39.2097C187.505 28.0695 175.26 19.2967 161.44 13.1339C147.131 6.75407 131.87 3.5188 116.081 3.5188C86.3031 3.5188 58.3078 15.1145 37.252 36.1712C16.1957 57.2269 4.59961 85.2223 4.59961 115C4.59961 144.777 16.1957 172.773 37.252 193.829C58.3078 214.885 86.3031 226.481 116.081 226.481C145.859 226.481 173.854 214.885 194.91 193.829C215.966 172.773 227.562 144.777 227.562 115C227.562 103.171 225.718 91.5239 222.081 80.3815C221.465 78.4948 219.436 77.4656 217.55 78.0801Z" fill="#00DE16" stroke="#2BE05F" stroke-width="5"/>
<path d="M224.538 43.2235C222.617 41.3006 220.062 40.2417 217.343 40.2417C214.624 40.2417 212.068 41.3006 210.149 43.2222L207.114 46.2565C205.791 47.5802 205.791 49.7264 207.114 51.0501C208.438 52.3734 210.585 52.3738 211.908 51.0497L214.944 48.0141C215.584 47.3734 216.435 47.0209 217.342 47.0209C218.249 47.0209 219.101 47.3734 219.742 48.0158C220.384 48.6573 220.737 49.509 220.737 50.4154C220.737 51.3217 220.384 52.1734 219.742 52.8149L102.857 169.7C102.218 170.341 101.366 170.694 100.459 170.694C99.5524 170.694 98.7007 170.341 98.0592 169.699L52.4108 124.05C51.7693 123.409 51.4159 122.557 51.4159 121.651C51.4159 120.745 51.7693 119.893 52.4121 119.25C53.0519 118.609 53.9036 118.256 54.8104 118.256C55.7171 118.256 56.5688 118.609 57.2104 119.251L98.0622 160.103C98.6978 160.739 99.56 161.096 100.459 161.096C101.358 161.096 102.221 160.739 102.856 160.103L202.368 60.5915C203.692 59.2674 203.692 57.1217 202.368 55.7975C201.044 54.4742 198.898 54.4742 197.574 55.7975L100.459 152.912L62.0061 114.459C60.0853 112.536 57.5303 111.477 54.8112 111.477C52.0922 111.477 49.5367 112.536 47.6172 114.457C45.6952 116.379 44.6367 118.934 44.6367 121.651C44.6367 124.368 45.6952 126.922 47.6172 128.845L93.2643 174.492C95.1847 176.415 97.7401 177.474 100.459 177.474C103.178 177.474 105.734 176.415 107.653 174.494L224.536 57.6098C226.458 55.6878 227.517 53.1331 227.517 50.4158C227.517 47.6984 226.458 45.1438 224.538 43.2235Z" fill="#00DE16"/>
</g>
<defs>
<clipPath id="clip0_525_318">
<rect width="230" height="230" fill="white"/>
</clipPath>
</defs>
</svg>
