<svg width="150" height="150" viewBox="0 0 150 150" fill="none" xmlns="http://www.w3.org/2000/svg">
<g opacity="0.1">
<path d="M75 75L103.125 46.875" stroke="#32012F" stroke-width="5" stroke-miterlimit="10" stroke-linecap="round" stroke-linejoin="round"/>
<path d="M140.625 28.125H121.875V9.375L103.125 28.125V46.875H121.875L140.625 28.125Z" stroke="#32012F" stroke-width="5" stroke-miterlimit="10" stroke-linecap="round" stroke-linejoin="round"/>
<path d="M75 103.125C90.533 103.125 103.125 90.533 103.125 75C103.125 59.467 90.533 46.875 75 46.875C59.467 46.875 46.875 59.467 46.875 75C46.875 90.533 59.467 103.125 75 103.125Z" stroke="#32012F" stroke-width="7" stroke-miterlimit="10" stroke-linecap="round" stroke-linejoin="round"/>
<path d="M126.562 42.1875C132.656 51.5625 135.938 62.8125 135.938 75C135.938 108.75 108.75 135.938 75 135.938C41.25 135.938 14.0625 108.75 14.0625 75C14.0625 41.25 41.25 14.0625 75 14.0625C87.1875 14.0625 98.4375 17.3438 107.812 23.4375" stroke="#32012F" stroke-width="6" stroke-miterlimit="10" stroke-linecap="round" stroke-linejoin="round"/>
</g>
</svg>
