<svg width="60" height="60" viewBox="0 0 60 60" fill="none" xmlns="http://www.w3.org/2000/svg">
<g clip-path="url(#clip0_266_117)">
<path d="M47.2995 28.4417L26.5363 1.02279C25.6761 -0.11311 24.0574 -0.33729 22.9216 0.523804C21.7848 1.38396 21.5614 3.00349 22.4217 4.14033L25.2166 7.82986C19.2419 10.4789 12.1782 8.46572 12.1782 8.46572C15.4462 13.8324 21.2416 15.116 23.0324 15.3907C19.7194 19.3486 17.7135 24.4415 17.7125 30.0009C17.7152 37.8375 21.6894 44.7626 27.7199 48.8645L22.4217 55.8597C21.5614 56.9966 21.7848 58.616 22.9216 59.4772C24.0574 60.3365 25.6761 60.1132 26.5363 58.9782V58.9773L47.2995 31.5575C47.9959 30.6369 47.9959 29.3614 47.2995 28.4417ZM23.0324 36.0215C21.9316 36.0215 21.0389 33.3247 21.0389 29.9974C21.0389 26.6736 21.9316 23.9767 23.0324 23.9767C24.133 23.9767 25.0257 26.6736 25.0257 29.9974C25.0257 33.3247 24.133 36.0215 23.0324 36.0215ZM30.8355 44.7499C29.234 43.6924 27.8162 42.3846 26.6335 40.8785C28.9187 39.7247 30.6203 35.2966 30.6203 29.9974C30.6203 24.7018 28.9187 20.2746 26.6353 19.1198C27.8162 17.6147 29.234 16.3077 30.8355 15.2519L42.0058 30.0009L30.8355 44.7499Z" fill="#F97300"/>
</g>
<defs>
<clipPath id="clip0_266_117">
<rect width="60" height="60" fill="white"/>
</clipPath>
</defs>
</svg>
