<svg width="150" height="150" viewBox="0 0 150 150" fill="none" xmlns="http://www.w3.org/2000/svg">
<g opacity="0.1">
<path d="M87.5 17.1875C99.4175 17.1875 107.884 17.1974 114.307 18.061C120.595 18.9064 124.218 20.4918 126.863 23.1369C129.907 26.1815 131.233 28.5416 131.967 32.749C132.794 37.4913 132.812 44.2557 132.812 56.25C132.812 58.8389 134.911 60.9375 137.5 60.9375C140.089 60.9375 142.187 58.8389 142.187 56.25V55.6481C142.188 44.4031 142.188 36.7857 141.202 31.1374C140.106 24.8541 137.77 20.7855 133.493 16.5078C128.815 11.8305 122.884 9.75475 115.556 8.76963C108.436 7.81231 99.3388 7.81238 87.8525 7.8125H87.5C84.9112 7.8125 82.8125 9.91119 82.8125 12.5C82.8125 15.0888 84.9112 17.1875 87.5 17.1875Z" fill="#32012F"/>
<path d="M12.5001 89.0625C15.0889 89.0625 17.1876 91.1612 17.1876 93.75C17.1876 105.744 17.2056 112.509 18.0331 117.251C18.7672 121.458 20.0923 123.819 23.1369 126.863C25.782 129.508 29.4048 131.094 35.6928 131.939C42.1158 132.803 50.5824 132.812 62.5 132.812C65.0888 132.812 67.1875 134.911 67.1875 137.5C67.1875 140.089 65.0888 142.187 62.5 142.187H62.1474C50.6614 142.187 41.5638 142.188 34.4436 141.231C27.116 140.245 21.1851 138.169 16.5078 133.493C12.2301 129.214 9.89401 125.146 8.79764 118.862C7.81201 113.214 7.8122 105.597 7.81251 94.3525L7.81257 93.75C7.81257 91.1612 9.9112 89.0625 12.5001 89.0625Z" fill="#32012F"/>
<path d="M137.5 89.0625C140.089 89.0625 142.187 91.1612 142.187 93.75V94.3519C142.188 105.597 142.188 113.214 141.202 118.862C140.106 125.146 137.77 129.214 133.493 133.493C128.815 138.169 122.884 140.245 115.556 141.231C108.436 142.188 99.3388 142.187 87.8525 142.187H87.5C84.9112 142.187 82.8125 140.089 82.8125 137.5C82.8125 134.911 84.9112 132.812 87.5 132.812C99.4175 132.812 107.884 132.803 114.307 131.939C120.595 131.094 124.218 129.508 126.863 126.863C129.907 123.819 131.233 121.458 131.967 117.251C132.794 112.509 132.812 105.744 132.812 93.75C132.812 91.1612 134.911 89.0625 137.5 89.0625Z" fill="#32012F"/>
<path d="M62.1474 7.8125H62.5C65.0888 7.8125 67.1875 9.91119 67.1875 12.5C67.1875 15.0888 65.0888 17.1875 62.5 17.1875C50.5824 17.1875 42.1158 17.1974 35.6928 18.061C29.4048 18.9064 25.782 20.4918 23.1369 23.1369C20.0923 26.1815 18.7672 28.5416 18.0331 32.749C17.2056 37.4913 17.1876 44.2557 17.1876 56.25C17.1876 58.8389 15.0889 60.9375 12.5001 60.9375C9.9112 60.9375 7.81257 58.8389 7.81257 56.25L7.81251 55.6481C7.8122 44.4033 7.81201 36.7856 8.79764 31.1374C9.89401 24.8541 12.2301 20.7855 16.5078 16.5078C21.1851 11.8305 27.116 9.75475 34.4436 8.76963C41.5637 7.81231 50.6615 7.81238 62.1474 7.8125Z" fill="#32012F"/>
<path d="M75 67.1875C70.685 67.1875 67.1875 70.685 67.1875 75C67.1875 79.315 70.685 82.8125 75 82.8125C79.315 82.8125 82.8125 79.315 82.8125 75C82.8125 70.685 79.315 67.1875 75 67.1875Z" fill="#32012F"/>
<path fill-rule="evenodd" clip-rule="evenodd" d="M36.8276 87.8737C33.1092 83.5606 31.25 81.4037 31.25 75C31.25 68.5962 33.1092 66.4394 36.8276 62.1263C44.2523 53.5139 56.7043 43.75 74.9999 43.75C93.2956 43.75 105.747 53.5139 113.172 62.1263C116.891 66.4394 118.75 68.5962 118.75 75C118.75 81.4037 116.891 83.5606 113.172 87.8737C105.747 96.4862 93.2956 106.25 74.9999 106.25C56.7043 106.25 44.2523 96.4862 36.8276 87.8737ZM57.8125 75C57.8125 65.5075 65.5074 57.8125 74.9999 57.8125C84.4924 57.8125 92.1874 65.5075 92.1874 75C92.1874 84.4925 84.4924 92.1875 74.9999 92.1875C65.5074 92.1875 57.8125 84.4925 57.8125 75Z" fill="#32012F"/>
</g>
</svg>
