<svg width="40" height="58" viewBox="0 0 52 52" fill="none" xmlns="http://www.w3.org/2000/svg">
<path d="M50 34.6667V41.3333C50 42.0406 49.719 42.7189 49.219 43.219C48.7189 43.719 48.0406 44 47.3333 44H28.6667C27.9594 44 27.2811 43.719 26.781 43.219C26.281 42.7189 26 42.0406 26 41.3333V22.6667C26 21.9594 26.281 21.2811 26.781 20.781C27.2811 20.281 27.9594 20 28.6667 20H35.3333V22.6667H28.6667V41.3333H47.3333V34.6667H50Z" fill="black"/>
<path d="M50 25.2H44.8V20H42.2V25.2H37V27.8H42.2V33H44.8V27.8H50V25.2Z" fill="#F97300"/>
</svg>
