<svg width="19" height="69" viewBox="0 0 25 25" fill="none" xmlns="http://www.w3.org/2000/svg">
<path d="M22.3027 2.66875C21.81 2.21459 21.1577 1.97483 20.4889 2.00209C19.82 2.02936 19.1893 2.32142 18.7351 2.81418L10.4152 11.1525L9 16L13.8371 14.5824L22.1575 6.30449C22.4099 6.07819 22.6143 5.8034 22.7587 5.49641C22.9031 5.18942 22.9844 4.8565 22.998 4.5174C23.0115 4.1783 22.9569 3.83993 22.8375 3.52237C22.7181 3.20481 22.5362 2.91453 22.3027 2.66875Z" stroke="#F97300" stroke-width="3" stroke-linecap="round" stroke-linejoin="round"/>
<path d="M12.5 1H2.27757C1.93874 1 1.61378 1.1346 1.37419 1.37419C1.1346 1.61378 1 1.93874 1 2.27757V22.7224C1 23.0613 1.1346 23.3862 1.37419 23.6258C1.61378 23.8654 1.93874 24 2.27757 24H22.7224C23.0613 24 23.3862 23.8654 23.6258 23.6258C23.8654 23.3862 24 23.0613 24 22.7224V12.5" stroke="black" stroke-width="2" stroke-linecap="round" stroke-linejoin="round"/>
</svg>
