<svg width="144" height="116" viewBox="0 0 144 116" fill="none" xmlns="http://www.w3.org/2000/svg">
<g clip-path="url(#clip0_2295_11276)">
<path d="M0.507812 114.298L1.72343 101.234H5.69082L7.77932 108.383L8.61521 111.776H8.72863L9.56452 108.363L11.3103 101.234H15.6007L16.7966 114.298H13.6084L13.2656 106.903L13.2089 103.793H13.0955L12.3558 106.923L10.3437 114.298H7.01986L4.98808 106.923L4.20891 103.832H4.13247L4.03877 106.903L3.6985 114.298H0.507812Z" fill="#1F245E"/>
<path d="M29.2709 101.232L24.4873 109.366V114.296H21.6961V109.366L16.873 101.232H20.2709L21.8835 104.569L23.0424 107.223H23.1188L24.3147 104.569L25.9273 101.232H29.2709Z" fill="#1F245E"/>
<path d="M39.2398 114.525C38.468 114.525 37.7751 114.417 37.1612 114.202C36.5472 113.988 36.0195 113.754 35.5757 113.501C35.0702 113.198 34.6067 112.85 34.1899 112.459L35.2724 110.582C35.6151 110.873 35.9949 111.132 36.4116 111.361C36.7667 111.563 37.1735 111.742 37.6371 111.9C38.0982 112.058 38.5962 112.136 39.1264 112.136C39.7847 112.136 40.3149 112.026 40.7217 111.804C41.1261 111.582 41.3283 111.233 41.3283 110.752C41.3283 110.486 41.205 110.252 40.9584 110.051C40.7119 109.849 40.3962 109.657 40.0091 109.472C39.622 109.29 39.1979 109.117 38.7368 108.96C38.2757 108.802 37.8294 108.64 37.3979 108.477C36.9417 108.287 36.5275 108.09 36.1551 107.888C35.7828 107.687 35.4672 107.445 35.2157 107.167C34.9617 106.889 34.7669 106.566 34.6264 106.199C34.4858 105.832 34.4168 105.396 34.4168 104.892C34.4168 104.411 34.508 103.941 34.693 103.478C34.8754 103.018 35.1614 102.604 35.5486 102.237C35.9332 101.87 36.4239 101.577 37.0206 101.355C37.6149 101.134 38.3299 101.023 39.1658 101.023C39.8365 101.023 40.448 101.097 40.9979 101.242C41.5478 101.387 42.0261 101.55 42.4305 101.725C42.899 101.939 43.328 102.173 43.7225 102.427L42.7732 104.36C42.4823 104.195 42.1716 104.044 41.8436 103.904C41.5527 103.791 41.2149 103.687 40.8278 103.591C40.4406 103.498 40.0264 103.449 39.585 103.449C38.9784 103.449 38.4754 103.582 38.076 103.847C37.6765 104.113 37.4768 104.448 37.4768 104.852C37.4768 105.066 37.5409 105.251 37.6667 105.401C37.7924 105.554 37.9773 105.694 38.2165 105.827C38.4557 105.96 38.7417 106.086 39.0697 106.207C39.3976 106.327 39.7724 106.463 40.1891 106.615C40.6058 106.756 41.0595 106.916 41.5477 107.098C42.036 107.283 42.4872 107.519 42.9064 107.81C43.3231 108.1 43.6732 108.465 43.9494 108.901C44.228 109.336 44.3661 109.883 44.3661 110.541C44.3661 111.21 44.233 111.796 43.9667 112.294C43.7004 112.794 43.3379 113.208 42.8743 113.535C42.4132 113.865 41.8708 114.111 41.2519 114.274C40.6305 114.444 39.9598 114.525 39.2398 114.525Z" fill="#1F245E"/>
<path d="M50.839 112.136C51.6354 112.136 52.2494 111.776 52.6809 111.055C53.1099 110.333 53.3269 109.356 53.3269 108.117V101.234H56.3845V108.097C56.3845 109.247 56.2538 110.23 55.9949 111.045C55.736 111.86 55.3661 112.528 54.8853 113.045C54.4045 113.564 53.8225 113.943 53.1395 114.182C52.4565 114.421 51.6971 114.542 50.8612 114.542C50.0253 114.542 49.2683 114.421 48.5927 114.182C47.9146 113.943 47.3327 113.564 46.8469 113.045C46.3587 112.528 45.9864 111.86 45.7275 111.045C45.4686 110.23 45.3379 109.247 45.3379 108.097V101.234H48.3954V108.117C48.3954 109.356 48.6099 110.336 49.0415 111.055C49.4656 111.774 50.0672 112.136 50.839 112.136Z" fill="#1F245E"/>
<path d="M60.9016 109.878V114.296H57.8638V101.232C58.2682 101.18 58.7243 101.143 59.2298 101.119C59.7353 101.094 60.332 101.067 61.015 101.042C61.989 101.005 62.9013 101.05 63.7495 101.175C64.5977 101.301 65.335 101.535 65.9613 101.877C66.5876 102.219 67.0808 102.682 67.4432 103.271C67.8057 103.86 67.9832 104.596 67.9832 105.48C67.9832 106.061 67.9142 106.573 67.7736 107.016C67.6331 107.46 67.4432 107.844 67.204 108.174C66.9624 108.504 66.6788 108.775 66.3484 108.989C66.018 109.203 65.6654 109.376 65.2857 109.501V109.577C65.4879 109.654 65.6802 109.774 65.8651 109.937C66.0476 110.102 66.2103 110.341 66.3484 110.659L68.0005 114.298H64.9257L63.4265 110.828C63.2736 110.462 63.0912 110.213 62.8766 110.08C62.6621 109.947 62.3514 109.88 61.9471 109.88H60.9016V109.878ZM61.9668 108.154C62.3835 108.154 62.7731 108.112 63.1355 108.031C63.498 107.95 63.8087 107.812 64.075 107.622C64.3413 107.433 64.5484 107.184 64.7013 106.874C64.8542 106.563 64.9282 106.182 64.9282 105.726C64.9282 105.182 64.795 104.756 64.5287 104.446C64.2624 104.135 63.9295 103.909 63.5325 103.763C63.1331 103.618 62.6991 103.537 62.2331 103.517C61.7646 103.498 61.3282 103.507 60.9238 103.547V108.117C60.9879 108.13 61.1432 108.139 61.3898 108.147C61.6339 108.152 61.8262 108.154 61.9668 108.154Z" fill="#1F245E"/>
<path d="M80.763 101.232L75.8266 114.296H72.7123L67.7759 101.232H71.2699L73.1315 107.319L74.2337 111.87H74.3274L75.4296 107.319L77.2715 101.232H80.763Z" fill="#1F245E"/>
<path d="M81.4463 101.232H90.7126V103.64H84.5038V106.75H89.5734V108.477H84.5038V111.87H90.6731V114.298H81.4463V101.232Z" fill="#1F245E"/>
<path d="M103.431 101.232L98.6474 109.366V114.296H95.8562V109.366L91.0332 101.232H94.431L96.0436 104.569L97.2025 107.223H97.279L98.4748 104.569L100.09 101.232H103.431Z" fill="#1F245E"/>
<path d="M108.86 101.232C109.378 101.18 109.982 101.133 110.673 101.089C111.363 101.045 112.226 101.03 113.264 101.042C114.088 101.042 114.847 101.128 115.543 101.298C116.238 101.468 116.842 101.737 117.355 102.104C117.868 102.471 118.267 102.931 118.551 103.488C118.834 104.044 118.977 104.706 118.977 105.477C118.977 106.349 118.829 107.088 118.531 107.696C118.233 108.302 117.841 108.797 117.355 109.176C116.867 109.555 116.307 109.831 115.676 110.001C115.042 110.171 114.391 110.257 113.72 110.257H111.898V114.296H108.86V101.232ZM113.21 107.868C113.513 107.868 113.826 107.846 114.149 107.802C114.472 107.758 114.766 107.659 115.032 107.509C115.298 107.356 115.515 107.137 115.688 106.846C115.858 106.556 115.944 106.164 115.944 105.672C115.944 105.256 115.866 104.901 115.708 104.61C115.55 104.32 115.335 104.086 115.062 103.909C114.79 103.731 114.47 103.608 114.103 103.539C113.735 103.47 113.336 103.453 112.907 103.492C112.729 103.505 112.547 103.515 112.357 103.522C112.167 103.529 112.021 103.537 111.92 103.552V107.856C111.945 107.856 112.014 107.859 112.13 107.866C112.243 107.873 112.369 107.876 112.51 107.876C112.648 107.876 112.786 107.876 112.919 107.876C113.052 107.876 113.146 107.868 113.21 107.868Z" fill="#7DCCB7"/>
<path d="M123.157 109.878V114.296H120.119V101.232C120.524 101.18 120.98 101.143 121.485 101.119C121.991 101.094 122.587 101.067 123.27 101.042C124.244 101.005 125.157 101.05 126.005 101.175C126.853 101.301 127.59 101.535 128.217 101.877C128.843 102.219 129.336 102.682 129.699 103.271C130.059 103.86 130.241 104.596 130.241 105.48C130.241 106.061 130.172 106.573 130.031 107.016C129.891 107.46 129.704 107.844 129.462 108.174C129.22 108.504 128.937 108.775 128.609 108.989C128.278 109.203 127.926 109.376 127.546 109.501V109.577C127.748 109.654 127.941 109.774 128.125 109.937C128.308 110.102 128.471 110.341 128.609 110.659L130.261 114.298H127.184L125.684 110.828C125.531 110.462 125.349 110.213 125.134 110.08C124.92 109.947 124.609 109.88 124.205 109.88H123.157V109.878ZM124.222 108.154C124.639 108.154 125.028 108.112 125.391 108.031C125.753 107.95 126.064 107.812 126.33 107.622C126.597 107.433 126.804 107.184 126.957 106.874C127.11 106.563 127.184 106.182 127.184 105.726C127.184 105.182 127.05 104.756 126.784 104.446C126.518 104.135 126.187 103.909 125.788 103.763C125.388 103.618 124.954 103.537 124.488 103.517C124.02 103.498 123.584 103.507 123.179 103.547V108.117C123.243 108.13 123.399 108.139 123.645 108.147C123.889 108.152 124.082 108.154 124.222 108.154Z" fill="#7DCCB7"/>
<path d="M137.093 101.025C138.144 101.025 139.068 101.222 139.865 101.614C140.661 102.005 141.329 102.52 141.867 103.16C142.404 103.798 142.809 104.52 143.083 105.322C143.354 106.125 143.492 106.938 143.492 107.758C143.492 108.58 143.356 109.396 143.083 110.203C142.811 111.013 142.409 111.735 141.877 112.375C141.344 113.013 140.681 113.533 139.884 113.929C139.088 114.328 138.156 114.527 137.093 114.527C136.043 114.527 135.118 114.328 134.322 113.929C133.525 113.53 132.86 113.013 132.329 112.375C131.797 111.737 131.395 111.013 131.124 110.203C130.852 109.393 130.714 108.578 130.714 107.758C130.714 106.935 130.85 106.125 131.124 105.322C131.395 104.52 131.797 103.801 132.329 103.16C132.862 102.523 133.525 102.008 134.322 101.614C135.118 101.22 136.043 101.025 137.093 101.025ZM137.093 112.136C137.651 112.136 138.141 112.011 138.565 111.757C138.989 111.503 139.344 111.173 139.628 110.762C139.912 110.351 140.129 109.883 140.274 109.359C140.42 108.834 140.491 108.307 140.491 107.775C140.491 107.231 140.415 106.702 140.264 106.182C140.111 105.665 139.892 105.199 139.598 104.788C139.308 104.377 138.95 104.049 138.526 103.803C138.102 103.557 137.623 103.434 137.093 103.434C136.561 103.434 136.087 103.557 135.668 103.803C135.249 104.049 134.896 104.374 134.605 104.778C134.314 105.182 134.092 105.648 133.942 106.172C133.789 106.697 133.715 107.231 133.715 107.775C133.715 108.307 133.787 108.834 133.932 109.359C134.078 109.883 134.292 110.351 134.578 110.762C134.864 111.173 135.214 111.506 135.631 111.757C136.05 112.008 136.536 112.136 137.093 112.136Z" fill="#7DCCB7"/>
<path d="M84.6271 63.7822C74.8454 64.2747 65.0663 64.7672 55.2846 65.2597C54.8729 60.0071 54.4635 54.7521 54.0518 49.4995C58.9833 49.2532 63.9148 49.007 68.8463 48.7607C74.1057 53.7695 79.3676 58.7758 84.6271 63.7822Z" fill="#1F245E"/>
<path d="M26.1888 77.8186C24.8696 74.7133 15.8425 52.4742 27.6682 30.538C30.4027 25.4628 37.9603 13.5318 53.312 7.39029C56.3868 6.15902 71.7657 0.364698 89.4353 7.02091C109.514 14.5858 117.148 32.4293 118.778 36.5712C127.06 57.616 118.536 76.0899 117.052 79.1729C118.465 75.8288 125.859 57.4017 117.052 37.31C114.761 32.087 108.062 19.1907 92.8874 11.946C90.6362 10.8723 70.8953 1.85206 50.2299 11.946C26.4748 23.5494 23.2101 49.8024 22.86 53.0702C21.6937 63.9865 24.3025 72.8664 26.1888 77.8186Z" fill="#1F245E"/>
<path d="M39.5038 51.7155C38.5989 34.7241 37.6964 17.7326 36.7915 0.741211C42.051 5.585 47.3129 10.4263 52.5723 15.2701C53.4773 31.934 54.3797 48.5955 55.2847 65.2594C50.0252 60.7456 44.7633 56.2318 39.5038 51.7155Z" fill="#3B5BE4"/>
<path d="M69.093 44.0821C65.5595 40.3883 62.0237 36.6945 58.4902 33.0008C60.448 31.2376 67.9932 24.8621 79.4491 24.6282C80.9656 24.5962 94.3595 24.5469 103.86 35.217C112.848 45.3134 114.695 60.8987 107.805 72.6474C100.933 84.3641 88.4812 86.9572 87.3395 87.1763C74.8653 89.5625 65.5275 83.1526 63.9149 82.005C66.6691 77.8606 69.4209 73.7137 72.1752 69.5693C77.7206 73.1744 84.7184 73.2508 89.9286 69.8155C96.9067 65.2155 96.8524 56.8429 96.8327 56.0254C96.6601 48.7412 91.4771 41.7206 84.0108 40.019C76.0045 38.1967 69.7686 43.4887 69.093 44.0821Z" fill="#7DCCB7"/>
</g>
<defs>
<clipPath id="clip0_2295_11276">
<rect width="144" height="115" fill="white" transform="translate(0 0.266113)"/>
</clipPath>
</defs>
</svg>
