<svg width="60" height="60" viewBox="0 0 60 60" fill="none" xmlns="http://www.w3.org/2000/svg">
<g clip-path="url(#clip0_266_99)">
<path d="M37.8265 6.28808C37.8265 5.46238 37.1575 4.79333 36.3318 4.79333H20.4969C19.6712 4.79333 19.0021 5.46238 19.0021 6.28808V15.7921C19.0021 16.6178 19.6712 17.2868 20.4969 17.2868H34.8371V21.5091L20.4969 35.8539L16.8035 32.1589C16.4904 31.8458 16.0523 31.6882 15.6137 31.7268C15.1726 31.7661 14.7716 31.9989 14.5189 32.3624L0.267423 52.8583C-0.0502594 53.3151 -0.0877277 53.9106 0.170165 54.4039C0.427859 54.8973 0.938464 55.2062 1.49491 55.2062H58.5014C58.503 55.2064 58.5046 55.2064 58.5054 55.2062C59.3311 55.2062 60.0002 54.5372 60.0002 53.7115C60.0002 53.3562 59.8762 53.0297 59.6691 52.7732L37.8265 21.6558V6.28808ZM21.9916 14.2973V7.78282H34.8371V14.2973H21.9916ZM4.35465 52.217L15.9529 35.5368L19.4396 39.0251C19.72 39.3054 20.1003 39.463 20.4969 39.463C20.8933 39.463 21.2736 39.3054 21.554 39.0251L36.1309 24.4434L55.6259 52.2172H4.35465V52.217Z" fill="#F97300"/>
</g>
<defs>
<clipPath id="clip0_266_99">
<rect width="60" height="60" fill="white"/>
</clipPath>
</defs>
</svg>
