<?xml version="1.0" encoding="utf-8"?>
<!-- Generator: Adobe Illustrator 24.3.0, SVG Export Plug-In . SVG Version: 6.00 Build 0)  -->
<svg version="1.1" id="Layer_1" xmlns="http://www.w3.org/2000/svg" xmlns:xlink="http://www.w3.org/1999/xlink" x="0px" y="0px"
	 viewBox="0 0 1080 1080" style="enable-background:new 0 0 1080 1080;" xml:space="preserve">
<style type="text/css">
	.st0{display:none;}
	.st1{fill:#32012F;}
	.st2{fill:#F97300;}
	.st3{fill:#004AAC;}
	.st4{fill:#2074B3;}
	.st5{fill:#266DCC;}
</style>
<g id="Layer_2" class="st0">
</g>
<g>
	<g>
		<path class="st1" d="M250.06,770.07l4.93-53.05h16.09l8.47,29.03l3.39,13.78h0.46l3.39-13.86l7.08-28.95h17.4l4.85,53.05h-12.94
			l-1.39-30.03l-0.23-12.63h-0.46l-3,12.71l-8.16,29.95h-13.48l-8.24-29.95l-3.16-12.55h-0.31l-0.38,12.47L263,770.07H250.06z"/>
		<path class="st1" d="M366.71,717.01l-19.4,33.03v20.02h-11.32v-20.02l-19.56-33.03h13.78l6.54,13.55l4.7,10.78h0.31l4.85-10.78
			l6.54-13.55H366.71z"/>
		<path class="st1" d="M407.14,770.99c-3.13,0-5.94-0.44-8.43-1.31c-2.49-0.87-4.63-1.82-6.43-2.85c-2.05-1.23-3.93-2.64-5.62-4.23
			l4.39-7.62c1.39,1.18,2.93,2.23,4.62,3.16c1.44,0.82,3.09,1.55,4.97,2.19c1.87,0.64,3.89,0.96,6.04,0.96
			c2.67,0,4.82-0.45,6.47-1.35c1.64-0.9,2.46-2.32,2.46-4.27c0-1.08-0.5-2.03-1.5-2.85c-1-0.82-2.28-1.6-3.85-2.35
			c-1.57-0.74-3.29-1.44-5.16-2.08c-1.87-0.64-3.68-1.3-5.43-1.96c-1.85-0.77-3.53-1.57-5.04-2.39c-1.51-0.82-2.79-1.8-3.81-2.93
			c-1.03-1.13-1.82-2.44-2.39-3.93c-0.57-1.49-0.85-3.26-0.85-5.31c0-1.95,0.37-3.86,1.12-5.74c0.74-1.87,1.9-3.55,3.47-5.04
			c1.56-1.49,3.55-2.68,5.97-3.58c2.41-0.9,5.31-1.35,8.7-1.35c2.72,0,5.2,0.3,7.43,0.89c2.23,0.59,4.17,1.25,5.81,1.96
			c1.9,0.87,3.64,1.82,5.24,2.85l-3.85,7.85c-1.18-0.67-2.44-1.28-3.77-1.85c-1.18-0.46-2.55-0.88-4.12-1.27
			c-1.57-0.38-3.25-0.58-5.04-0.58c-2.46,0-4.5,0.54-6.12,1.62c-1.62,1.08-2.43,2.44-2.43,4.08c0,0.87,0.26,1.62,0.77,2.23
			c0.51,0.62,1.26,1.19,2.23,1.73c0.97,0.54,2.13,1.05,3.46,1.54c1.33,0.49,2.85,1.04,4.54,1.66c1.69,0.57,3.53,1.22,5.51,1.96
			c1.98,0.75,3.81,1.71,5.51,2.89c1.69,1.18,3.11,2.66,4.23,4.43c1.13,1.77,1.69,3.99,1.69,6.66c0,2.72-0.54,5.1-1.62,7.12
			c-1.08,2.03-2.55,3.71-4.43,5.04c-1.87,1.34-4.07,2.34-6.58,3C412.78,770.66,410.06,770.99,407.14,770.99z"/>
		<path class="st1" d="M454.18,761.29c3.23,0,5.72-1.46,7.47-4.39c1.74-2.93,2.62-6.9,2.62-11.93v-27.95h12.4v27.87
			c0,4.67-0.53,8.66-1.58,11.97c-1.05,3.31-2.55,6.02-4.5,8.12c-1.95,2.11-4.31,3.65-7.08,4.62s-5.85,1.46-9.24,1.46
			c-3.39,0-6.46-0.49-9.2-1.46c-2.75-0.97-5.11-2.51-7.08-4.62c-1.98-2.1-3.49-4.81-4.54-8.12c-1.05-3.31-1.58-7.3-1.58-11.97
			v-27.87h12.4v27.95c0,5.03,0.87,9.01,2.62,11.93C448.61,759.82,451.05,761.29,454.18,761.29z"/>
		<path class="st1" d="M494.99,752.12v17.94h-12.32v-53.05c1.64-0.21,3.49-0.36,5.54-0.46c2.05-0.1,4.47-0.21,7.24-0.31
			c3.95-0.15,7.65,0.03,11.09,0.54c3.44,0.51,6.43,1.46,8.97,2.85c2.54,1.39,4.54,3.27,6.01,5.66s2.19,5.38,2.19,8.97
			c0,2.36-0.28,4.44-0.85,6.24c-0.57,1.8-1.34,3.36-2.31,4.7c-0.98,1.34-2.13,2.44-3.47,3.31c-1.34,0.87-2.77,1.57-4.31,2.08v0.31
			c0.82,0.31,1.6,0.8,2.35,1.46c0.74,0.67,1.4,1.64,1.96,2.93l6.7,14.78h-12.47l-6.08-14.09c-0.62-1.49-1.36-2.5-2.23-3.04
			c-0.87-0.54-2.13-0.81-3.77-0.81H494.99z M499.31,745.12c1.69,0,3.27-0.17,4.74-0.5s2.73-0.89,3.81-1.66
			c1.08-0.77,1.92-1.78,2.54-3.04c0.62-1.26,0.92-2.81,0.92-4.66c0-2.21-0.54-3.94-1.62-5.2c-1.08-1.26-2.43-2.18-4.04-2.77
			c-1.62-0.59-3.38-0.92-5.27-1c-1.9-0.08-3.67-0.04-5.31,0.12v18.56c0.26,0.05,0.89,0.09,1.89,0.12
			C497.96,745.11,498.74,745.12,499.31,745.12z"/>
		<path class="st1" d="M575.54,717.01l-20.02,53.05h-12.63l-20.02-53.05h14.17l7.55,24.72l4.47,18.48h0.38l4.47-18.48l7.47-24.72
			H575.54z"/>
		<path class="st1" d="M578.31,717.01h37.58v9.78h-25.18v12.63h20.56v7.01h-20.56v13.78h25.02v9.86h-37.42V717.01z"/>
		<path class="st1" d="M667.47,717.01l-19.4,33.03v20.02h-11.32v-20.02l-19.56-33.03h13.78l6.54,13.55l4.7,10.78h0.31l4.85-10.78
			l6.55-13.55H667.47z"/>
		<path class="st2" d="M689.49,717.01c2.1-0.21,4.55-0.4,7.35-0.58c2.8-0.18,6.3-0.24,10.51-0.19c3.34,0,6.42,0.35,9.24,1.04
			c2.82,0.69,5.27,1.78,7.35,3.27c2.08,1.49,3.7,3.36,4.85,5.62c1.15,2.26,1.73,4.95,1.73,8.08c0,3.54-0.6,6.54-1.81,9.01
			c-1.21,2.46-2.8,4.47-4.77,6.01c-1.98,1.54-4.25,2.66-6.81,3.35c-2.57,0.69-5.21,1.04-7.93,1.04h-7.39v16.4h-12.32V717.01z
			 M707.13,743.96c1.23,0,2.5-0.09,3.81-0.27c1.31-0.18,2.5-0.58,3.58-1.19c1.08-0.62,1.96-1.51,2.66-2.69
			c0.69-1.18,1.04-2.77,1.04-4.77c0-1.69-0.32-3.13-0.96-4.31c-0.64-1.18-1.51-2.13-2.62-2.85c-1.1-0.72-2.4-1.22-3.89-1.5
			c-1.49-0.28-3.11-0.35-4.85-0.19c-0.72,0.05-1.46,0.09-2.23,0.12c-0.77,0.03-1.36,0.06-1.77,0.12v17.48c0.1,0,0.38,0.01,0.85,0.04
			c0.46,0.03,0.97,0.04,1.54,0.04c0.56,0,1.12,0,1.66,0S706.87,743.96,707.13,743.96z"/>
		<path class="st2" d="M747.47,752.12v17.94h-12.32v-53.05c1.64-0.21,3.49-0.36,5.54-0.46c2.05-0.1,4.47-0.21,7.24-0.31
			c3.95-0.15,7.65,0.03,11.09,0.54c3.44,0.51,6.43,1.46,8.97,2.85c2.54,1.39,4.54,3.27,6.01,5.66c1.46,2.39,2.2,5.38,2.2,8.97
			c0,2.36-0.28,4.44-0.85,6.24c-0.57,1.8-1.33,3.36-2.31,4.7c-0.98,1.34-2.13,2.44-3.46,3.31c-1.34,0.87-2.77,1.57-4.31,2.08v0.31
			c0.82,0.31,1.6,0.8,2.35,1.46c0.74,0.67,1.4,1.64,1.96,2.93l6.7,14.78H763.8l-6.08-14.09c-0.62-1.49-1.36-2.5-2.23-3.04
			c-0.87-0.54-2.13-0.81-3.77-0.81H747.47z M751.79,745.12c1.69,0,3.27-0.17,4.74-0.5s2.73-0.89,3.81-1.66
			c1.08-0.77,1.92-1.78,2.54-3.04c0.62-1.26,0.92-2.81,0.92-4.66c0-2.21-0.54-3.94-1.62-5.2c-1.08-1.26-2.42-2.18-4.04-2.77
			c-1.62-0.59-3.38-0.92-5.27-1c-1.9-0.08-3.67-0.04-5.31,0.12v18.56c0.26,0.05,0.89,0.09,1.89,0.12
			C750.44,745.11,751.22,745.12,751.79,745.12z"/>
		<path class="st2" d="M803.99,716.17c4.26,0,8.01,0.8,11.24,2.39c3.23,1.59,5.94,3.68,8.12,6.28c2.18,2.59,3.82,5.52,4.93,8.78
			c1.1,3.26,1.66,6.56,1.66,9.89c0,3.34-0.55,6.65-1.66,9.93c-1.1,3.29-2.73,6.22-4.89,8.82c-2.16,2.59-4.85,4.7-8.08,6.31
			c-3.23,1.62-7.01,2.43-11.32,2.43c-4.26,0-8.01-0.81-11.24-2.43c-3.23-1.62-5.93-3.72-8.08-6.31c-2.16-2.59-3.79-5.53-4.89-8.82
			c-1.1-3.29-1.66-6.6-1.66-9.93c0-3.34,0.55-6.63,1.66-9.89c1.1-3.26,2.73-6.18,4.89-8.78c2.16-2.59,4.85-4.68,8.08-6.28
			C795.98,716.96,799.73,716.17,803.99,716.17z M803.99,761.29c2.26,0,4.25-0.51,5.97-1.54c1.72-1.03,3.16-2.37,4.31-4.04
			c1.15-1.67,2.03-3.57,2.62-5.7c0.59-2.13,0.88-4.27,0.88-6.43c0-2.21-0.31-4.36-0.92-6.47c-0.62-2.1-1.51-3.99-2.7-5.66
			c-1.18-1.67-2.63-3-4.35-4c-1.72-1-3.66-1.5-5.81-1.5c-2.16,0-4.08,0.5-5.78,1.5s-3.13,2.32-4.31,3.96
			c-1.18,1.64-2.08,3.53-2.69,5.66c-0.62,2.13-0.92,4.3-0.92,6.51c0,2.16,0.29,4.3,0.88,6.43c0.59,2.13,1.46,4.03,2.62,5.7
			c1.16,1.67,2.58,3.02,4.27,4.04C799.76,760.77,801.73,761.29,803.99,761.29z"/>
	</g>
	<g>
		<path class="st3" d="M591.21,564.93c-39.67,2-79.33,4-119,6c-1.67-21.33-3.33-42.67-5-64c20-1,40-2,60-3
			C548.54,524.27,569.88,544.6,591.21,564.93z"/>
		<path class="st4" d="M354.21,621.93c-5.35-12.61-41.96-102.92,6-192c11.09-20.61,41.74-69.06,104-94
			c12.47-5,74.85-28.53,146.5-1.5c81.43,30.72,112.39,103.18,119,120c33.59,85.46-0.98,160.48-7,173c5.73-13.58,35.72-88.41,0-170
			c-9.29-21.21-36.46-73.58-98-103c-9.13-4.36-89.19-40.99-173,0c-96.34,47.12-109.58,153.73-111,167
			C335.98,565.76,346.56,601.82,354.21,621.93z"/>
		<path class="st5" d="M408.21,515.93c-3.67-69-7.33-138-11-207c21.33,19.67,42.67,39.33,64,59c3.67,67.67,7.33,135.33,11,203
			C450.88,552.6,429.54,534.27,408.21,515.93z"/>
		<path class="st3" d="M528.21,484.93c-14.33-15-28.67-30-43-45c7.94-7.16,38.54-33.05,85-34c6.15-0.13,60.47-0.33,99,43
			c36.45,41,43.94,104.29,16,152c-27.87,47.58-78.37,58.11-83,59c-50.59,9.69-88.46-16.34-95-21c11.17-16.83,22.33-33.67,33.5-50.5
			c22.49,14.64,50.87,14.95,72,1c28.3-18.68,28.08-52.68,28-56c-0.7-29.58-21.72-58.09-52-65
			C556.24,461.03,530.95,482.52,528.21,484.93z"/>
	</g>
</g>
</svg>
