<svg width="20" height="90" viewBox="0 0 120 115" fill="none" xmlns="http://www.w3.org/2000/svg">
  <g clip-path="url(#clip0_566_4)">
<path d="M0.426796 95.9443L1.44825 84.9528H4.78197L6.53688 90.9676L7.23926 93.8227H7.33457L8.03695 90.951L9.50387 84.9528H13.109L14.1139 95.9443H11.4349L11.1469 89.7223L11.0992 87.1055H11.0039L10.3824 89.7389L8.69168 95.9443H5.89873L4.19147 89.7389L3.53674 87.1387H3.47252L3.39378 89.7223L3.10786 95.9443H0.426796Z" fill="#32012F"/>
<path d="M24.5957 84.9507L20.5762 91.7943V95.9422H18.2308V91.7943L14.1781 84.9507H17.0332L18.3883 87.7582L19.3621 89.9917H19.4263L20.4312 87.7582L21.7862 84.9507H24.5957Z" fill="#32012F"/>
<path d="M32.9725 96.1349C32.324 96.1349 31.7418 96.0438 31.2259 95.8635C30.7099 95.6832 30.2666 95.4864 29.8936 95.273C29.4689 95.0182 29.0793 94.726 28.7292 94.3966L29.6388 92.8178C29.9268 93.0623 30.2458 93.2798 30.596 93.4725C30.8943 93.6424 31.2362 93.7937 31.6257 93.9263C32.0132 94.0589 32.4317 94.1252 32.8772 94.1252C33.4304 94.1252 33.8758 94.0319 34.2177 93.8455C34.5575 93.659 34.7274 93.3648 34.7274 92.9607C34.7274 92.737 34.6238 92.5401 34.4166 92.3702C34.2094 92.2003 33.9442 92.0387 33.6189 91.8833C33.2936 91.73 32.9373 91.585 32.5498 91.4524C32.1624 91.3198 31.7873 91.183 31.4248 91.0463C31.0415 90.8868 30.6934 90.721 30.3805 90.5511C30.0677 90.3812 29.8024 90.1782 29.5911 89.944C29.3777 89.7099 29.214 89.4385 29.0959 89.1298C28.9778 88.821 28.9198 88.4543 28.9198 88.0296C28.9198 87.6256 28.9965 87.2298 29.1519 86.8403C29.3052 86.4528 29.5455 86.1048 29.8708 85.7961C30.194 85.4873 30.6064 85.2408 31.1078 85.0543C31.6071 84.8678 32.2079 84.7746 32.9103 84.7746C33.4739 84.7746 33.9877 84.8368 34.4498 84.959C34.9118 85.0812 35.3137 85.218 35.6535 85.3651C36.0472 85.5454 36.4077 85.7422 36.7392 85.9556L35.9415 87.582C35.6971 87.4432 35.436 87.3168 35.1604 87.1987C34.9159 87.1034 34.6321 87.0164 34.3068 86.9356C33.9815 86.8569 33.6334 86.8154 33.2625 86.8154C32.7529 86.8154 32.3302 86.9273 31.9945 87.1511C31.6589 87.3749 31.4911 87.6566 31.4911 87.9964C31.4911 88.1767 31.5449 88.3321 31.6506 88.4585C31.7563 88.5869 31.9117 88.705 32.1126 88.8169C32.3136 88.9288 32.554 89.0345 32.8295 89.136C33.1051 89.2375 33.42 89.3515 33.7702 89.4799C34.1203 89.598 34.5016 89.7327 34.9118 89.886C35.322 90.0414 35.7012 90.2403 36.0534 90.4848C36.4036 90.7293 36.6978 91.0359 36.9298 91.4027C37.164 91.7694 37.28 92.2294 37.28 92.7826C37.28 93.3461 37.1681 93.8392 36.9443 94.2578C36.7206 94.6784 36.416 95.0264 36.0265 95.302C35.639 95.5796 35.1832 95.7868 34.6632 95.9236C34.141 96.0665 33.5775 96.1349 32.9725 96.1349Z" fill="#32012F"/>
<path d="M42.7188 94.1252C43.388 94.1252 43.9039 93.8227 44.2665 93.2156C44.627 92.6085 44.8094 91.786 44.8094 90.7438V84.9528H47.3785V90.7272C47.3785 91.6948 47.2687 92.5215 47.0512 93.2073C46.8336 93.8931 46.5228 94.4546 46.1188 94.8897C45.7148 95.3269 45.2258 95.6459 44.6519 95.8469C44.078 96.0479 43.4398 96.1494 42.7374 96.1494C42.0351 96.1494 41.399 96.0479 40.8313 95.8469C40.2615 95.6459 39.7725 95.3269 39.3644 94.8897C38.9541 94.4546 38.6413 93.8931 38.4237 93.2073C38.2061 92.5215 38.0963 91.6948 38.0963 90.7272V84.9528H40.6655V90.7438C40.6655 91.786 40.8458 92.6106 41.2084 93.2156C41.5647 93.8206 42.0703 94.1252 42.7188 94.1252Z" fill="#32012F"/>
<path d="M51.1743 92.2252V95.9422H48.6217V84.9507C48.9615 84.9072 49.3448 84.8761 49.7695 84.8554C50.1943 84.8347 50.6957 84.8119 51.2696 84.7912C52.088 84.7601 52.8546 84.7974 53.5673 84.903C54.2801 85.0087 54.8996 85.2056 55.4259 85.4935C55.9521 85.7815 56.3665 86.1711 56.6711 86.6663C56.9756 87.1614 57.1248 87.7809 57.1248 88.5248C57.1248 89.0137 57.0668 89.4447 56.9487 89.8176C56.8306 90.1906 56.6711 90.5138 56.4701 90.7914C56.267 91.0691 56.0288 91.297 55.7511 91.4772C55.4735 91.6575 55.1772 91.8025 54.8581 91.9082V91.9724C55.028 92.0367 55.1897 92.1382 55.345 92.2749C55.4984 92.4137 55.6351 92.6147 55.7511 92.882L57.1393 95.9443H54.5556L53.2959 93.025C53.1675 92.7163 53.0141 92.507 52.8339 92.3951C52.6536 92.2832 52.3926 92.2273 52.0528 92.2273H51.1743V92.2252ZM52.0693 90.7749C52.4195 90.7749 52.7469 90.7396 53.0514 90.6713C53.356 90.6029 53.6171 90.4869 53.8408 90.3273C54.0646 90.1678 54.2386 89.9585 54.3671 89.6975C54.4956 89.4364 54.5577 89.1153 54.5577 88.732C54.5577 88.2741 54.4458 87.9156 54.2221 87.6546C53.9983 87.3935 53.7186 87.2029 53.385 87.0806C53.0494 86.9584 52.6847 86.89 52.2931 86.8734C51.8994 86.8569 51.5327 86.8652 51.1929 86.8983V90.7438C51.2468 90.7541 51.3773 90.7624 51.5845 90.7686C51.7896 90.7728 51.9512 90.7749 52.0693 90.7749Z" fill="#32012F"/>
<path d="M67.8636 84.9507L63.7156 95.9422H61.0988L56.9508 84.9507H59.8867L61.451 90.0725L62.3771 93.9014H62.4559L63.382 90.0725L64.9297 84.9507H67.8636Z" fill="#32012F"/>
<path d="M68.4375 84.9507H76.2238V86.977H71.0067V89.5939H75.2665V91.0463H71.0067V93.9014H76.1906V95.9443H68.4375V84.9507Z" fill="#32012F"/>
<path d="M86.9107 84.9507L82.8912 91.7943V95.9422H80.5458V91.7943L76.4931 84.9507H79.3482L80.7033 87.7582L81.6771 89.9917H81.7413L82.7462 87.7582L84.1033 84.9507H86.9107Z" fill="#32012F"/>
<path d="M91.4731 84.9507C91.9082 84.9072 92.4158 84.8678 92.9959 84.8305C93.5761 84.7932 94.3012 84.7808 95.1735 84.7912C95.8655 84.7912 96.5037 84.8637 97.088 85.0066C97.6723 85.1496 98.1799 85.3754 98.6108 85.6842C99.0418 85.9929 99.3774 86.3803 99.6157 86.8486C99.854 87.3168 99.9742 87.8742 99.9742 88.5227C99.9742 89.2562 99.8498 89.8777 99.5991 90.3895C99.3484 90.8992 99.019 91.3156 98.6108 91.6347C98.2006 91.9538 97.7303 92.1858 97.1999 92.3288C96.6674 92.4718 96.1204 92.5443 95.5568 92.5443H94.0257V95.9422H91.4731V84.9507ZM95.1279 90.5345C95.3828 90.5345 95.6459 90.5159 95.9173 90.4786C96.1888 90.4413 96.4353 90.3584 96.6591 90.232C96.8829 90.1036 97.0652 89.9192 97.2102 89.6747C97.3532 89.4302 97.4257 89.1008 97.4257 88.6864C97.4257 88.3362 97.3594 88.0379 97.2268 87.7934C97.0942 87.5489 96.9139 87.3521 96.684 87.2029C96.456 87.0537 96.1867 86.9501 95.878 86.8921C95.5693 86.8341 95.2336 86.8196 94.8731 86.8527C94.7239 86.8631 94.5706 86.8714 94.4111 86.8776C94.2515 86.8838 94.1293 86.89 94.0443 86.9025V90.5242C94.065 90.5242 94.1231 90.5262 94.2204 90.5325C94.3157 90.5387 94.4214 90.5407 94.5395 90.5407C94.6555 90.5407 94.7716 90.5407 94.8835 90.5407C94.9953 90.5407 95.0741 90.5345 95.1279 90.5345Z" fill="#F97300"/>
<path d="M103.486 92.2252V95.9422H100.933V84.9507C101.273 84.9072 101.657 84.8761 102.081 84.8554C102.506 84.8347 103.007 84.8119 103.581 84.7912C104.4 84.7601 105.166 84.7974 105.879 84.903C106.592 85.0087 107.211 85.2056 107.738 85.4935C108.264 85.7815 108.678 86.1711 108.983 86.6663C109.285 87.1614 109.439 87.7809 109.439 88.5248C109.439 89.0137 109.381 89.4447 109.263 89.8176C109.144 90.1906 108.987 90.5138 108.784 90.7914C108.581 91.0691 108.343 91.297 108.067 91.4772C107.789 91.6575 107.493 91.8025 107.174 91.9082V91.9724C107.344 92.0367 107.506 92.1382 107.661 92.2749C107.814 92.4137 107.951 92.6147 108.067 92.882L109.455 95.9443H106.87L105.61 93.025C105.481 92.7163 105.328 92.507 105.148 92.3951C104.967 92.2832 104.706 92.2273 104.367 92.2273H103.486V92.2252ZM104.381 90.7749C104.731 90.7749 105.059 90.7396 105.363 90.6713C105.668 90.6029 105.929 90.4869 106.153 90.3273C106.376 90.1678 106.55 89.9585 106.679 89.6975C106.807 89.4364 106.87 89.1153 106.87 88.732C106.87 88.2741 106.758 87.9156 106.534 87.6546C106.31 87.3935 106.032 87.2029 105.697 87.0806C105.361 86.9584 104.996 86.89 104.605 86.8734C104.211 86.8569 103.845 86.8652 103.505 86.8983V90.7438C103.559 90.7541 103.689 90.7624 103.896 90.7686C104.101 90.7728 104.263 90.7749 104.381 90.7749Z" fill="#F97300"/>
<path d="M115.197 84.7767C116.079 84.7767 116.856 84.9424 117.525 85.2719C118.195 85.6013 118.756 86.0343 119.208 86.573C119.659 87.1096 119.999 87.7167 120.229 88.3922C120.457 89.0676 120.573 89.7513 120.573 90.4413C120.573 91.1333 120.459 91.8191 120.229 92.4987C120.001 93.1804 119.664 93.7874 119.216 94.3261C118.769 94.8628 118.211 95.2999 117.542 95.6335C116.873 95.9692 116.09 96.137 115.197 96.137C114.314 96.137 113.537 95.9692 112.868 95.6335C112.198 95.2979 111.639 94.8628 111.194 94.3261C110.746 93.7895 110.408 93.1804 110.18 92.4987C109.953 91.817 109.836 91.1312 109.836 90.4413C109.836 89.7493 109.95 89.0676 110.18 88.3922C110.408 87.7167 110.746 87.1117 111.194 86.573C111.641 86.0364 112.198 85.6034 112.868 85.2719C113.537 84.9403 114.314 84.7767 115.197 84.7767ZM115.197 94.1252C115.665 94.1252 116.077 94.0195 116.433 93.8061C116.79 93.5927 117.088 93.315 117.326 92.969C117.565 92.623 117.747 92.2294 117.869 91.788C117.992 91.3467 118.052 90.9033 118.052 90.4558C118.052 89.9979 117.987 89.5524 117.861 89.1153C117.733 88.6802 117.548 88.2886 117.302 87.9426C117.057 87.5965 116.757 87.321 116.4 87.1138C116.044 86.9066 115.642 86.803 115.197 86.803C114.749 86.803 114.351 86.9066 113.999 87.1138C113.647 87.321 113.35 87.5945 113.106 87.9343C112.861 88.2741 112.675 88.6657 112.549 89.107C112.42 89.5483 112.358 89.9979 112.358 90.4558C112.358 90.9033 112.418 91.3467 112.54 91.788C112.663 92.2294 112.843 92.623 113.083 92.969C113.324 93.315 113.618 93.5947 113.968 93.8061C114.32 94.0174 114.728 94.1252 115.197 94.1252Z" fill="#F97300"/>
<path d="M71.1103 53.441C62.891 53.8554 54.6738 54.2697 46.4545 54.6841C46.1084 50.2647 45.7645 45.8433 45.4185 41.4239C49.5623 41.2167 53.7062 41.0095 57.85 40.8023C62.2694 45.0166 66.6909 49.2288 71.1103 53.441Z" fill="#004AAC"/>
<path d="M22.0058 65.2509C20.8973 62.6382 13.3121 43.9267 23.249 25.4701C25.5467 21.1999 31.8972 11.1614 44.7969 5.99406C47.3806 4.95811 60.3031 0.0828831 75.1505 5.68328C92.0221 12.0482 98.4368 27.0613 99.8063 30.5463C106.766 48.2529 99.6033 63.7964 98.356 66.3905C99.5432 63.5768 105.757 48.0726 98.356 31.1679C96.4312 26.7733 90.8018 15.9227 78.0512 9.82711C76.1595 8.92376 59.5718 1.33432 42.207 9.82711C22.2462 19.59 19.5029 41.6787 19.2087 44.4281C18.2287 53.6129 20.4208 61.0843 22.0058 65.2509Z" fill="#2074B3"/>
<path d="M33.1942 43.2886C32.4338 28.9924 31.6755 14.6961 30.9151 0.399887C35.3345 4.47535 39.7559 8.54874 44.1753 12.6242C44.9357 26.6449 45.6941 40.6635 46.4545 54.6841C42.0351 50.8863 37.6136 47.0885 33.1942 43.2886Z" fill="#266DCC"/>
<path d="M58.0572 36.8656C55.0881 33.7578 52.117 30.6499 49.1479 27.542C50.7931 26.0585 57.1331 20.6943 66.7592 20.4975C68.0335 20.4706 79.2881 20.4291 87.2712 29.4067C94.8234 37.9016 96.3752 51.0148 90.5863 60.8999C84.8119 70.7581 74.3487 72.9398 73.3894 73.1242C62.9076 75.1319 55.0612 69.7387 53.7062 68.7732C56.0205 65.2861 58.3328 61.797 60.6471 58.31C65.3068 61.3433 71.1869 61.4075 75.5649 58.5172C81.4284 54.6468 81.3828 47.6023 81.3663 46.9144C81.2212 40.7857 76.8661 34.8787 70.5923 33.447C63.8648 31.9138 58.6249 36.3663 58.0572 36.8656Z" fill="#004AAC"/>
</g>
<defs>
<clipPath id="clip0_566_4">
<rect width="121" height="96.7586" fill="white"/>
</clipPath>
</defs>
</svg>
