<svg width="60" height="60" viewBox="0 0 60 60" fill="none" xmlns="http://www.w3.org/2000/svg">
<path d="M37.3472 3.81968C36.3902 4.21496 35.9347 5.31128 36.33 6.26843C36.7252 7.22556 37.8215 7.68103 38.7787 7.28576L37.3472 3.81968ZM19.3426 37.903C18.6093 38.634 18.6075 39.8212 19.3386 40.5547C20.0698 41.288 21.2569 41.2897 21.9903 40.5585L19.3426 37.903ZM27.1402 35.424C27.8737 34.6927 27.8755 33.5057 27.1442 32.7722C26.4132 32.039 25.226 32.0372 24.4927 32.7682L27.1402 35.424ZM32.574 12.8912C33.3075 12.16 33.3092 10.9728 32.578 10.2395C31.847 9.50618 30.6597 9.50438 29.9265 10.2355L32.574 12.8912ZM49.41 25.0412L34.7927 39.6145L37.4405 42.2702L52.0577 27.697L49.41 25.0412ZM23.707 39.6145L20.2736 36.1915L17.6259 38.847L21.0593 42.2702L23.707 39.6145ZM43.867 6.87498H45.2892V3.12498H43.867V6.87498ZM53.1252 14.6819V16.0998H56.8752V14.6819H53.1252ZM45.2892 6.87498C47.631 6.87498 49.1992 6.87893 50.368 7.03561C51.4832 7.18511 51.9497 7.44218 52.2542 7.74568L54.902 5.09006C53.7842 3.97568 52.3952 3.52381 50.8662 3.31883C49.3905 3.12103 47.5252 3.12498 45.2892 3.12498V6.87498ZM56.8752 14.6819C56.8752 12.453 56.8792 10.5922 56.6807 9.11948C56.4747 7.59228 56.0205 6.20521 54.902 5.09006L52.2542 7.74568C52.558 8.04841 52.8147 8.51133 52.9642 9.62063C53.1212 10.7845 53.1252 12.3467 53.1252 14.6819H56.8752ZM20.2736 36.1915C18.6175 34.5402 17.5119 33.4325 16.7971 32.4985C16.1153 31.6075 15.9692 31.0992 15.9692 30.673H12.2192C12.2192 32.2522 12.8824 33.5535 13.8191 34.7775C14.7228 35.9582 16.045 37.271 17.6259 38.847L20.2736 36.1915ZM21.0593 42.2702C22.6403 43.8465 23.9568 45.1645 25.141 46.0655C26.3687 46.9992 27.6712 47.6582 29.25 47.6582V43.9082C28.8172 43.9082 28.305 43.7605 27.4115 43.0807C26.4742 42.368 25.363 41.2655 23.707 39.6145L21.0593 42.2702ZM52.0577 27.697C54.054 25.7065 55.4462 24.3653 56.1772 22.6058L52.7142 21.1671C52.3365 22.0765 51.6237 22.8341 49.41 25.0412L52.0577 27.697ZM53.1252 16.0998C53.1252 19.2213 53.092 20.2583 52.7142 21.1671L56.1772 22.6058C56.9085 20.8457 56.8752 18.9146 56.8752 16.0998H53.1252ZM43.867 3.12498C41.0425 3.12498 39.1095 3.09196 37.3472 3.81968L38.7787 7.28576C39.6935 6.90801 40.7372 6.87498 43.867 6.87498V3.12498ZM21.9903 40.5585L27.1402 35.424L24.4927 32.7682L19.3426 37.903L21.9903 40.5585ZM34.7927 39.6145C33.5145 40.889 32.5527 41.8465 31.7262 42.5602C30.8967 43.2765 30.3377 43.626 29.8992 43.7875L31.1952 47.3065C32.265 46.9125 33.2297 46.2167 34.1772 45.3982C35.1282 44.577 36.197 43.51 37.4405 42.2702L34.7927 39.6145ZM29.8992 43.7875C29.6682 43.8727 29.462 43.9082 29.25 43.9082V47.6582C29.9267 47.6582 30.5707 47.5365 31.1952 47.3065L29.8992 43.7875ZM17.6259 22.4991C16.4122 23.7092 15.3644 24.7526 14.5508 25.681C13.7406 26.6057 13.0477 27.5417 12.6345 28.5692L16.1138 29.9682C16.2912 29.527 16.6562 28.9685 17.3712 28.1525C18.0829 27.3402 19.0275 26.397 20.2736 25.1547L17.6259 22.4991ZM12.6345 28.5692C12.3648 29.24 12.2192 29.9357 12.2192 30.673H15.9692C15.9692 30.4477 16.0103 30.2255 16.1138 29.9682L12.6345 28.5692ZM20.2736 25.1547L32.574 12.8912L29.9265 10.2355L17.6259 22.4991L20.2736 25.1547Z" fill="#F97300"/>
<path d="M13.9333 28.8293L15.2591 27.5033L15.2572 27.5013L13.9333 28.8293ZM24.7989 18.5559C25.6698 19.1164 26.83 18.8648 27.3903 17.994C27.9508 17.1233 27.6993 15.9631 26.8285 15.4026L24.7989 18.5559ZM6.75165 25.423C7.70912 25.8175 8.80507 25.361 9.19955 24.4037C9.59402 23.4462 9.13762 22.3502 8.18017 21.9558L6.75165 25.423ZM13.0481 30.5955C13.7803 31.3278 14.9675 31.3278 15.6997 30.5955C16.432 29.8633 16.432 28.6763 15.6997 27.944L13.0481 30.5955ZM14.0562 26.304C13.3229 25.5728 12.1357 25.5748 11.4046 26.308C10.6735 27.0413 10.6752 28.2285 11.4086 28.9598L14.0562 26.304ZM26.8285 15.4026L25.2555 14.3902L23.2259 17.5435L24.7989 18.5559L26.8285 15.4026ZM25.2555 14.3902C23.7019 13.3903 22.448 12.5817 21.3688 12.0002C20.266 11.406 19.233 10.9845 18.0907 10.8157L17.5425 14.5254C18.091 14.6065 18.6922 14.8177 19.5899 15.3014C20.5112 15.7978 21.6239 16.5125 23.2259 17.5435L25.2555 14.3902ZM6.8867 21.387C8.29435 19.9836 9.8042 18.4788 11.161 17.241C11.839 16.6226 12.4563 16.0915 12.9859 15.6833C13.5445 15.2528 13.8988 15.0432 14.0671 14.9734L12.63 11.5097C11.9869 11.7766 11.3124 12.2385 10.6966 12.7132C10.0518 13.2102 9.3493 13.8178 8.63372 14.4706C7.2036 15.7752 5.63202 17.3426 4.23907 18.7313L6.8867 21.387ZM18.0907 10.8157C16.254 10.5443 14.3655 10.7896 12.63 11.5097L14.0671 14.9734C15.1938 14.5059 16.3971 14.3561 17.5425 14.5254L18.0907 10.8157ZM5.52055 24.9342L6.46715 25.3093L7.84857 21.823L6.90197 21.4479L5.52055 24.9342ZM6.46715 25.3093C6.6262 25.3723 6.68992 25.3975 6.75165 25.423L8.18017 21.9558C8.0896 21.9184 7.9987 21.8825 7.84857 21.823L6.46715 25.3093ZM4.23907 18.7313C2.30459 20.6599 2.98667 23.9301 5.52055 24.9342L6.90197 21.4479C6.89085 21.4435 6.88632 21.4402 6.88562 21.4397C6.88467 21.439 6.88595 21.4401 6.88562 21.4397C6.88445 21.4383 6.87865 21.4306 6.8763 21.4192C6.87395 21.4079 6.8755 21.401 6.87572 21.4002C6.87542 21.4007 6.87575 21.4001 6.87572 21.4002C6.87587 21.3999 6.8786 21.395 6.8867 21.387L4.23907 18.7313ZM12.6075 30.155L13.0481 30.5955L15.6997 27.944L15.2591 27.5033L12.6075 30.155ZM11.4086 28.9598L12.6095 30.157L15.2572 27.5013L14.0562 26.304L11.4086 28.9598Z" fill="#F97300"/>
<path d="M31.2486 46.2502L29.9226 47.5762C29.9516 47.6052 29.9816 47.6332 30.0123 47.6602L31.2486 46.2502ZM44.5581 33.08C43.9953 32.2107 42.8343 31.9625 41.9651 32.5252C41.0958 33.088 40.8476 34.249 41.4103 35.1182L44.5581 33.08ZM38.6128 53.2427C38.2293 52.2807 37.1386 51.8117 36.1768 52.1952C35.2148 52.5787 34.7458 53.6695 35.1293 54.6312L38.6128 53.2427ZM31.3196 48.8062C32.0983 49.489 33.2828 49.4112 33.9656 48.6325C34.6483 47.854 34.5703 46.6692 33.7918 45.9867L31.3196 48.8062ZM31.8713 44.2215C31.1391 43.4892 29.9518 43.4892 29.2196 44.2215C28.4873 44.9537 28.4873 46.141 29.2196 46.8732L31.8713 44.2215ZM41.4103 35.1182L42.4258 36.6865L45.5736 34.6482L44.5581 33.08L41.4103 35.1182ZM38.5714 52.9615L38.3611 53.171L41.0089 55.8265L41.2191 55.617L38.5714 52.9615ZM42.4258 36.6865C43.4601 38.2837 44.1766 39.393 44.6744 40.311C45.1593 41.2057 45.3703 41.8035 45.4513 42.348L49.1606 41.7965C48.9909 40.6552 48.5673 39.6237 47.9711 38.524C47.3876 37.4475 46.5763 36.1972 45.5736 34.6482L42.4258 36.6865ZM41.2191 55.617C42.6118 54.2282 44.1838 52.6612 45.4926 51.2355C46.1473 50.522 46.7569 49.8217 47.2554 49.1787C47.7313 48.5647 48.1953 47.8917 48.4636 47.2492L45.0028 45.8047C44.9333 45.971 44.7239 46.3237 44.2919 46.8807C43.8826 47.4085 43.3501 48.024 42.7296 48.7C41.4881 50.0527 39.9788 51.558 38.5714 52.9615L41.2191 55.617ZM45.4513 42.348C45.6206 43.4867 45.4708 44.6835 45.0028 45.8047L48.4636 47.2492C49.1866 45.5167 49.4334 43.631 49.1606 41.7965L45.4513 42.348ZM33.7918 45.9867L32.4846 44.8405L30.0123 47.6602L31.3196 48.8062L33.7918 45.9867ZM38.3611 53.171C38.3771 53.1552 38.4033 53.139 38.4321 53.1307C38.4566 53.1237 38.4751 53.1247 38.4881 53.1272C38.5011 53.1297 38.5226 53.137 38.5481 53.1575C38.5776 53.181 38.6011 53.2132 38.6128 53.2427L35.1293 54.6312C36.0891 57.039 39.2091 57.621 41.0089 55.8265L38.3611 53.171ZM32.5743 44.9245L31.8713 44.2215L29.2196 46.8732L29.9226 47.5762L32.5743 44.9245Z" fill="#F97300"/>
<path d="M34.7926 26.5718C35.5258 27.303 36.7131 27.3013 37.4443 26.5678C38.1753 25.8345 38.1736 24.6474 37.4403 23.9162L34.7926 26.5718ZM41.6593 23.9162C40.9261 24.6474 40.9243 25.8345 41.6553 26.5678C42.3866 27.3013 43.5736 27.303 44.3071 26.5718L41.6593 23.9162ZM44.3071 17.0701C41.6791 14.45 37.4206 14.45 34.7926 17.0701L37.4403 19.7257C38.6048 18.5648 40.4948 18.5648 41.6593 19.7257L44.3071 17.0701ZM34.7926 17.0701C32.1616 19.6933 32.1616 23.9487 34.7926 26.5718L37.4403 23.9162C36.2791 22.7584 36.2791 20.8835 37.4403 19.7257L34.7926 17.0701ZM44.3071 26.5718C46.9381 23.9487 46.9381 19.6933 44.3071 17.0701L41.6593 19.7257C42.8206 20.8835 42.8206 22.7584 41.6593 23.9162L44.3071 26.5718Z" fill="#F97300"/>
</svg>
