<svg width="59" height="60" viewBox="0 0 59 60" fill="none" xmlns="http://www.w3.org/2000/svg">
<path d="M25.6518 1.86562C20.638 0.521249 15.4068 1.21125 10.9143 3.80625C6.42177 6.39937 3.20802 10.5881 1.86552 15.6C0.523023 20.6119 1.21115 25.845 3.80615 30.3375C7.40052 36.5625 13.9405 40.0444 20.6586 40.0444C23.9511 40.0444 27.2868 39.2081 30.3374 37.4456C39.6111 32.0925 42.8005 20.1881 37.4474 10.9144C34.8505 6.42187 30.6636 3.20812 25.6518 1.86562ZM35.3624 31.0837V18.0431H34.0124V32.7675C32.7861 34.125 31.3293 35.3137 29.6605 36.2775C26.2911 38.2219 22.5449 38.9494 18.9449 38.6138L30.2305 32.0962L29.5555 30.9262L16.8168 38.28C12.0018 37.2394 7.6274 34.2525 4.97615 29.6587C4.69302 29.1675 4.4324 28.665 4.19802 28.155L15.493 34.6762L16.168 33.5081L3.41052 26.1431C2.35302 22.8656 2.2574 19.35 3.16865 15.9469C3.7349 13.8356 4.6574 11.88 5.8874 10.1475V23.205H7.2374V8.47312C8.48052 7.10625 9.94302 5.925 11.5893 4.97437C14.9586 3.02812 18.6993 2.29125 22.3049 2.63812L11.0193 9.15187L11.6943 10.3219L24.4311 2.96625C29.2461 4.00875 33.6224 6.99562 36.2737 11.5894C36.5568 12.0825 36.8174 12.5831 37.0499 13.0912L25.7549 6.57L25.0799 7.74L37.8318 15.1012C39.5886 20.565 38.6005 26.5031 35.3624 31.0837ZM35.3624 50.0175V39.375H34.0124V50.0175C31.8936 50.3456 30.2624 52.1662 30.2624 54.375C30.2624 56.8162 32.2461 58.8 34.6874 58.8C37.1286 58.8 39.1124 56.8144 39.1124 54.375C39.1124 52.1662 37.4811 50.3456 35.3624 50.0175ZM34.6874 57.45C32.9924 57.45 31.6124 56.0719 31.6124 54.375C31.6124 52.6781 32.9924 51.3 34.6874 51.3C36.3824 51.3 37.7624 52.6781 37.7624 54.375C37.7624 56.0719 36.3824 57.45 34.6874 57.45ZM54.1124 50.0175V22.4644C54.1124 22.2244 53.983 21.9994 53.773 21.8794L44.0924 16.29L43.4193 17.46L52.7605 22.8544V50.0175C50.6418 50.3456 49.0105 52.1662 49.0105 54.375C49.0105 56.8162 50.9962 58.8 53.4355 58.8C55.8749 58.8 57.8605 56.8144 57.8605 54.375C57.8624 52.1662 56.2311 50.3456 54.1124 50.0175ZM53.4374 57.45C51.7424 57.45 50.3624 56.0719 50.3624 54.375C50.3624 52.6781 51.7405 51.3 53.4374 51.3C55.1343 51.3 56.5124 52.6781 56.5124 54.375C56.5124 56.0719 55.1324 57.45 53.4374 57.45ZM16.6124 50.0175V43.125H15.2624V50.0175C13.1436 50.3456 11.5124 52.1662 11.5124 54.375C11.5124 56.8162 13.498 58.8 15.9374 58.8C18.3768 58.8 20.3624 56.8144 20.3624 54.375C20.3624 52.1662 18.7311 50.3456 16.6124 50.0175ZM15.9374 57.45C14.2424 57.45 12.8624 56.0719 12.8624 54.375C12.8624 52.6781 14.2424 51.3 15.9374 51.3C17.6324 51.3 19.0124 52.6781 19.0124 54.375C19.0124 56.0719 17.6324 57.45 15.9374 57.45Z" fill="#F97300" stroke="#F97300" stroke-width="2"/>
</svg>
