<?xml version="1.0" encoding="utf-8"?>
<!-- Generator: Adobe Illustrator 24.3.0, SVG Export Plug-In . SVG Version: 6.00 Build 0)  -->
<svg version="1.1" id="icon" xmlns="http://www.w3.org/2000/svg" xmlns:xlink="http://www.w3.org/1999/xlink" x="0px" y="0px"
	 viewBox="0 0 800 800" style="enable-background:new 0 0 800 800;" xml:space="preserve">
<style type="text/css">
	.st0{fill:#6FCFFD;}
	.st1{fill:#F97300;}
</style>
<path class="st0" d="M298.7,475C230.4,475,175,419.6,175,351.3c0-32.8,13-64.3,36.2-87.5l127.6-127.6c48.3-48.3,126.6-48.3,174.9,0
	s48.3,126.6,0,174.9L500,325l-35.4-35.3l13.9-13.9c28.7-28.8,28.6-75.4-0.1-104.1c-29.2-27.8-75.1-27.8-104.2,0L246.6,299.2
	c-28.8,28.8-28.8,75.4,0,104.2c0,0,0,0,0,0c29.2,27.8,75.1,27.8,104.3,0l35.4,35.4C363,462,331.5,475.1,298.7,475z"/>
<path class="st0" d="M498.7,425C430.4,425,375,369.6,375,301.3c0-32.8,13-64.3,36.2-87.5L425,200l35.4,35.4l-13.8,13.8
	c-28.8,28.8-28.8,75.4,0,104.2c0,0,0,0,0,0c29.2,27.8,75.1,27.8,104.2,0c6.5-6.5,118.2-118.2,127.6-127.6
	c28.7-28.8,28.7-75.4,0-104.2c-29.2-27.8-75.1-27.8-104.2,0l-35.4-35.4C587.2,38,665.5,38,713.8,86.4c48.2,48.3,48.2,126.5,0,174.8
	c-9.4,9.4-121.1,121.1-127.6,127.6C563,412,531.5,425.1,498.7,425z"/>
<path class="st1" d="M600,750H100c-27.6,0-50-22.4-50-50V200c0-27.6,22.4-50,50-50h100v50H100v500h500V450h50v250
	C650,727.6,627.6,750,600,750z"/>
</svg>
