<?xml version="1.0" encoding="utf-8"?>
<!-- Generator: Adobe Illustrator 24.3.0, SVG Export Plug-In . SVG Version: 6.00 Build 0)  -->
<svg version="1.1" id="Layer_1" xmlns="http://www.w3.org/2000/svg" xmlns:xlink="http://www.w3.org/1999/xlink" x="0px" y="0px"
	 viewBox="0 0 1024 1024" style="enable-background:new 0 0 1024 1024;" xml:space="preserve">
<style type="text/css">
	.st0{fill:#F97300;}
	.st1{fill:#FFFFFF;}
	.st2{fill:#6FCFFD;}
</style>
<g>
	<path class="st0" d="M758,201.2H166c-35.3,0-64,28.7-64,64v592c0,35.3,28.7,64,64,64h592c35.3,0,64-28.7,64-64v-592
		C822,229.8,793.3,201.2,758,201.2L758,201.2z"/>
	<path class="st1" d="M504.8,664.5L411.3,758c-21.5,21.5-50.1,33.4-80.6,33.4s-59-11.8-80.6-33.4c-21.5-21.5-33.4-50.1-33.4-80.6
		c0-30.4,11.8-59,33.4-80.6l76.8-76.8c12.5-12.5,32.8-12.5,45.3,0s12.5,32.8,0,45.3l-76.8,76.8c-9.4,9.4-14.6,22-14.6,35.3
		s5.2,25.9,14.6,35.3c9.4,9.4,22,14.6,35.3,14.6s25.9-5.2,35.3-14.6l93.5-93.5c17-17,19.5-43.7,6-63.4c-10-14.6-6.3-34.5,8.3-44.5
		c14.6-10,34.5-6.3,44.5,8.3C549.2,564.8,543.5,625.8,504.8,664.5L504.8,664.5z"/>
	<path class="st1" d="M673.8,525.5L597,602.3c-12.5,12.5-32.8,12.5-45.3,0s-12.5-32.8,0-45.3l76.8-76.8c9.4-9.4,14.6-22,14.6-35.3
		s-5.2-25.9-14.6-35.3c-19.5-19.5-51.1-19.5-70.6,0l-93.5,93.5c-17,17-19.5,43.7-6,63.4c10,14.6,6.3,34.5-8.3,44.5
		c-5.5,3.8-11.8,5.6-18,5.6c-10.2,0-20.2-4.9-26.4-13.9c-30.9-45.2-25.2-106.1,13.5-144.8l93.5-93.5c44.4-44.4,116.7-44.4,161.1,0
		c21.5,21.5,33.4,50.1,33.4,80.6C707.2,475.4,695.3,504,673.8,525.5L673.8,525.5z"/>
	<path class="st2" d="M858,101.2H266c-35.3,0-64,28.7-64,64v16h576c35.3,0,64,28.7,64,64v576h16c35.3,0,64-28.7,64-64v-592
		C922,129.8,893.3,101.2,858,101.2L858,101.2z"/>
</g>
</svg>
