<svg width="101" height="92" viewBox="0 0 101 92" fill="none" xmlns="http://www.w3.org/2000/svg">
<g clip-path="url(#clip0_354_1189)">
<path d="M41.9023 57.5001H91.9023V61.3334H41.9023V57.5001ZM25.2357 46.0001H33.569V38.3334H25.2357V46.0001ZM41.9023 42.1667H91.9023V38.3334H41.9023V42.1667ZM25.2357 65.1667H33.569V57.5001H25.2357V65.1667ZM41.9023 80.5001H91.9023V76.6667H41.9023V80.5001ZM25.2357 84.3334H33.569V76.6667H25.2357V84.3334ZM96.069 11.5001V23.0001C96.0679 24.0164 95.6286 24.9909 94.8474 25.7095C94.0662 26.4282 93.0071 26.8324 91.9023 26.8334H8.56901C7.46428 26.8324 6.40511 26.4282 5.62395 25.7095C4.84279 24.9909 4.40345 24.0164 4.40234 23.0001V11.5001C4.40345 10.4837 4.84279 9.5093 5.62395 8.79063C6.40511 8.07196 7.46428 7.66776 8.56901 7.66675H91.9023C93.0071 7.66776 94.0662 8.07196 94.8474 8.79063C95.6286 9.5093 96.0679 10.4837 96.069 11.5001ZM91.9065 23.0001L91.9023 11.5001H8.56901V23.0001H91.9065Z" fill="#F97300"/>
</g>
<defs>
<clipPath id="clip0_354_1189">
<rect width="100" height="92" fill="white" transform="translate(0.235352)"/>
</clipPath>
</defs>
</svg>
