<svg width="100" height="100" viewBox="0 0 100 100" fill="none" xmlns="http://www.w3.org/2000/svg">
<path fill-rule="evenodd" clip-rule="evenodd" d="M83.3333 17.1667V83.8333H16.6667V17.1667H83.3333ZM44.7264 33.8333H38.2338L25.9073 67.1667H31.7647L34.0919 60.6503H48.8477L51.1249 67.1667H57.3352L44.7264 33.8333ZM67.7327 33.8333H61.8988V67.1667H67.7327V33.8333ZM41.4309 39.4258L47.2419 56.0555H35.7122L41.4309 39.4258ZM88.8889 67.1667H100V78.2778H88.8889V67.1667ZM22.2222 89.3889H33.3333V100.5H22.2222V89.3889ZM44.4444 89.3889H55.5556V100.5H44.4444V89.3889ZM22.2222 0.5H33.3333V11.6111H22.2222V0.5ZM66.6667 89.3889H77.7778V100.5H66.6667V89.3889ZM44.4444 0.5H55.5556V11.6111H44.4444V0.5ZM66.6667 0.5H77.7778V11.6111H66.6667V0.5ZM88.8889 44.9444H100V56.0556H88.8889V44.9444ZM0 67.1667H11.1111V78.2778H0V67.1667ZM88.8889 22.7222H100V33.8333H88.8889V22.7222ZM0 44.9444H11.1111V56.0556H0V44.9444ZM0 22.7222H11.1111V33.8333H0V22.7222Z" fill="#F97300"/>
</svg>
