<svg width="101" height="100" viewBox="0 0 101 100" fill="none" xmlns="http://www.w3.org/2000/svg">
<path d="M70.209 63.6523C70.209 63.9113 70.3119 64.1597 70.495 64.3429C70.6782 64.526 70.9265 64.6289 71.1855 64.6289C71.4445 64.6289 71.6929 64.526 71.8761 64.3429C72.0592 64.1597 72.1621 63.9113 72.1621 63.6523C72.1621 63.3933 72.0592 63.145 71.8761 62.9618C71.6929 62.7787 71.4445 62.6758 71.1855 62.6758C70.9265 62.6758 70.6782 62.7787 70.495 62.9618C70.3119 63.145 70.209 63.3933 70.209 63.6523Z" fill="#E73B37"/>
<path d="M50.9023 6.25H17.6895V93.75H84.0957V37.6562L50.9023 6.25ZM78.1289 37.9199H50.7852V12.041L78.1289 37.9199ZM79.7988 89.4531H21.9863V10.5469H49.1934L49.2129 10.5664V39.4922H79.7695L79.7891 39.5117V89.4531H79.7988Z" fill="#F97300"/>
<path d="M28.2852 51.7578H60.1113V53.3203H28.2852V51.7578Z" fill="#F97300"/>
<path d="M63.3438 51.7578H72.1523V53.3203H63.3438V51.7578Z" fill="#E73B37"/>
<path d="M40.2969 62.6758H67.3477V64.2383H40.2969V62.6758Z" fill="#F97300"/>
<path d="M28.2949 62.6758H37.2012V64.2383H28.2949V62.6758Z" fill="#E73B37"/>
<path d="M28.2266 73.6035H60.1113V75.166H28.2266V73.6035Z" fill="#F97300"/>
<path d="M64.9355 73.6035H72.1523V75.166H64.9355V73.6035Z" fill="#E73B37"/>
</svg>
