<svg width="66" height="66" viewBox="0 0 66 66" fill="none" xmlns="http://www.w3.org/2000/svg">
<circle cx="33" cy="33" r="33" fill="white" fill-opacity="0.5"/>
<path d="M45.1777 23.2297L29.489 38.9322L23.659 33.1022L25.5977 31.1634L29.489 35.0547L43.239 21.3047L45.1777 23.2297ZM31.4277 43.6072C25.364 43.6072 20.4277 38.6709 20.4277 32.6072C20.4277 26.5434 25.364 21.6072 31.4277 21.6072C33.5865 21.6072 35.6077 22.2397 37.3127 23.3259L39.3065 21.3322C37.0652 19.7784 34.3565 18.8572 31.4277 18.8572C23.8377 18.8572 17.6777 25.0172 17.6777 32.6072C17.6777 40.1972 23.8377 46.3572 31.4277 46.3572C33.8065 46.3572 36.0477 45.7522 38.0002 44.6797L35.9377 42.6172C34.5627 43.2497 33.0365 43.6072 31.4277 43.6072ZM41.0527 36.7322H36.9277V39.4822H41.0527V43.6072H43.8027V39.4822H47.9277V36.7322H43.8027V32.6072H41.0527V36.7322Z" fill="#FD947B"/>
</svg>
