<svg width="44" height="55" viewBox="0 0 44 55" fill="none" xmlns="http://www.w3.org/2000/svg">
<g clip-path="url(#clip0_575_919)">
<path d="M38.4697 49.4606V12.8752H34.8731V7.31279C36.4914 7.37702 38.128 7.27953 39.7049 7.54217C42.1925 7.95848 43.9816 10.344 43.9908 12.9807C44.0069 17.6553 43.9908 22.33 43.9908 27.0047C43.9908 34.4655 43.9908 41.926 43.9908 49.386C43.9908 52.673 41.6661 54.9977 38.3642 54.9977C27.4857 54.9977 16.6076 54.9977 5.7298 54.9977C2.31669 54.9977 0.0171988 52.6971 0.0171988 49.2931C0.0171988 37.2911 0.0493122 25.289 -0.00344418 13.288C-0.0183536 10.0183 2.51969 7.1981 5.94083 7.36325C6.98678 7.41372 8.03732 7.37128 9.13374 7.37128V12.8545H5.5486V49.4606H38.4697Z" fill="#6FCFFD"/>
<path d="M11.0169 7.37356C12.2968 6.91481 13.5722 6.46868 14.8303 5.98011C15.1164 5.85627 15.3642 5.65831 15.5482 5.40667C15.9003 4.93415 16.1859 4.41232 16.5024 3.91573C19.0829 -0.144225 24.8747 -0.169457 27.3611 3.95013C28.1719 5.29427 29.1192 6.20604 30.6446 6.55584C31.3086 6.70837 31.9348 7.01459 32.5874 7.22447C32.8845 7.31852 33.0106 7.44467 33.0083 7.77956C32.9946 10.1628 33.0083 12.546 32.9991 14.9292C32.9991 15.896 32.3431 16.5348 31.3717 16.5348C25.1358 16.5348 18.8998 16.5348 12.6638 16.5348C11.7027 16.5348 11.0353 15.9729 11.0261 15.0749C11.0009 12.5162 11.0169 9.96207 11.0169 7.37356ZM25.0249 7.34604C25.0155 6.53697 24.6888 5.76393 24.1152 5.19326C23.5416 4.62259 22.7669 4.29991 21.9578 4.29465C21.1487 4.28939 20.3698 4.60197 19.7888 5.16513C19.2079 5.72829 18.8712 6.49702 18.8512 7.3059C18.8411 7.71593 18.9128 8.12387 19.0621 8.50588C19.2114 8.8879 19.4354 9.23633 19.7208 9.53084C20.0063 9.82535 20.3476 10.06 20.7248 10.2212C21.102 10.3823 21.5075 10.4666 21.9176 10.4693C22.3278 10.472 22.7343 10.3929 23.1136 10.2367C23.4928 10.0805 23.8371 9.85025 24.1264 9.55948C24.4157 9.26871 24.6441 8.92322 24.7984 8.54318C24.9527 8.16314 25.0297 7.75617 25.0249 7.34604Z" fill="#6FCFFD"/>
<path d="M11.0387 31.1426V20.2243H21.9627V31.1426H11.0387ZM12.8737 29.3202H20.1415V22.0674H12.8714L12.8737 29.3202Z" fill="#6FCFFD"/>
<path d="M21.9788 40.8395V45.7986H11.049V34.8769H19.8926C19.2492 35.5088 18.6976 36.0708 18.1172 36.5972C18.0152 36.6912 17.795 36.674 17.6298 36.6752C16.0655 36.6752 14.5011 36.6752 12.8921 36.6752V43.9636H20.208C19.7584 42.3683 21.1461 41.8533 21.9788 40.8395Z" fill="#6FCFFD"/>
<path d="M25.0444 35.5639L17.3786 43.2262L13.571 39.4002L15.4622 37.4769L17.3064 39.4128L23.0798 33.6291L25.0444 35.5639Z" fill="#6FCFFD"/>
<path d="M25.713 25.7133H32.9693V27.4784H25.713V25.7133Z" fill="#6FCFFD"/>
<path d="M32.9739 40.3842V42.1527H25.7165V40.3842H32.9739Z" fill="#6FCFFD"/>
</g>
<defs>
<clipPath id="clip0_575_919">
<rect width="44" height="54.1384" fill="white" transform="translate(0 0.861603)"/>
</clipPath>
</defs>
</svg>
