
<svg width="20" height="28" viewBox="0 0 30 30" fill="none" xmlns="http://www.w3.org/2000/svg">
<path d="M1.66699 3.33329C1.66699 2.89127 1.84259 2.46734 2.15515 2.15478C2.46771 1.84222 2.89163 1.66663 3.33366 1.66663H10.0003C10.4424 1.66663 10.8663 1.84222 11.1788 2.15478C11.4914 2.46734 11.667 2.89127 11.667 3.33329V11.6666C11.667 12.1087 11.4914 12.5326 11.1788 12.8451C10.8663 13.1577 10.4424 13.3333 10.0003 13.3333H3.33366C2.89163 13.3333 2.46771 13.1577 2.15515 12.8451C1.84259 12.5326 1.66699 12.1087 1.66699 11.6666V3.33329ZM18.3337 3.33329C18.3337 2.89127 18.5093 2.46734 18.8218 2.15478C19.1344 1.84222 19.5583 1.66663 20.0003 1.66663H26.667C27.109 1.66663 27.5329 1.84222 27.8455 2.15478C28.1581 2.46734 28.3337 2.89127 28.3337 3.33329V6.66663C28.3337 7.10865 28.1581 7.53258 27.8455 7.84514C27.5329 8.1577 27.109 8.33329 26.667 8.33329H20.0003C19.5583 8.33329 19.1344 8.1577 18.8218 7.84514C18.5093 7.53258 18.3337 7.10865 18.3337 6.66663V3.33329ZM1.66699 21.6666C1.66699 21.2246 1.84259 20.8007 2.15515 20.4881C2.46771 20.1756 2.89163 20 3.33366 20H10.0003C10.4424 20 10.8663 20.1756 11.1788 20.4881C11.4914 20.8007 11.667 21.2246 11.667 21.6666V26.6666C11.667 27.1087 11.4914 27.5326 11.1788 27.8451C10.8663 28.1577 10.4424 28.3333 10.0003 28.3333H3.33366C2.89163 28.3333 2.46771 28.1577 2.15515 27.8451C1.84259 27.5326 1.66699 27.1087 1.66699 26.6666V21.6666ZM18.3337 16.6666C18.3337 16.2246 18.5093 15.8007 18.8218 15.4881C19.1344 15.1756 19.5583 15 20.0003 15H26.667C27.109 15 27.5329 15.1756 27.8455 15.4881C28.1581 15.8007 28.3337 16.2246 28.3337 16.6666V26.6666C28.3337 27.1087 28.1581 27.5326 27.8455 27.8451C27.5329 28.1577 27.109 28.3333 26.667 28.3333H20.0003C19.5583 28.3333 19.1344 28.1577 18.8218 27.8451C18.5093 27.5326 18.3337 27.1087 18.3337 26.6666V16.6666Z" stroke="" stroke-width="2"/>
</svg>
