<svg width="22" height="23" viewBox="0 0 22 23" fill="none" xmlns="http://www.w3.org/2000/svg">
<path fill-rule="evenodd" clip-rule="evenodd" d="M3.23828 4.53526C3.23828 4.06908 3.58449 3.69116 4.01155 3.69116H17.9304C18.3575 3.69116 18.7037 4.06908 18.7037 4.53526V19.729C18.7037 21.1276 17.6651 22.2613 16.3839 22.2613H5.55809C4.2769 22.2613 3.23828 21.1276 3.23828 19.729V4.53526ZM4.78482 5.37936V19.729C4.78482 20.1952 5.13102 20.5731 5.55809 20.5731H16.3839C16.8109 20.5731 17.1571 20.1952 17.1571 19.729V5.37936H4.78482Z" fill="#EF3826"/>
<path fill-rule="evenodd" clip-rule="evenodd" d="M8.65144 8.75537C9.07851 8.75537 9.42471 9.13329 9.42471 9.59947V16.3523C9.42471 16.8184 9.07851 17.1964 8.65144 17.1964C8.22438 17.1964 7.87817 16.8184 7.87817 16.3523V9.59947C7.87817 9.13329 8.22438 8.75537 8.65144 8.75537Z" fill="#EF3826"/>
<path fill-rule="evenodd" clip-rule="evenodd" d="M13.2891 8.75537C13.7162 8.75537 14.0624 9.13329 14.0624 9.59947V16.3523C14.0624 16.8184 13.7162 17.1964 13.2891 17.1964C12.8621 17.1964 12.5159 16.8184 12.5159 16.3523V9.59947C12.5159 9.13329 12.8621 8.75537 13.2891 8.75537Z" fill="#EF3826"/>
<path fill-rule="evenodd" clip-rule="evenodd" d="M0.145264 4.53648C0.145264 4.0703 0.491468 3.69238 0.918533 3.69238H21.0235C21.4506 3.69238 21.7968 4.0703 21.7968 4.53648C21.7968 5.00266 21.4506 5.38058 21.0235 5.38058H0.918533C0.491468 5.38058 0.145264 5.00266 0.145264 4.53648Z" fill="#EF3826"/>
<path fill-rule="evenodd" clip-rule="evenodd" d="M6.3313 2.84699C6.3313 1.44845 7.36991 0.314697 8.65111 0.314697H13.2907C14.5719 0.314697 15.6105 1.44845 15.6105 2.84699V4.53519C15.6105 5.00138 15.2643 5.37929 14.8373 5.37929H7.10457C6.6775 5.37929 6.3313 5.00138 6.3313 4.53519V2.84699ZM8.65111 2.0029C8.22404 2.0029 7.87784 2.38081 7.87784 2.84699V3.69109H14.064V2.84699C14.064 2.38081 13.7178 2.0029 13.2907 2.0029H8.65111Z" fill="#EF3826"/>
</svg>
