<svg width="21" height="21" viewBox="0 0 21 21" fill="none" xmlns="http://www.w3.org/2000/svg">
<path d="M17.7476 10.4189H14.0716C13.8531 10.4187 13.6403 10.4879 13.4637 10.6164C13.2871 10.745 13.1559 10.9263 13.089 11.1342C12.9135 11.6827 12.568 12.1612 12.1026 12.5003C11.6371 12.8394 11.0758 13.0217 10.4999 13.0206C9.92398 13.0217 9.36269 12.8394 8.89722 12.5003C8.43176 12.1612 8.08629 11.6827 7.9108 11.1342C7.84359 10.9264 7.71224 10.7452 7.53562 10.6167C7.35901 10.4882 7.14621 10.419 6.92779 10.4189H3.25174C2.97779 10.419 2.71508 10.5279 2.52137 10.7216C2.32766 10.9153 2.21881 11.178 2.21875 11.4519V17.3433C2.21892 17.6172 2.32782 17.8798 2.52152 18.0734C2.71521 18.267 2.97786 18.3758 3.25174 18.3758H17.7476C18.0215 18.3758 18.2841 18.267 18.4778 18.0734C18.6715 17.8798 18.7804 17.6172 18.7806 17.3433V11.4519C18.7806 10.8809 18.3186 10.4189 17.7476 10.4189Z" fill="#5E5E5E"/>
<path d="M10.2825 10.9698C10.3343 11.0425 10.4192 11.086 10.5084 11.086H10.509C10.5989 11.086 10.6825 11.0425 10.735 10.9688L13.5918 6.95086C13.6212 6.90919 13.6386 6.86027 13.6422 6.80941C13.6457 6.75854 13.6353 6.70768 13.612 6.66232C13.5886 6.61693 13.5532 6.57887 13.5096 6.55234C13.466 6.52581 13.4159 6.51184 13.3648 6.51196H12.021V2.90248C12.021 2.74813 11.8965 2.62402 11.7432 2.62402H9.25555C9.10183 2.62402 8.97772 2.74813 8.97772 2.90248V6.51196H7.63288C7.58192 6.51204 7.53195 6.52613 7.48845 6.55271C7.44496 6.57928 7.40961 6.61731 7.38628 6.66262C7.36295 6.70794 7.35254 6.7588 7.35618 6.80964C7.35982 6.86048 7.37737 6.90933 7.40692 6.95086L10.2825 10.9698Z" fill="#5E5E5E"/>
</svg>
