<svg width="25" height="28" viewBox="0 0 567 697" fill="none" xmlns="http://www.w3.org/2000/svg">
<circle cx="423.936" cy="142.896" r="142.896" fill="#F97300"/>
<path d="M476.124 144.085L434.631 185.379V57.436H412.152V185.379L371.452 144.778L355.904 160.325L423.441 228.258L491.968 159.929L476.124 144.085Z" fill="white"/>
<path d="M42.6808 96.6505H250.539L264.205 67.6355H34.6596C16.9337 67.6355 0 83.4802 0 112.495V659.918C0 675.763 16.4385 696.559 36.145 696.559H478.698C495.335 696.559 514.942 680.516 514.942 660.315V318.076L487.017 331.246V654.967C487.017 663.186 479.392 668.534 473.846 668.534H41.7895C32.7781 668.534 28.6189 660.612 28.6189 655.462V115.862C28.6189 105.563 29.7082 96.6505 42.6808 96.6505Z" fill="#74D1FD"/>
<line x1="91.6993" y1="223.604" x2="233.11" y2="223.604" stroke="#F97300" stroke-width="62.5853"/>
<line x1="91.6993" y1="342.04" x2="378.879" y2="342.04" stroke="#F97300" stroke-width="62.5853"/>
<line x1="91.6993" y1="462.26" x2="378.879" y2="462.26" stroke="#F97300" stroke-width="62.5853"/>
<line x1="91.6993" y1="581.29" x2="378.879" y2="581.29" stroke="#F97300" stroke-width="62.5853"/>
</svg>
