<svg width="23" height="24" viewBox="0 0 23 24" fill="none" xmlns="http://www.w3.org/2000/svg">
<g opacity="0.6">
<path fill-rule="evenodd" clip-rule="evenodd" d="M20.4242 2.95138C19.9544 2.45692 19.1927 2.45692 18.7229 2.95138L10.4059 11.7055L10.1225 13.795L12.107 13.4962L20.4242 4.742C20.894 4.24754 20.894 3.44585 20.4242 2.95138ZM17.5888 1.75765C18.6849 0.603897 20.4622 0.603897 21.5583 1.75765C22.6545 2.91139 22.6545 4.78199 21.5583 5.93574L13.0522 14.8888C12.9295 15.0179 12.7704 15.1017 12.5987 15.1275L9.29102 15.6256C9.04113 15.6632 8.789 15.5748 8.61047 15.3869C8.43195 15.1991 8.34787 14.9337 8.38354 14.6707L8.85581 11.1883C8.88033 11.0075 8.95993 10.8399 9.08265 10.7107L17.5888 1.75765Z" fill="black"/>
<path fill-rule="evenodd" clip-rule="evenodd" d="M16.6431 2.75285C16.9563 2.4232 17.4641 2.4232 17.7772 2.75285L20.6126 5.7372C20.9258 6.06685 20.9258 6.6013 20.6126 6.93094C20.2994 7.26058 19.7917 7.26058 19.4785 6.93094L16.6431 3.94658C16.3299 3.61694 16.3299 3.08249 16.6431 2.75285Z" fill="black"/>
<path fill-rule="evenodd" clip-rule="evenodd" d="M2.86684 6.80172C2.57156 6.80172 2.33219 7.05367 2.33219 7.36446V21.4328C2.33219 21.7436 2.57156 21.9955 2.86684 21.9955H16.2329C16.5281 21.9955 16.7675 21.7436 16.7675 21.4328V14.3986C16.7675 13.9324 17.1265 13.5545 17.5695 13.5545C18.0124 13.5545 18.3714 13.9324 18.3714 14.3986V21.4328C18.3714 22.6759 17.414 23.6837 16.2329 23.6837H2.86684C1.68574 23.6837 0.728271 22.6759 0.728271 21.4328V7.36446C0.728271 6.1213 1.68574 5.11353 2.86684 5.11353H9.54985C9.99276 5.11353 10.3518 5.49144 10.3518 5.95762C10.3518 6.42381 9.99276 6.80172 9.54985 6.80172H2.86684Z" fill="black"/>
</g>
</svg>
