<svg width="93" height="93" viewBox="0 0 123 123" fill="none" xmlns="http://www.w3.org/2000/svg">
<g clip-path="url(#clip0_1_402)">
<path d="M91.317 23.6742C90.9104 23.6742 90.5038 23.5725 90.1481 23.3693C80.3906 18.3381 71.9545 16.2036 61.8412 16.2036C51.7788 16.2036 42.2246 18.5922 33.5344 23.3693C32.3147 24.0299 30.7901 23.5725 30.0786 22.3529C29.4179 21.1332 29.8753 19.5577 31.095 18.8971C40.5475 13.7642 50.9149 11.1216 61.8412 11.1216C72.6659 11.1216 82.1185 13.5101 92.4858 18.8463C93.7563 19.5069 94.2137 21.0315 93.5531 22.2512C93.0957 23.166 92.2317 23.6742 91.317 23.6742ZM18.5932 50.3548C18.085 50.3548 17.5768 50.2024 17.1194 49.8974C15.9505 49.0843 15.6964 47.5089 16.5096 46.34C21.5408 39.2252 27.9441 33.635 35.5672 29.7218C51.5247 21.4889 71.9545 21.4381 87.9628 29.671C95.5859 33.5841 101.989 39.1235 107.02 46.1875C107.834 47.3056 107.579 48.9318 106.411 49.745C105.242 50.5581 103.666 50.304 102.853 49.1351C98.2793 42.7318 92.4858 37.7006 85.6251 34.194C71.0397 26.7234 52.3887 26.7234 37.8541 34.2448C30.9425 37.8022 25.149 42.8842 20.5752 49.2876C20.1686 49.9991 19.4063 50.3548 18.5932 50.3548ZM50.3559 111.695C49.6952 111.695 49.0345 111.441 48.5771 110.933C44.1558 106.511 41.7672 103.665 38.3623 97.516C34.8557 91.2651 33.0261 83.6421 33.0261 75.46C33.0261 60.3664 45.9345 48.0679 61.7904 48.0679C77.6463 48.0679 90.5547 60.3664 90.5547 75.46C90.5547 76.883 89.4366 78.001 88.0136 78.001C86.5907 78.001 85.4726 76.883 85.4726 75.46C85.4726 63.1615 74.8512 53.1499 61.7904 53.1499C48.7296 53.1499 38.1082 63.1615 38.1082 75.46C38.1082 82.7781 39.7344 89.5372 42.8345 95.0258C46.087 100.87 48.323 103.36 52.2362 107.324C53.2018 108.341 53.2018 109.916 52.2362 110.933C51.6772 111.441 51.0165 111.695 50.3559 111.695ZM86.794 102.293C80.7464 102.293 75.4102 100.768 71.0397 97.7701C63.4675 92.6373 58.9445 84.3027 58.9445 75.46C58.9445 74.037 60.0625 72.919 61.4855 72.919C62.9085 72.919 64.0265 74.037 64.0265 75.46C64.0265 82.6257 67.6856 89.3848 73.8856 93.552C77.4939 95.9914 81.7119 97.1603 86.794 97.1603C88.0137 97.1603 90.0465 97.0078 92.0793 96.6521C93.4514 96.398 94.7728 97.3127 95.0268 98.7357C95.281 100.108 94.3662 101.429 92.9432 101.683C90.0465 102.242 87.5054 102.293 86.794 102.293ZM76.5791 112.762C76.3758 112.762 76.1217 112.711 75.9184 112.66C67.838 110.424 62.5527 107.426 57.0133 101.988C49.8985 94.9242 45.9853 85.5224 45.9853 75.46C45.9853 67.2271 52.9985 60.5189 61.6379 60.5189C70.2774 60.5189 77.2906 67.2271 77.2906 75.46C77.2906 80.8978 82.0169 85.3191 87.8612 85.3191C93.7055 85.3191 98.4318 80.8978 98.4318 75.46C98.4318 56.3008 81.9152 40.7498 61.5871 40.7498C47.1542 40.7498 33.9409 48.7794 27.9949 61.2303C26.013 65.3468 24.9966 70.1747 24.9966 75.46C24.9966 79.424 25.3523 85.6749 28.4015 93.8061C28.9097 95.1274 28.249 96.6012 26.9277 97.0586C25.6064 97.5668 24.1326 96.8553 23.6752 95.5848C21.185 88.9274 19.9653 82.3207 19.9653 75.46C19.9653 69.3616 21.1342 63.8222 23.4211 58.9943C30.1802 44.8154 45.1722 35.6169 61.5871 35.6169C84.7103 35.6169 103.514 53.4548 103.514 75.4092C103.514 83.6421 96.5006 90.3503 87.8612 90.3503C79.2217 90.3503 72.2086 83.6421 72.2086 75.4092C72.2086 69.9714 67.4823 65.5501 61.6379 65.5501C55.7936 65.5501 51.0673 69.9714 51.0673 75.4092C51.0673 84.0995 54.4215 92.2307 60.5707 98.3291C65.3986 103.106 70.0233 105.749 77.1889 107.731C78.5611 108.087 79.3234 109.51 78.9677 110.831C78.7135 112 77.6463 112.762 76.5791 112.762Z" fill="#1F245E"/>
</g>
<defs>
<clipPath id="clip0_1_402">
<rect width="121.969" height="121.969" fill="white" transform="translate(0.806641 0.95752)"/>
</clipPath>
</defs>
</svg>
