<svg width="66" height="66" viewBox="0 0 66 66" fill="none" xmlns="http://www.w3.org/2000/svg">
<circle cx="33" cy="33" r="33" fill="white" fill-opacity="0.33"/>
<g clip-path="url(#clip0_1_2097)">
<path d="M36.8326 18.9553H22.7879C21.3835 18.9553 20.2344 20.1044 20.2344 21.5089V38.1071C20.2344 38.8093 20.8089 39.3839 21.5112 39.3839C22.2134 39.3839 22.7879 38.8093 22.7879 38.1071V22.7857C22.7879 22.0834 23.3625 21.5089 24.0647 21.5089H36.8326C37.5348 21.5089 38.1094 20.9343 38.1094 20.2321C38.1094 19.5299 37.5348 18.9553 36.8326 18.9553ZM37.5859 24.8158L43.7528 30.9826C44.2252 31.4551 44.4933 32.1062 44.4933 32.7829V44.491C44.4933 45.8955 43.3442 47.0446 41.9397 47.0446H27.8823C26.4779 47.0446 25.3415 45.8955 25.3415 44.491L25.3543 26.616C25.3543 25.2116 26.4906 24.0625 27.8951 24.0625H35.7729C36.4496 24.0625 37.1007 24.3306 37.5859 24.8158ZM36.8326 33H42.5781L35.5558 25.9776V31.7232C35.5558 32.4254 36.1304 33 36.8326 33Z" fill="#BF94F5"/>
</g>
<defs>
<clipPath id="clip0_1_2097">
<rect width="30.6429" height="30.6429" fill="white" transform="translate(17.6797 17.6785)"/>
</clipPath>
</defs>
</svg>
