<svg width="47" height="54" viewBox="0 0 47 54" fill="none" xmlns="http://www.w3.org/2000/svg">
<g clip-path="url(#clip0_575_931)">
<path d="M39.7821 54H7.21786C7.14689 53.98 7.07477 53.9641 7.00188 53.9526C5.43984 53.7897 3.96385 53.1672 2.76623 52.1663C1.56861 51.1653 0.70488 49.8323 0.287595 48.341C0.156107 47.8677 0.094 47.3751 0 46.8918V10.9653C0.0179048 10.8771 0.0425237 10.7895 0.0514761 10.7008C0.435869 6.95388 3.76727 3.92326 7.59162 3.8632C8.75655 3.84447 9.92204 3.85824 11.0875 3.85714C11.3001 3.85714 11.5122 3.85714 11.7321 3.85714C11.741 3.79873 11.7478 3.76457 11.7511 3.72986C11.8793 2.32861 12.5345 1.22657 13.7604 0.510245C14.1957 0.255674 14.73 0.165306 15.219 0H31.781C31.8318 0.020058 31.8842 0.036268 31.9376 0.0484896C32.8614 0.187347 33.6162 0.619898 34.221 1.31584C34.8533 2.04263 35.1957 2.88569 35.2578 3.86155H35.6036C37.0287 3.87478 38.4572 3.81471 39.8767 3.91665C43.0693 4.14422 45.8004 6.38357 46.6704 9.41033C46.8221 9.936 46.8942 10.4843 47.0017 11.0221V46.8384C46.9849 46.9177 46.9636 46.996 46.9524 47.0764C46.5048 50.3275 44.7087 52.5145 41.5765 53.6143C41.003 53.811 40.3808 53.8744 39.7821 54ZM11.7338 7.71429H11.4417C10.2671 7.71429 9.09207 7.71429 7.9167 7.71429C5.62881 7.71814 3.91723 9.3982 3.91667 11.648C3.91667 23.1721 3.91667 34.6961 3.91667 46.2201C3.91667 48.4507 5.63329 50.1412 7.90103 50.1418C18.297 50.144 28.6933 50.144 39.09 50.1418C41.3723 50.1418 43.0811 48.4512 43.0817 46.1987C43.0817 34.6838 43.0817 23.1691 43.0817 11.6546C43.0817 9.40427 41.3695 7.71869 39.0867 7.71429C37.9021 7.71429 36.7182 7.71429 35.5342 7.71429H35.2584C35.2517 7.82008 35.2478 7.89282 35.2427 7.965C35.1096 9.96851 33.4259 11.5626 31.3893 11.5665C26.1298 11.5775 20.8702 11.5784 15.6107 11.5692C15.0489 11.5726 14.4942 11.4457 13.9915 11.1989C12.5552 10.4887 11.8345 9.3172 11.7338 7.71429ZM15.679 7.69445H31.3199V3.87202H15.679V7.69445Z" fill="#FCA275"/>
<path d="M11.7634 30.8384V27.0132H35.2282V30.8384H11.7634Z" fill="#FCA275"/>
<path d="M11.764 38.5532V34.7275H35.2282V38.5532H11.764Z" fill="#FCA275"/>
<path d="M27.4038 19.3044V23.1285H11.7724V19.3044H27.4038Z" fill="#FCA275"/>
<path d="M35.2377 19.305V23.128H31.3557V19.305H35.2377Z" fill="#FCA275"/>
</g>
<defs>
<clipPath id="clip0_575_931">
<rect width="47" height="54" fill="white"/>
</clipPath>
</defs>
</svg>
