<svg width="136" height="136" viewBox="0 0 136 136" fill="none" xmlns="http://www.w3.org/2000/svg">
<path d="M30.9948 71.005C29.3351 69.3453 29.3351 66.6547 30.9948 64.995L42.3281 53.6615C43.9879 52.0018 46.6788 52.0018 48.3385 53.6615C49.9983 55.3212 49.9983 58.0119 48.3385 59.6717L44.2604 63.75H85C87.3471 63.75 89.25 65.6529 89.25 68C89.25 70.3471 87.3471 72.25 85 72.25H44.2604L48.3385 76.3283C49.9983 77.9881 49.9983 80.6786 48.3385 82.3384C46.6788 83.9981 43.9879 83.9981 42.3281 82.3384L30.9948 71.005Z" fill="#F97300"/>
<path fill-rule="evenodd" clip-rule="evenodd" d="M79.0234 7.08333H85.3122C93.062 7.08322 99.3083 7.0831 104.221 7.74361C109.322 8.42939 113.617 9.89643 117.027 13.3073C120.438 16.7182 121.905 21.0128 122.591 26.1134C123.252 31.0262 123.251 37.2727 123.251 45.0224V90.9778C123.251 98.7275 123.252 104.974 122.591 109.887C121.905 114.987 120.438 119.282 117.027 122.693C113.617 126.104 109.322 127.571 104.221 128.256C99.3083 128.917 93.062 128.917 85.3122 128.917H79.0234C71.2742 128.917 65.0273 128.917 60.1148 128.256C55.014 127.571 50.7194 126.104 47.3086 122.693C45.0479 120.432 43.6372 117.778 42.7439 114.749C37.3529 114.742 32.8613 114.683 29.2224 114.194C24.8933 113.612 21.1401 112.352 18.1442 109.356C15.1482 106.36 13.8886 102.607 13.3066 98.2776C12.7498 94.1364 12.7499 88.8902 12.75 82.471V53.5291C12.7499 47.1098 12.7498 41.8639 13.3066 37.7224C13.8886 33.3933 15.1482 29.6401 18.1442 26.6441C21.1401 23.6482 24.8933 22.3886 29.2224 21.8066C32.8613 21.3173 37.3529 21.258 42.7439 21.251C43.6372 18.2218 45.0479 15.568 47.3086 13.3073C50.7194 9.89643 55.014 8.42939 60.1148 7.74361C65.0273 7.0831 71.2742 7.08322 79.0234 7.08333ZM41.0945 96.3571C41.1148 100.009 41.1751 103.299 41.3828 106.245C36.654 106.227 33.1387 106.143 30.355 105.769C26.9685 105.314 25.308 104.499 24.1546 103.345C23.0012 102.192 22.1861 100.532 21.7308 97.1448C21.2591 93.6366 21.25 88.965 21.25 82.1667V53.8333C21.25 47.035 21.2591 42.3637 21.7308 38.855C22.1861 35.4685 23.0012 33.8079 24.1546 32.6545C25.308 31.5011 26.9685 30.6861 30.355 30.2308C33.1387 29.8565 36.654 29.7735 41.3828 29.7552C41.1751 32.7008 41.1148 35.9906 41.0945 39.643C41.0814 41.9902 42.9736 43.9035 45.3208 43.9166C47.6679 43.9297 49.5813 42.0375 49.5943 39.6903C49.6288 33.4939 49.7898 29.1017 50.4021 25.7683C50.9921 22.5564 51.9394 20.6973 53.319 19.3177C54.8873 17.7494 57.0894 16.7269 61.247 16.1678C65.5276 15.5923 71.2005 15.5833 79.3345 15.5833H85.0011C93.1351 15.5833 98.808 15.5923 103.089 16.1678C107.247 16.7269 109.448 17.7494 111.017 19.3177C112.585 20.886 113.608 23.088 114.167 27.246C114.742 31.5263 114.751 37.1993 114.751 45.3333V90.6667C114.751 98.8006 114.742 104.473 114.167 108.754C113.608 112.912 112.585 115.114 111.017 116.682C109.448 118.251 107.247 119.273 103.089 119.832C98.808 120.408 93.1351 120.417 85.0011 120.417H79.3345C71.2005 120.417 65.5276 120.408 61.247 119.832C57.0894 119.273 54.8873 118.251 53.319 116.682C51.9394 115.302 50.9921 113.444 50.4021 110.232C49.7898 106.898 49.6288 102.506 49.5943 96.3095C49.5813 93.9624 47.6679 92.0703 45.3208 92.0833C42.9736 92.0964 41.0814 94.01 41.0945 96.3571Z" fill="#F97300"/>
</svg>
