<svg width="27" height="33" viewBox="0 0 27 33" fill="none" xmlns="http://www.w3.org/2000/svg">
<mask id="path-1-inside-1_195_737" fill="white">
<path fill-rule="evenodd" clip-rule="evenodd" d="M22.1735 8.22564L20.874 29.9C20.8544 30.223 20.7114 30.5265 20.4741 30.7484C20.2368 30.9704 19.9231 31.0941 19.597 31.0943H8.02351C7.69741 31.0941 7.3837 30.9704 7.14638 30.7484C6.90906 30.5265 6.76602 30.223 6.74646 29.9L5.447 8.22564H3.52183L4.82928 30.0128C4.87782 30.8209 5.23547 31.5801 5.82915 32.1353C6.42283 32.6905 7.20774 32.9998 8.02351 33H19.597C20.4127 32.9998 21.1976 32.6905 21.7913 32.1353C22.385 31.5801 22.7426 30.8209 22.7912 30.0128L24.0986 8.22564H22.1735ZM17.811 12.3547H15.8906L15.0905 26.6476H17.0109L17.811 12.3547ZM11.7298 12.3547H9.80945L10.6096 26.6476H12.53L11.7298 12.3547ZM25.8782 1.79859L0.662073 6.21034C0.558407 6.22836 0.459341 6.2665 0.370552 6.32257C0.281763 6.37865 0.204994 6.45155 0.144642 6.53712C0.0842876 6.62268 0.0415344 6.71921 0.0188332 6.8212C-0.0038681 6.92318 -0.00607109 7.0286 0.0123463 7.13143L0.207584 8.22564L27 3.53756L26.8048 2.44177C26.7677 2.23462 26.6493 2.05054 26.4756 1.92995C26.3018 1.80935 26.087 1.76211 25.8782 1.79859ZM15.8122 0.0119816L9.50699 1.11571C9.40333 1.13373 9.30426 1.17188 9.21548 1.22795C9.12668 1.28402 9.04992 1.35693 8.98956 1.44249C8.92921 1.52805 8.88646 1.62459 8.86375 1.72657C8.84105 1.82855 8.83885 1.93398 8.85727 2.03681L9.05251 3.13101L16.9324 1.75095L16.7372 0.65675C16.719 0.554035 16.6806 0.455877 16.6242 0.367883C16.5678 0.279889 16.4945 0.203782 16.4085 0.143908C16.3224 0.0840348 16.2254 0.0415672 16.1228 0.018931C16.0202 -0.00370513 15.9141 -0.00606645 15.8106 0.0119816H15.8122Z"/>
</mask>
<path fill-rule="evenodd" clip-rule="evenodd" d="M22.1735 8.22564L20.874 29.9C20.8544 30.223 20.7114 30.5265 20.4741 30.7484C20.2368 30.9704 19.9231 31.0941 19.597 31.0943H8.02351C7.69741 31.0941 7.3837 30.9704 7.14638 30.7484C6.90906 30.5265 6.76602 30.223 6.74646 29.9L5.447 8.22564H3.52183L4.82928 30.0128C4.87782 30.8209 5.23547 31.5801 5.82915 32.1353C6.42283 32.6905 7.20774 32.9998 8.02351 33H19.597C20.4127 32.9998 21.1976 32.6905 21.7913 32.1353C22.385 31.5801 22.7426 30.8209 22.7912 30.0128L24.0986 8.22564H22.1735ZM17.811 12.3547H15.8906L15.0905 26.6476H17.0109L17.811 12.3547ZM11.7298 12.3547H9.80945L10.6096 26.6476H12.53L11.7298 12.3547ZM25.8782 1.79859L0.662073 6.21034C0.558407 6.22836 0.459341 6.2665 0.370552 6.32257C0.281763 6.37865 0.204994 6.45155 0.144642 6.53712C0.0842876 6.62268 0.0415344 6.71921 0.0188332 6.8212C-0.0038681 6.92318 -0.00607109 7.0286 0.0123463 7.13143L0.207584 8.22564L27 3.53756L26.8048 2.44177C26.7677 2.23462 26.6493 2.05054 26.4756 1.92995C26.3018 1.80935 26.087 1.76211 25.8782 1.79859ZM15.8122 0.0119816L9.50699 1.11571C9.40333 1.13373 9.30426 1.17188 9.21548 1.22795C9.12668 1.28402 9.04992 1.35693 8.98956 1.44249C8.92921 1.52805 8.88646 1.62459 8.86375 1.72657C8.84105 1.82855 8.83885 1.93398 8.85727 2.03681L9.05251 3.13101L16.9324 1.75095L16.7372 0.65675C16.719 0.554035 16.6806 0.455877 16.6242 0.367883C16.5678 0.279889 16.4945 0.203782 16.4085 0.143908C16.3224 0.0840348 16.2254 0.0415672 16.1228 0.018931C16.0202 -0.00370513 15.9141 -0.00606645 15.8106 0.0119816H15.8122Z" fill="white"/>
<path d="M22.1735 8.22564L18.1806 7.98625L18.4061 4.22564H22.1735V8.22564ZM20.874 29.9L24.8668 30.1394L24.8667 30.1419L20.874 29.9ZM19.597 31.0943L19.5997 35.0943H19.597V31.0943ZM8.02351 31.0943V35.0943L8.02073 35.0943L8.02351 31.0943ZM6.74646 29.9L2.75377 30.1419L2.75363 30.1394L6.74646 29.9ZM5.447 8.22564V4.22564H9.21437L9.43983 7.98625L5.447 8.22564ZM3.52183 8.22564L-0.470989 8.46525L-0.72541 4.22564H3.52183V8.22564ZM4.82928 30.0128L0.836479 30.2526L0.836468 30.2524L4.82928 30.0128ZM8.02351 33V37H8.0226L8.02351 33ZM19.597 33L19.5979 37H19.597V33ZM22.7912 30.0128L26.784 30.2524L26.784 30.2526L22.7912 30.0128ZM24.0986 8.22564V4.22564H28.3459L28.0915 8.46525L24.0986 8.22564ZM17.811 12.3547V8.3547H22.0412L21.8048 12.5783L17.811 12.3547ZM15.8906 12.3547L11.8969 12.1311L12.1083 8.3547H15.8906V12.3547ZM15.0905 26.6476V30.6476H10.8603L11.0967 26.424L15.0905 26.6476ZM17.0109 26.6476L21.0046 26.8712L20.7932 30.6476H17.0109V26.6476ZM11.7298 12.3547V8.3547H15.5122L15.7236 12.1311L11.7298 12.3547ZM9.80945 12.3547L5.81571 12.5783L5.57926 8.3547H9.80945V12.3547ZM10.6096 26.6476V30.6476H6.82728L6.61586 26.8712L10.6096 26.6476ZM12.53 26.6476L16.5237 26.424L16.7602 30.6476H12.53V26.6476ZM25.8782 1.79859L25.1888 -2.14156L25.1897 -2.14171L25.8782 1.79859ZM0.662073 6.21034L1.35143 10.1505L1.34723 10.1512L0.662073 6.21034ZM0.0123463 7.13143L3.94969 6.42621L3.95015 6.42881L0.0123463 7.13143ZM0.207584 8.22564L0.897018 12.1658L-3.02995 12.8529L-3.73022 8.92826L0.207584 8.22564ZM27 3.53756L30.938 2.83593L31.6418 6.78613L27.6894 7.4777L27 3.53756ZM26.8048 2.44177L30.7422 1.73716L30.7427 1.74014L26.8048 2.44177ZM15.8122 0.0119816V-3.98802L16.5019 3.95207L15.8122 0.0119816ZM9.50699 1.11571L10.1967 5.0558L10.1922 5.05659L9.50699 1.11571ZM8.85727 2.03681L12.7946 1.33158L12.7951 1.33419L8.85727 2.03681ZM9.05251 3.13101L9.74255 7.07104L5.81508 7.75888L5.1147 3.83363L9.05251 3.13101ZM16.9324 1.75095L20.8702 1.04833L21.5751 4.99873L17.6225 5.69098L16.9324 1.75095ZM16.7372 0.65675L12.7994 1.35937L12.7984 1.35355L16.7372 0.65675ZM15.8106 0.0119816V4.01198L15.1235 -3.92856L15.8106 0.0119816ZM22.1735 8.22564L26.1663 8.46502L24.8668 30.1394L20.874 29.9L16.8812 29.6606L18.1806 7.98625L22.1735 8.22564ZM20.874 29.9L24.8667 30.1419C24.785 31.4911 24.1877 32.7521 23.2062 33.67L20.4741 30.7484L17.742 27.8269C17.2351 28.3008 16.9239 28.955 16.8813 29.6582L20.874 29.9ZM20.4741 30.7484L23.2062 33.67C22.2256 34.587 20.9353 35.0933 19.5997 35.0943L19.597 31.0943L19.5942 27.0943C18.9108 27.0948 18.2479 27.3537 17.742 27.8269L20.4741 30.7484ZM19.597 31.0943V35.0943H8.02351V31.0943V27.0943H19.597V31.0943ZM8.02351 31.0943L8.02073 35.0943C6.68516 35.0933 5.39484 34.587 4.41425 33.67L7.14638 30.7484L9.87851 27.8269C9.37256 27.3537 8.70967 27.0948 8.02628 27.0943L8.02351 31.0943ZM7.14638 30.7484L4.41425 33.67C3.43277 32.7521 2.8355 31.4911 2.75377 30.1419L6.74646 29.9L10.7391 29.6582C10.6965 28.955 10.3854 28.3008 9.87851 27.8269L7.14638 30.7484ZM6.74646 29.9L2.75363 30.1394L1.45417 8.46502L5.447 8.22564L9.43983 7.98625L10.7393 29.6606L6.74646 29.9ZM5.447 8.22564V12.2256H3.52183V8.22564V4.22564H5.447V8.22564ZM3.52183 8.22564L7.51464 7.98602L8.8221 29.7732L4.82928 30.0128L0.836468 30.2524L-0.470989 8.46525L3.52183 8.22564ZM4.82928 30.0128L8.82209 29.773C8.80894 29.5541 8.71229 29.355 8.56133 29.2138L5.82915 32.1353L3.09697 35.0568C1.75865 33.8052 0.946699 32.0876 0.836479 30.2526L4.82928 30.0128ZM5.82915 32.1353L8.56133 29.2138C8.41127 29.0735 8.21881 29 8.02441 29L8.02351 33L8.0226 37C6.19667 36.9996 4.43439 36.3076 3.09697 35.0568L5.82915 32.1353ZM8.02351 33V29H19.597V33V37H8.02351V33ZM19.597 33L19.5961 29C19.4017 29 19.2092 29.0735 19.0591 29.2138L21.7913 32.1353L24.5235 35.0568C23.1861 36.3076 21.4238 36.9996 19.5979 37L19.597 33ZM21.7913 32.1353L19.0591 29.2138C18.9082 29.355 18.8115 29.5541 18.7984 29.773L22.7912 30.0128L26.784 30.2526C26.6738 32.0876 25.8618 33.8052 24.5235 35.0568L21.7913 32.1353ZM22.7912 30.0128L18.7984 29.7732L20.1058 7.98603L24.0986 8.22564L28.0915 8.46525L26.784 30.2524L22.7912 30.0128ZM24.0986 8.22564V12.2256H22.1735V8.22564V4.22564H24.0986V8.22564ZM17.811 12.3547V16.3547H15.8906V12.3547V8.3547H17.811V12.3547ZM15.8906 12.3547L19.8844 12.5783L19.0842 26.8712L15.0905 26.6476L11.0967 26.424L11.8969 12.1311L15.8906 12.3547ZM15.0905 26.6476V22.6476H17.0109V26.6476V30.6476H15.0905V26.6476ZM17.0109 26.6476L13.0171 26.424L13.8173 12.1311L17.811 12.3547L21.8048 12.5783L21.0046 26.8712L17.0109 26.6476ZM11.7298 12.3547V16.3547H9.80945V12.3547V8.3547H11.7298V12.3547ZM9.80945 12.3547L13.8032 12.1311L14.6034 26.424L10.6096 26.6476L6.61586 26.8712L5.81571 12.5783L9.80945 12.3547ZM10.6096 26.6476V22.6476H12.53V26.6476V30.6476H10.6096V26.6476ZM12.53 26.6476L8.53624 26.8712L7.73608 12.5783L11.7298 12.3547L15.7236 12.1311L16.5237 26.424L12.53 26.6476ZM25.8782 1.79859L26.5675 5.73874L1.35143 10.1505L0.662073 6.21034L-0.0272846 2.27019L25.1888 -2.14156L25.8782 1.79859ZM0.662073 6.21034L1.34723 10.1512C1.75797 10.0798 2.15194 9.92847 2.50643 9.70459L0.370552 6.32257L-1.76533 2.94056C-1.23326 2.60453 -0.641155 2.37691 -0.0230865 2.26945L0.662073 6.21034ZM0.370552 6.32257L2.50643 9.70459C2.86101 9.48066 3.16959 9.18823 3.41328 8.84276L0.144642 6.53712L-3.124 4.23147C-2.7596 3.71487 -2.29748 3.27664 -1.76533 2.94056L0.370552 6.32257ZM0.144642 6.53712L3.41328 8.84276C3.65702 8.49722 3.83081 8.1057 3.92327 7.69032L0.0188332 6.8212L-3.8856 5.95207C-3.74774 5.33273 -3.48844 4.74813 -3.124 4.23147L0.144642 6.53712ZM0.0188332 6.8212L3.92327 7.69032C4.01574 7.27491 4.02473 6.84518 3.94969 6.42621L0.0123463 7.13143L-3.925 7.83666C-4.03687 7.21203 -4.02348 6.57145 -3.8856 5.95207L0.0188332 6.8212ZM0.0123463 7.13143L3.95015 6.42881L4.14539 7.52302L0.207584 8.22564L-3.73022 8.92826L-3.92546 7.83405L0.0123463 7.13143ZM0.207584 8.22564L-0.481852 4.2855L26.3106 -0.402573L27 3.53756L27.6894 7.4777L0.897018 12.1658L0.207584 8.22564ZM27 3.53756L23.062 4.2392L22.8668 3.14341L26.8048 2.44177L30.7427 1.74014L30.938 2.83593L27 3.53756ZM26.8048 2.44177L22.8673 3.14639C23.0185 3.9914 23.5 4.73369 24.1946 5.21589L26.4756 1.92995L28.7565 -1.356C29.7986 -0.632618 30.5169 0.477842 30.7422 1.73716L26.8048 2.44177ZM26.4756 1.92995L24.1946 5.21589C24.8882 5.69732 25.7408 5.8832 26.5667 5.7389L25.8782 1.79859L25.1897 -2.14171C26.4332 -2.35898 27.7155 -2.07861 28.7565 -1.356L26.4756 1.92995ZM15.8122 0.0119816L16.5019 3.95207L10.1967 5.0558L9.50699 1.11571L8.81728 -2.82438L15.1225 -3.92811L15.8122 0.0119816ZM9.50699 1.11571L10.1922 5.05659C10.6029 4.98518 10.9969 4.83384 11.3514 4.60996L9.21548 1.22795L7.07959 -2.15406C7.61166 -2.49009 8.20376 -2.71771 8.82183 -2.82517L9.50699 1.11571ZM9.21548 1.22795L11.3514 4.60996C11.7059 4.38603 12.0145 4.0936 12.2582 3.74813L8.98956 1.44249L5.72092 -0.863151C6.08532 -1.37975 6.54743 -1.81798 7.07959 -2.15406L9.21548 1.22795ZM8.98956 1.44249L12.2582 3.74813C12.5019 3.4026 12.6757 3.01108 12.7682 2.5957L8.86375 1.72657L4.95932 0.857449C5.09718 0.238102 5.35648 -0.346494 5.72092 -0.863151L8.98956 1.44249ZM8.86375 1.72657L12.7682 2.5957C12.8607 2.18028 12.8697 1.75056 12.7946 1.33158L8.85727 2.03681L4.91993 2.74203C4.80805 2.1174 4.82145 1.47683 4.95932 0.857449L8.86375 1.72657ZM8.85727 2.03681L12.7951 1.33419L12.9903 2.42839L9.05251 3.13101L5.1147 3.83363L4.91946 2.73943L8.85727 2.03681ZM9.05251 3.13101L8.36246 -0.809021L16.2424 -2.18908L16.9324 1.75095L17.6225 5.69098L9.74255 7.07104L9.05251 3.13101ZM16.9324 1.75095L12.9946 2.45357L12.7994 1.35937L16.7372 0.65675L20.675 -0.0458702L20.8702 1.04833L16.9324 1.75095ZM16.7372 0.65675L12.7984 1.35355C12.8724 1.77208 13.0286 2.17057 13.2566 2.5264L16.6242 0.367883L19.9919 -1.79063C20.3327 -1.25881 20.5657 -0.664011 20.676 -0.0400506L16.7372 0.65675ZM16.6242 0.367883L13.2566 2.5264C13.4847 2.88218 13.7798 3.18785 14.1238 3.42721L16.4085 0.143908L18.6932 -3.1394C19.2093 -2.78028 19.651 -2.3224 19.9919 -1.79063L16.6242 0.367883ZM16.4085 0.143908L14.1238 3.42721C14.4677 3.66654 14.8542 3.83523 15.2609 3.92497L16.1228 0.018931L16.9847 -3.8871C17.5965 -3.75209 18.1772 -3.49847 18.6932 -3.1394L16.4085 0.143908ZM16.1228 0.018931L15.2609 3.92497C15.6675 4.0147 16.0877 4.02403 16.4977 3.95252L15.8106 0.0119816L15.1235 -3.92856C15.7406 -4.03616 16.3729 -4.02211 16.9847 -3.8871L16.1228 0.018931ZM15.8106 0.0119816V-3.98802H15.8122V0.0119816V4.01198H15.8106V0.0119816Z" fill="white" mask="url(#path-1-inside-1_195_737)"/>
</svg>
