<svg width="" height="" viewBox="0 0 91 91" fill="none" xmlns="http://www.w3.org/2000/svg">
<path fill-rule="evenodd" clip-rule="evenodd" d="M43.5117 7.27011C41.2582 5.77193 39.0592 5.33865 36.6372 5.72785C34.5713 6.05986 32.3347 7.00879 29.9347 8.02706L29.6833 8.13368C27.3642 9.11699 25.1318 10.3217 23.0184 11.7378C16.4217 16.1583 11.2801 22.4413 8.24397 29.7922C5.20782 37.1432 4.41341 45.2319 5.96123 53.0356C7.50904 60.8394 11.3296 68.0077 16.9397 73.6338C22.5497 79.2599 29.6974 83.0913 37.4788 84.6436C45.2603 86.1959 53.3257 85.3991 60.6556 82.3544C67.9859 79.3097 74.2508 74.1532 78.6586 67.5377C80.0706 65.418 81.2718 63.1794 82.2524 60.8536L82.3588 60.6017C83.3741 58.1947 84.3201 55.9516 84.6515 53.8799C85.0395 51.4508 84.6074 49.2455 83.1137 46.9855C81.5091 44.5586 79.3258 43.3851 76.6741 42.8537C74.3105 42.3799 71.3559 42.3803 67.9594 42.3806H60.231C56.6338 42.3806 54.2172 42.3746 52.4149 42.1318C50.6927 41.8994 49.9558 41.4982 49.4695 41.0106C48.9833 40.523 48.5833 39.7839 48.3516 38.0568C48.1094 36.2492 48.1034 33.8258 48.1034 30.2183V22.4677C48.1038 19.0614 48.1042 16.0983 47.6317 13.7281C47.1019 11.0689 45.9316 8.87895 43.5117 7.27011ZM31.863 13.304C34.6026 12.1424 36.2083 11.4818 37.5228 11.2706C38.5532 11.105 39.3327 11.2268 40.419 11.9488C41.3385 12.5601 41.8377 13.2976 42.143 14.8281C42.4934 16.5862 42.5061 18.9825 42.5061 22.7337V30.4128C42.5061 33.7751 42.5057 36.579 42.8042 38.8049C43.1192 41.1543 43.8121 43.2754 45.5118 44.9796C47.2112 46.6842 49.3262 47.3792 51.6689 47.695C53.8884 47.9944 56.6841 47.994 60.0369 47.994H67.6941C71.4346 47.994 73.824 48.0068 75.577 48.3582C77.1032 48.6643 77.8387 49.165 78.4481 50.0871C79.1679 51.1765 79.2896 51.9582 79.1246 52.9915C78.9138 54.3099 78.2552 55.9202 77.0969 58.6677C76.2532 60.6687 75.2196 62.5952 74.0046 64.4189C70.2118 70.1116 64.8208 74.5484 58.5137 77.1684C52.2066 79.7883 45.2663 80.4739 38.5708 79.1383C31.8752 77.8023 25.7249 74.5058 20.8976 69.6644C16.0703 64.8234 12.7829 58.6554 11.451 51.9406C10.1192 45.2259 10.8027 38.2656 13.4152 31.9404C16.0278 25.6151 20.4519 20.2089 26.1282 16.4052C27.9467 15.1866 29.8676 14.15 31.863 13.304Z" fill="white"/>
<path d="M55.3317 6.22475C53.835 5.8384 52.3091 6.74212 51.924 8.2433C51.5386 9.74447 52.4398 11.2746 53.9369 11.661C66.0618 14.7908 75.6143 24.3704 78.735 36.5305C79.1204 38.0318 80.6463 38.9356 82.143 38.549C83.6397 38.1628 84.5409 36.6325 84.1558 35.1313C80.5265 20.9906 69.4322 9.86434 55.3317 6.22475Z" fill="white"/>
</svg>
