<svg width="23" height="24" viewBox="0 0 23 24" fill="none" xmlns="http://www.w3.org/2000/svg">
<path d="M20.735 18.5534C20.1483 17.9802 19.6345 17.3232 19.2077 16.6C18.7417 15.6017 18.4624 14.5115 18.3862 13.3934V10.1C18.3903 8.34376 17.8088 6.64633 16.751 5.32666C15.6933 4.007 14.2321 3.15592 12.642 2.93335V2.07335C12.642 1.83731 12.5564 1.61093 12.404 1.44402C12.2517 1.27712 12.0451 1.18335 11.8296 1.18335C11.6142 1.18335 11.4076 1.27712 11.2552 1.44402C11.1029 1.61093 11.0173 1.83731 11.0173 2.07335V2.94668C9.44141 3.1853 7.99787 4.04152 6.95403 5.35675C5.91018 6.67199 5.33675 8.35711 5.33996 10.1V13.3934C5.26375 14.5115 4.98446 15.6017 4.51848 16.6C4.09915 17.3216 3.59368 17.9785 3.01548 18.5534C2.95058 18.6158 2.89856 18.6927 2.86288 18.7789C2.82721 18.8651 2.8087 18.9587 2.80859 19.0534V19.96C2.80859 20.1368 2.8727 20.3064 2.98682 20.4314C3.10094 20.5564 3.25571 20.6267 3.4171 20.6267H20.3334C20.4948 20.6267 20.6496 20.5564 20.7637 20.4314C20.8778 20.3064 20.9419 20.1368 20.9419 19.96V19.0534C20.9418 18.9587 20.9233 18.8651 20.8876 18.7789C20.852 18.6927 20.7999 18.6158 20.735 18.5534ZM4.07428 19.2934C4.64043 18.6942 5.13891 18.0227 5.55902 17.2934C6.14599 16.0877 6.48846 14.7574 6.56305 13.3934V10.1C6.53891 9.31871 6.65853 8.54007 6.91479 7.81046C7.17104 7.08086 7.55868 6.41521 8.05463 5.85315C8.55058 5.2911 9.1447 4.84413 9.8016 4.53887C10.4585 4.2336 11.1648 4.07629 11.8783 4.07629C12.5919 4.07629 13.2981 4.2336 13.955 4.53887C14.6119 4.84413 15.206 5.2911 15.702 5.85315C16.1979 6.41521 16.5856 7.08086 16.8418 7.81046C17.0981 8.54007 17.2177 9.31871 17.1936 10.1V13.3934C17.2681 14.7574 17.6106 16.0877 18.1976 17.2934C18.6177 18.0227 19.1162 18.6942 19.6823 19.2934H4.07428Z" fill="#F97300"/>
<path d="M11.9062 22.8533C12.2895 22.8436 12.6573 22.6857 12.9446 22.4075C13.2319 22.1294 13.4202 21.7488 13.4761 21.3333H10.2754C10.3329 21.7601 10.5299 22.1496 10.8299 22.4292C11.1299 22.7088 11.5124 22.8595 11.9062 22.8533Z" fill="#F97300"/>
</svg>
