<svg width="46" height="57" viewBox="0 0 46 57" fill="none" xmlns="http://www.w3.org/2000/svg">
<g clip-path="url(#clip0_575_938)">
<path d="M13.134 2.40874C13.5432 0.603496 14.3032 0.00135803 16.1037 0.00135803H29.4899C31.2308 0.00135803 32.0107 0.628049 32.4129 2.40874H33.008C35.8531 2.40874 38.6981 2.40874 41.5432 2.40874C44.0838 2.40874 45.5313 3.85621 45.5313 6.3922C45.5313 21.6643 45.5375 36.9364 45.55 52.2085C45.55 54.6848 43.7553 56.2247 41.5443 56.2165C29.0347 56.1674 16.5242 56.1674 4.01302 56.2165C1.77635 56.2247 -0.00317661 54.6626 0.00266939 52.2155C0.0377454 36.9434 0.0439811 21.6713 0.0213766 6.39922C0.0213766 3.85972 1.46534 2.41342 3.99666 2.40874C6.82144 2.40406 9.64662 2.40406 12.4722 2.40874H13.134ZM7.23768 48.9815H38.2975V9.63907C38.2308 9.60984 38.1969 9.58178 38.163 9.58178C36.2151 9.58178 34.2672 9.56541 32.317 9.58178C32.1451 9.58178 31.9347 9.73261 31.8084 9.87291C31.5709 10.1572 31.2726 10.3846 30.9354 10.5382C30.5983 10.6918 30.2309 10.7677 29.8605 10.7603C25.1253 10.751 20.3904 10.751 15.6559 10.7603C14.8807 10.7603 14.2798 10.454 13.7478 9.90799C13.5526 9.7176 13.2961 9.60281 13.024 9.58412C11.7976 9.55138 10.5687 9.56892 9.34224 9.56892H7.23768V48.9815ZM4.84433 51.3865V7.17791H13.1456V4.78222C10.08 4.78222 7.06581 4.78222 4.04342 4.78222C2.82044 4.78222 2.42642 5.1739 2.42642 6.38168V52.2003C2.42642 53.435 2.79589 53.8079 4.02004 53.8079H41.487C42.7603 53.8079 43.1239 53.449 43.1239 52.1839V6.4226C43.1239 5.16805 42.7404 4.78572 41.487 4.78572C38.6623 4.78572 35.8371 4.78572 33.0115 4.78572H32.4035V7.21064H40.7049V51.3865H4.84433ZM15.6314 8.34711H29.912V2.44265H15.6314V8.34711Z" fill="#FF9C62"/>
<path d="M20.3382 17.9858V27.4926H10.8595V17.9858H20.3382ZM13.2061 25.0665H17.946V20.3675H13.2061V25.0665Z" fill="#FF9C62"/>
<path d="M10.8362 43.0371V33.521H20.3394V43.0371H10.8362ZM17.9425 40.6168V35.9143H13.226V40.6168H17.9425Z" fill="#FF9C62"/>
<path d="M23.992 23.8879V21.5729H34.6867V23.8879H23.992Z" fill="#FF9C62"/>
<path d="M34.7054 37.1186V39.4242H23.992V37.1186H34.7054Z" fill="#FF9C62"/>
<path d="M16.7546 39.4336H14.4162V37.1303H16.7546V39.4336Z" fill="#FF9C62"/>
</g>
<defs>
<clipPath id="clip0_575_938">
<rect width="45.5438" height="56.2175" fill="white"/>
</clipPath>
</defs>
</svg>
