<svg width="" height="" viewBox="0 0 91 91" fill="none" xmlns="http://www.w3.org/2000/svg">
<path d="M56.8763 57.3277C52.6454 54.3679 47.5 52.6322 41.95 52.6322C28.5317 52.6322 17.4764 62.779 15.9973 75.8392C15.8926 76.7635 15.8403 77.2257 16.0243 77.6721C16.1749 78.037 16.5008 78.403 16.8456 78.5942C17.2669 78.8281 17.7828 78.8281 18.8144 78.8281H38.0123M53.1447 72.4127L59.8615 78.8281L75.5341 63.859M56.8763 26.4364C56.8763 34.7035 50.1938 41.4054 41.95 41.4054C33.7066 41.4054 27.0239 34.7035 27.0239 26.4364C27.0239 18.1692 33.7066 11.4673 41.95 11.4673C50.1938 11.4673 56.8763 18.1692 56.8763 26.4364Z" stroke="white" stroke-width="5" stroke-linecap="round" stroke-linejoin="round"/>
</svg>
