<svg width="25" height="28" viewBox="0 0 20 33" fill="none" xmlns="http://www.w3.org/2000/svg">
<path d="M12.2564 20.2979C11.9943 20.0576 11.6888 19.8692 11.3564 19.7429C11.0231 19.6149 10.5718 19.4729 10.0024 19.3169V16.4639C10.2693 16.5392 10.511 16.6845 10.7027 16.8848C10.8944 17.0851 11.029 17.333 11.0924 17.6029C11.1236 17.8096 11.2295 17.9977 11.39 18.1317C11.5505 18.2656 11.7545 18.3361 11.9634 18.3299C12.0764 18.3317 12.1885 18.3104 12.2929 18.2672C12.3973 18.224 12.4918 18.1599 12.5704 18.0789C12.6506 18.0024 12.7142 17.9104 12.7574 17.8084C12.8006 17.7064 12.8224 17.5966 12.8214 17.4859C12.8143 17.2502 12.757 17.0187 12.6534 16.8069C12.5313 16.5444 12.3705 16.3017 12.1764 16.0869C11.9287 15.79 11.615 15.5551 11.2604 15.4009C10.8587 15.2377 10.4346 15.1365 10.0024 15.1009V14.3569C10.0024 13.9819 9.85543 13.7949 9.56343 13.7949C9.27143 13.7949 9.13043 13.9869 9.13043 14.3709V15.0979C8.32524 15.121 7.55514 15.4325 6.96043 15.9759C6.54881 16.4349 6.2919 17.0117 6.22604 17.6247C6.16018 18.2377 6.2887 18.8559 6.59343 19.3919C6.84299 19.7706 7.18789 20.0768 7.59343 20.2799C8.08581 20.518 8.60026 20.7076 9.12944 20.8459V24.0349C8.85829 23.9669 8.60622 23.838 8.39244 23.6579C8.21793 23.5068 8.07662 23.3212 7.97743 23.1129C7.85503 22.8317 7.74755 22.5443 7.65544 22.2519C7.60609 22.0885 7.50189 21.9473 7.36044 21.8519C7.20509 21.752 7.02302 21.7018 6.83844 21.7079C6.71912 21.7049 6.60049 21.7269 6.49013 21.7723C6.37976 21.8178 6.28007 21.8857 6.19743 21.9719C6.11709 22.0487 6.05295 22.1408 6.0088 22.2429C5.96466 22.3449 5.94141 22.4547 5.94043 22.5659C5.94367 22.8786 6.00894 23.1875 6.13243 23.4749C6.27509 23.805 6.47596 24.1068 6.72543 24.3659C7.01129 24.665 7.35042 24.9081 7.72543 25.0829C8.16751 25.2865 8.64086 25.414 9.12544 25.4599V27.3119C9.1144 27.4738 9.14904 27.6356 9.22543 27.7789C9.26522 27.8317 9.31798 27.8734 9.3786 27.8998C9.43922 27.9263 9.50565 27.9366 9.57144 27.9299C9.64151 27.9395 9.71281 27.9266 9.77515 27.8932C9.83748 27.8598 9.88764 27.8075 9.91844 27.7439C9.98086 27.5537 10.0076 27.3537 9.99744 27.1539V25.4459C10.5944 25.4088 11.1745 25.2328 11.6914 24.9319C12.1459 24.665 12.5192 24.2796 12.7714 23.8169C13.0149 23.3675 13.1411 22.864 13.1384 22.3529C13.1425 21.958 13.0642 21.5667 12.9084 21.2039C12.7603 20.8576 12.5377 20.5483 12.2564 20.2979ZM9.12843 19.0639C8.79281 18.9554 8.48093 18.784 8.20944 18.5589C8.1041 18.4515 8.02285 18.323 7.97112 18.1817C7.91938 18.0405 7.89836 17.8899 7.90944 17.7399C7.8972 17.5831 7.91971 17.4255 7.97537 17.2784C8.03103 17.1313 8.11846 16.9983 8.23143 16.8889C8.49616 16.6761 8.80287 16.5218 9.13144 16.4359L9.12843 19.0639ZM11.0704 23.5489C10.7843 23.8464 10.4084 24.0418 10.0004 24.1049V21.1049C10.3943 21.2134 10.7618 21.4012 11.0804 21.6569C11.2055 21.7742 11.3033 21.9176 11.3667 22.077C11.4302 22.2363 11.4577 22.4077 11.4474 22.5789C11.4501 22.9384 11.3152 23.2854 11.0704 23.5489Z" fill=""/>
<path d="M18.815 11.2969L14.664 4.10791C14.5762 3.95589 14.45 3.82965 14.298 3.74188C14.146 3.65411 13.9735 3.60791 13.798 3.60791H10.042V0.907898C10.042 0.77529 9.98932 0.64812 9.89555 0.554352C9.80179 0.460584 9.67462 0.407898 9.54201 0.407898C9.4094 0.407898 9.28223 0.460584 9.18846 0.554352C9.09469 0.64812 9.04201 0.77529 9.04201 0.907898V3.60791H5.28601C5.11048 3.60791 4.93804 3.65411 4.78603 3.74188C4.63401 3.82965 4.50778 3.95589 4.42001 4.10791L0.271011 11.2949C0.0970397 11.4802 0.000130593 11.7247 0 11.9789V31.1079C0 31.3731 0.105371 31.6275 0.292908 31.815C0.480444 32.0025 0.734784 32.1079 1 32.1079H18.082C18.3472 32.1079 18.6016 32.0025 18.7891 31.815C18.9766 31.6275 19.082 31.3731 19.082 31.1079V11.9799C19.0827 11.7266 18.9873 11.4825 18.815 11.2969ZM17.084 30.1079H2V12.2999L5.86301 5.60791H9.04201V7.4299C8.57068 7.5516 8.15991 7.84101 7.8867 8.2439C7.6135 8.64679 7.49662 9.1355 7.55795 9.61841C7.61929 10.1013 7.85464 10.5453 8.21989 10.8671C8.58515 11.1889 9.05522 11.3664 9.54201 11.3664C10.0288 11.3664 10.4989 11.1889 10.8641 10.8671C11.2294 10.5453 11.4647 10.1013 11.5261 9.61841C11.5874 9.1355 11.4705 8.64679 11.1973 8.2439C10.9241 7.84101 10.5133 7.5516 10.042 7.4299V5.60889H13.22L17.084 12.2999V30.1079ZM9.54201 9.8569C9.67462 9.8569 9.80179 9.80422 9.89555 9.71045C9.98932 9.61668 10.042 9.48951 10.042 9.3569V8.51089C10.1919 8.59603 10.3169 8.7189 10.4046 8.86731C10.4924 9.01572 10.5397 9.18452 10.542 9.3569C10.5422 9.52141 10.5018 9.68342 10.4244 9.82858C10.347 9.97375 10.235 10.0976 10.0983 10.1891C9.96159 10.2806 9.80442 10.337 9.64072 10.3532C9.47701 10.3694 9.31184 10.3451 9.15982 10.2822C9.0078 10.2193 8.87364 10.1199 8.76923 9.99277C8.66482 9.86564 8.59339 9.71472 8.56126 9.55338C8.52914 9.39203 8.53732 9.22527 8.58507 9.06784C8.63282 8.91041 8.71866 8.76722 8.83501 8.65091C8.89799 8.59592 8.96752 8.54888 9.04201 8.51089V9.3569C9.04201 9.48951 9.09469 9.61668 9.18846 9.71045C9.28223 9.80422 9.4094 9.8569 9.54201 9.8569Z" fill=""/>
</svg>
