<svg width="" height="" viewBox="0 0 90 91" fill="none" xmlns="http://www.w3.org/2000/svg">
<path d="M56.1178 9.68396C47.8524 17.5636 39.588 25.4433 31.3236 33.3241L54.7723 33.2148L67.1959 21.3698C63.5032 17.4745 59.8105 13.5792 56.1178 9.68396ZM74.0407 53.2673V65.8336H84.2155V53.2673H74.0407ZM69.6764 65.8336V53.2673H64.3505V65.8336H69.6764ZM64.1315 48.8893H71.8585H75.6697V37.702C56.488 37.702 37.2683 37.702 18.1268 37.702C15.256 37.702 15.256 33.3241 18.1268 33.3241H25.0034L38.0468 20.8882H12.364C8.67029 20.8882 5.63977 23.9274 5.63977 27.6318V74.9184C5.63977 78.6227 8.67029 81.6609 12.364 81.6609H68.9454C72.6392 81.6609 75.6697 78.6227 75.6697 74.9184V70.2116H64.1315C61.8499 70.2116 59.985 68.3371 59.985 66.0532V53.0477C59.985 50.7606 61.8531 48.8893 64.1315 48.8893ZM80.0341 48.8893H84.4334C86.7192 48.8893 88.5809 50.7563 88.5809 53.0477V66.0532C88.5809 68.3446 86.7192 70.2116 84.4334 70.2116H80.0341V74.9184C80.0341 81.0393 75.0488 86.0388 68.9454 86.0388H12.364C6.26068 86.0388 1.27539 81.0393 1.27539 74.9184V27.6318C1.27539 21.5109 6.26068 16.5113 12.364 16.5113H42.6375L54.6951 5.01534C55.5657 4.18366 56.9439 4.21867 57.7732 5.09172L68.5985 16.5113H68.9454C75.0488 16.5113 80.0341 21.5109 80.0341 27.6318V35.5125V48.8893ZM60.9772 33.3241H75.6697V27.6318C75.6697 25.263 74.4173 23.0841 72.4107 21.862C72.3282 22.2938 72.1156 22.7033 71.775 23.0289L60.9772 33.3241Z" fill="white"/>
</svg>
