<svg width="26" height="27" viewBox="0 0 26 27" fill="none" xmlns="http://www.w3.org/2000/svg">
<path d="M12.9995 8.16669C14.414 8.16669 15.7706 8.72859 16.7708 9.72878C17.771 10.729 18.3329 12.0855 18.3329 13.5C18.3329 14.9145 17.771 16.2711 16.7708 17.2713C15.7706 18.2715 14.414 18.8334 12.9995 18.8334C11.585 18.8334 10.2285 18.2715 9.22829 17.2713C8.2281 16.2711 7.6662 14.9145 7.6662 13.5C7.6662 12.0855 8.2281 10.729 9.22829 9.72878C10.2285 8.72859 11.585 8.16669 12.9995 8.16669ZM12.9995 10.8334C12.2923 10.8334 11.614 11.1143 11.1139 11.6144C10.6138 12.1145 10.3329 12.7928 10.3329 13.5C10.3329 14.2073 10.6138 14.8855 11.1139 15.3856C11.614 15.8857 12.2923 16.1667 12.9995 16.1667C13.7068 16.1667 14.3851 15.8857 14.8851 15.3856C15.3852 14.8855 15.6662 14.2073 15.6662 13.5C15.6662 12.7928 15.3852 12.1145 14.8851 11.6144C14.3851 11.1143 13.7068 10.8334 12.9995 10.8334ZM10.3329 26.8334C9.99953 26.8334 9.71953 26.5934 9.6662 26.2734L9.17286 22.74C8.33286 22.4067 7.61286 21.9534 6.91953 21.42L3.59953 22.7667C3.3062 22.8734 2.9462 22.7667 2.7862 22.4734L0.119531 17.86C0.0379253 17.7226 0.00915624 17.5602 0.038604 17.4032C0.0680518 17.2461 0.1537 17.1052 0.279531 17.0067L3.09286 14.7934L2.99953 13.5L3.09286 12.1667L0.279531 9.99335C0.1537 9.89487 0.0680518 9.75391 0.038604 9.59686C0.00915624 9.43981 0.0379253 9.2774 0.119531 9.14002L2.7862 4.52669C2.9462 4.23335 3.3062 4.11335 3.59953 4.23335L6.91953 5.56669C7.61286 5.04669 8.33286 4.59335 9.17286 4.26002L9.6662 0.726687C9.71953 0.406687 9.99953 0.166687 10.3329 0.166687H15.6662C15.9995 0.166687 16.2795 0.406687 16.3329 0.726687L16.8262 4.26002C17.6662 4.59335 18.3862 5.04669 19.0795 5.56669L22.3995 4.23335C22.6929 4.11335 23.0529 4.23335 23.2129 4.52669L25.8795 9.14002C26.0529 9.43335 25.9729 9.79335 25.7195 9.99335L22.9062 12.1667L22.9995 13.5L22.9062 14.8334L25.7195 17.0067C25.9729 17.2067 26.0529 17.5667 25.8795 17.86L23.2129 22.4734C23.0529 22.7667 22.6929 22.8867 22.3995 22.7667L19.0795 21.4334C18.3862 21.9534 17.6662 22.4067 16.8262 22.74L16.3329 26.2734C16.2795 26.5934 15.9995 26.8334 15.6662 26.8334H10.3329ZM11.9995 2.83335L11.5062 6.31335C9.9062 6.64669 8.49286 7.50002 7.4662 8.68669L4.25286 7.30002L3.25286 9.03335L6.0662 11.1C5.53286 12.6556 5.53286 14.3445 6.0662 15.9L3.23953 17.98L4.23953 19.7134L7.47953 18.3267C8.5062 19.5 9.9062 20.3534 11.4929 20.6734L11.9862 24.1667H14.0129L14.5062 20.6867C16.0929 20.3534 17.4929 19.5 18.5195 18.3267L21.7595 19.7134L22.7595 17.98L19.9329 15.9134C20.4662 14.3534 20.4662 12.66 19.9329 11.1L22.7462 9.03335L21.7462 7.30002L18.5329 8.68669C17.4852 7.47378 16.064 6.64359 14.4929 6.32669L13.9995 2.83335H11.9995Z" fill=""/>
</svg>
