<svg width="28" height="27" viewBox="0 0 28 27" fill="none" xmlns="http://www.w3.org/2000/svg">
<path fill-rule="evenodd" clip-rule="evenodd" d="M19.7741 19.7011L24.3365 14.3777C24.5544 14.1292 24.6659 13.8154 24.666 13.5C24.6661 13.2842 24.6141 13.0676 24.5085 12.8706C24.4615 12.7828 24.4041 12.6994 24.3365 12.6223L19.7741 7.29894C19.2949 6.73982 18.4532 6.67502 17.8941 7.15422C17.3349 7.63342 17.2702 8.47515 17.7494 9.03427L20.4339 12.1666L10.1077 12.1666C9.37134 12.1666 8.77438 12.7636 8.77438 13.4999C8.77438 14.2363 9.37134 14.8333 10.1077 14.8333L20.4341 14.8333L17.7494 17.9658C17.2702 18.5249 17.3349 19.3666 17.8941 19.8458C18.4532 20.325 19.2949 20.2602 19.7741 19.7011ZM11.3327 5.49992C12.0691 5.49992 12.666 6.09687 12.666 6.83325L12.666 8.83325C12.666 9.56963 13.263 10.1666 13.9993 10.1666C14.7357 10.1666 15.3327 9.56963 15.3327 8.83325L15.3327 6.83325C15.3327 4.62411 13.5418 2.83325 11.3327 2.83325L7.33268 2.83325C5.12354 2.83325 3.33268 4.62411 3.33268 6.83325L3.33268 20.1666C3.33268 22.3757 5.12354 24.1666 7.33268 24.1666L11.3327 24.1666C13.5418 24.1666 15.3327 22.3757 15.3327 20.1666L15.3327 18.1666C15.3327 17.4302 14.7357 16.8333 13.9993 16.8333C13.263 16.8333 12.666 17.4302 12.666 18.1666L12.666 20.1666C12.666 20.903 12.0691 21.4999 11.3327 21.4999L7.33268 21.4999C6.5963 21.4999 5.99935 20.903 5.99935 20.1666L5.99935 6.83325C5.99935 6.09687 6.5963 5.49992 7.33268 5.49992L11.3327 5.49992Z" fill=""/>
</svg>
