<svg width="27" height="24" viewBox="0 0 26 32" fill="none" xmlns="http://www.w3.org/2000/svg">
<path d="M21.0953 12.4754C21.0953 13.5061 19.7875 13.5061 19.7875 12.4754V7.69726L14.1519 1.81665H1.8019V29.9997H19.7875V23.4675C19.7875 22.4368 21.0953 22.4368 21.0953 23.4675V30.7832C21.0953 31.2159 20.8023 31.5667 20.4416 31.5667H1.14786C0.7871 31.5667 0.494141 31.2159 0.494141 30.7832V1.03277C0.494141 0.60001 0.7871 0.249268 1.14786 0.249268H14.396C14.5483 0.249646 14.7013 0.312764 14.8252 0.442025L20.8563 6.73499C21.0023 6.87899 21.0953 7.09669 21.0953 7.34085V12.4754ZM22.3766 20.5137L24.3866 23.5404C24.9199 24.3447 23.8984 25.3183 23.3649 24.514L21.3558 21.4885C20.9055 21.7652 20.3952 21.9212 19.8544 21.9212C18.0342 21.9212 16.5587 20.1528 16.5587 17.9712C16.5587 15.7901 18.0342 14.0216 19.8544 14.0216C21.6746 14.0216 23.1501 15.7901 23.1501 17.9712C23.1501 18.9396 22.859 19.827 22.3766 20.5137ZM19.8544 15.5886C18.7563 15.5886 17.8664 16.6556 17.8664 17.9712C17.8664 19.2873 18.7563 20.3542 19.8544 20.3542C20.9524 20.3542 21.8424 19.2873 21.8424 17.9712C21.8424 16.6556 20.9524 15.5886 19.8544 15.5886ZM4.62743 6.70589C3.76747 6.70589 3.76747 5.13888 4.62743 5.13888H11.3053C12.1652 5.13888 12.1652 6.70589 11.3053 6.70589H4.62743ZM4.62743 19.6346C3.76747 19.6346 3.76747 18.0676 4.62743 18.0676H11.3053C12.1652 18.0676 12.1652 19.6346 11.3053 19.6346H4.62743ZM4.62743 9.93854C3.76747 9.93854 3.76747 8.37116 4.62743 8.37116H11.3053C12.1652 8.37116 12.1652 9.93854 11.3053 9.93854H4.62743ZM4.62743 13.1704C3.76747 13.1704 3.76747 11.6034 4.62743 11.6034H11.3053C12.1652 11.6034 12.1652 13.1704 11.3053 13.1704H4.62743ZM4.62743 16.4027C3.76747 16.4027 3.76747 14.8353 4.62743 14.8353H11.3053C12.1652 14.8353 12.1652 16.4027 11.3053 16.4027H4.62743Z"  stroke=""/>
</svg>
