<svg width="25" height="28" viewBox="0 0 32 32" fill="none" xmlns="http://www.w3.org/2000/svg">
<path d="M28 0C27.2636 0 26.6667 0.596953 26.6667 1.33333V2.66667H25.3333C24.5969 2.66667 24 3.26363 24 4C24 4.73637 24.5969 5.33333 25.3333 5.33333H26.6667V6.66667C26.6667 7.40304 27.2636 8 28 8C28.7364 8 29.3333 7.40304 29.3333 6.66667V5.33333H30.6667C31.4031 5.33333 32 4.73637 32 4C32 3.26363 31.4031 2.66667 30.6667 2.66667H29.3333V1.33333C29.3333 0.596953 28.7364 0 28 0Z" fill=""/>
<path d="M29.9556 11.4892C29.729 10.7886 28.9352 10.4771 28.2578 10.7662C27.5806 11.0554 27.2697 11.8393 27.4818 12.5444C28.1504 14.7654 28.1629 17.143 27.5025 19.3863C26.7161 22.0578 25.0242 24.3723 22.7174 25.9324C20.4106 27.4927 17.6328 28.2012 14.8604 27.9367C12.0881 27.672 9.49439 26.4508 7.52436 24.4824C5.55434 22.514 4.33088 19.9212 4.064 17.1492C3.79711 14.3771 4.50343 11.5986 6.06171 9.2905C7.62 6.98241 9.9331 5.28867 12.604 4.50002C14.8468 3.83778 17.2244 3.84839 19.4458 4.51502C20.1512 4.72666 20.9348 4.41501 21.2234 3.73753C21.512 3.06006 21.1998 2.26643 20.499 2.04053C17.701 1.13866 14.6853 1.09547 11.8462 1.93378C8.57934 2.89843 5.75007 4.97011 3.84406 7.79326C1.93803 10.6164 1.07409 14.015 1.40054 17.4056C1.72699 20.7963 3.22344 23.9676 5.63308 26.3752C8.04272 28.7828 11.2153 30.2767 14.6062 30.6003C17.9972 30.924 21.3949 30.0572 24.2165 28.149C27.0381 26.2406 29.1074 23.4096 30.0694 20.1419C30.9053 17.3022 30.8597 14.2864 29.9556 11.4892Z" fill="" />
<path d="M18.6667 12H14.9333C14.786 12 14.6667 12.1194 14.6667 12.2667V14.4C14.6667 14.5474 14.786 14.6667 14.9333 14.6667H17.3333C18.8061 14.6667 20 15.8606 20 17.3334V20C20 21.4728 18.8061 22.6667 17.3333 22.6667H14.6667C13.1939 22.6667 12 21.4728 12 20C12 19.2636 12.597 18.6667 13.3333 18.6667H14C14.3681 18.6667 14.6667 18.9652 14.6667 19.3334C14.6667 19.7015 14.9652 20 15.3333 20H16C16.7364 20 17.3333 19.4031 17.3333 18.6667C17.3333 17.9303 16.7364 17.3334 16 17.3334H14.6667C13.1939 17.3334 12 16.1395 12 14.6667V12C12 10.5273 13.1939 9.33337 14.6667 9.33337H18.6667C19.4031 9.33337 20 9.93033 20 10.6667C20 11.4031 19.4031 12 18.6667 12Z" fill=""/>
</svg>
