<svg width="19" height="18" viewBox="0 0 19 18" fill="none" xmlns="http://www.w3.org/2000/svg">
<path d="M9.5 0.25C11.8206 0.25 14.0466 1.17156 15.6875 2.8125C17.3284 4.45344 18.25 6.67936 18.25 9C18.25 11.3206 17.3284 13.5466 15.6875 15.1875C14.0466 16.8284 11.8206 17.75 9.5 17.75C7.17936 17.75 4.95344 16.8284 3.3125 15.1875C1.67156 13.5466 0.75 11.3206 0.75 9C0.75 6.67936 1.67156 4.45344 3.3125 2.8125C4.95344 1.17156 7.17936 0.25 9.5 0.25ZM9.5 2C7.64348 2 5.86256 2.73705 4.5498 4.0498C3.23705 5.36256 2.5 7.14348 2.5 9C2.5 10.8565 3.23705 12.6374 4.5498 13.9502C5.86256 15.2629 7.64348 16 9.5 16C11.3565 16 13.1374 15.2629 14.4502 13.9502C15.7629 12.6374 16.5 10.8565 16.5 9C16.5 7.14348 15.7629 5.36256 14.4502 4.0498C13.1374 2.73705 11.3565 2 9.5 2ZM10.375 8.125H13.875V9.875H10.375V13.375H8.625V9.875H5.125V8.125H8.625V4.625H10.375V8.125Z" fill="white"/>
</svg>
