<svg width="" height="" viewBox="0 0 91 90" fill="none" xmlns="http://www.w3.org/2000/svg">
<path d="M8.2334 45.0206C8.2334 27.3793 8.2334 18.5587 13.6982 13.0783C19.1629 7.5979 27.9583 7.5979 45.549 7.5979C63.1396 7.5979 71.9353 7.5979 77.3998 13.0783C82.8647 18.5587 82.8647 27.3793 82.8647 45.0206C82.8647 62.6616 82.8647 71.4825 77.3998 76.9627C71.9353 82.4433 63.1396 82.4433 45.549 82.4433C27.9583 82.4433 19.1629 82.4433 13.6982 76.9627C8.2334 71.4825 8.2334 62.6616 8.2334 45.0206Z" stroke="white" stroke-width="2"/>
<path d="M26.8916 52.505L35.4477 43.9243C36.905 42.463 39.2677 42.463 40.7249 43.9243L46.6424 49.8588C48.0996 51.3202 50.4624 51.3202 51.9196 49.8588L64.2072 37.5359M64.2072 37.5359V46.8916M64.2072 37.5359H54.8783" stroke="white" stroke-width="2" stroke-linecap="round" stroke-linejoin="round"/>
</svg>
