<svg width="66" height="66" viewBox="0 0 66 66" fill="none" xmlns="http://www.w3.org/2000/svg">
<circle cx="33" cy="33" r="33" fill="white" fill-opacity="0.25"/>
<g clip-path="url(#clip0_1_2071)">
<path d="M24.4649 28.6552H24.7874C26.0293 28.6552 27.0453 29.6712 27.0453 30.9131V42.2024C27.0453 43.4442 26.0293 44.4602 24.7874 44.4602H24.4649C23.2231 44.4602 22.207 43.4442 22.207 42.2024V30.9131C22.207 29.6712 23.2231 28.6552 24.4649 28.6552ZM33.4964 21.8816C34.7382 21.8816 35.7542 22.8976 35.7542 24.1395V42.2024C35.7542 43.4442 34.7382 44.4602 33.4964 44.4602C32.2545 44.4602 31.2385 43.4442 31.2385 42.2024V24.1395C31.2385 22.8976 32.2545 21.8816 33.4964 21.8816ZM42.5278 34.7837C43.7696 34.7837 44.7857 35.7997 44.7857 37.0415V42.2024C44.7857 43.4442 43.7696 44.4602 42.5278 44.4602C41.286 44.4602 40.27 43.4442 40.27 42.2024V37.0415C40.27 35.7997 41.286 34.7837 42.5278 34.7837Z" fill="#F0839A"/>
</g>
<defs>
<clipPath id="clip0_1_2071">
<rect width="38.7062" height="38.7062" fill="white" transform="translate(14.1426 13.8176)"/>
</clipPath>
</defs>
</svg>
