<svg width="54" height="54" viewBox="0 0 54 54" fill="none" xmlns="http://www.w3.org/2000/svg">
<g clip-path="url(#clip0_575_906)">
<path d="M53.3668 26.5489C52.5699 27.2172 51.8632 27.9774 51.1272 28.7074C46.3747 33.4266 41.6285 38.151 36.8888 42.8807C33.7975 45.9581 30.7067 49.0347 27.6165 52.1105C27.3659 52.3611 27.2422 52.3427 27.0033 52.1029C24.7473 49.8403 22.4841 47.5848 20.2136 45.3366C17.5405 42.6819 14.8674 40.03 12.1943 37.3808C11.9513 37.1411 11.8953 37.0158 12.1751 36.7401C14.7463 34.2035 17.3055 31.6551 19.8528 29.095C20.0382 28.9096 20.1259 28.9706 20.2746 29.1318C22.5601 31.6128 24.8573 34.082 27.1353 36.5664C27.3984 36.8537 27.5379 36.8721 27.847 36.6156C33.2394 32.1415 38.6388 27.6763 44.0452 23.2201C45.0476 22.3897 46.0642 21.5678 47.0574 20.7241C47.313 20.5069 47.4442 20.4643 47.7132 20.7408C49.5827 22.6621 51.4781 24.5575 53.3643 26.462L53.3668 26.5489Z" fill="#F9B48B"/>
<path d="M30.3506 10.5906C30.6697 10.9916 31.0356 11.35 31.3012 11.7843C31.6634 12.362 31.9017 13.0086 32.0012 13.6831C32.048 14.0172 31.9745 14.1392 31.6019 14.1383C27.558 14.1241 23.5141 14.13 19.4711 14.13C16.4839 14.13 13.4958 14.1233 10.5087 14.1375C10.1419 14.1375 10.0267 14.064 10.0801 13.6764C10.2322 12.5696 10.7626 11.6666 11.5002 10.8604C11.5746 10.7769 11.6464 10.6934 11.7174 10.6098C11.7232 10.604 11.7174 10.5856 11.7007 10.5263C11.4969 10.5263 11.283 10.5263 11.0667 10.5263H5.65865C4.9461 10.5263 4.58607 10.8805 4.58607 11.5972C4.58607 23.8523 4.58607 36.1076 4.58607 48.3632C4.58607 49.1201 4.94693 49.4492 5.78478 49.4492H18.8329C19.461 49.4492 19.461 49.4492 19.461 50.0982C19.461 51.2677 19.4519 52.4322 19.4677 53.5992C19.4719 53.8974 19.4126 54.0035 19.0851 54.0026C14.5133 53.9909 9.94146 54.0026 5.37045 53.9901C2.46596 53.9801 0.00670781 51.5091 0.00503712 48.603C0.000581955 36.1786 0.000859944 23.7571 0.00587201 11.3383C0.00587201 8.35943 2.50522 5.97285 5.60268 5.96283C8.38187 5.95364 11.1611 5.96283 13.9394 5.96283C14.8057 5.96283 14.8057 5.96283 14.9418 5.12748C15.4581 2.03671 18.1495 -0.0967621 21.4082 0.010162C24.347 0.107062 26.8889 2.5329 27.1671 5.54265C27.203 5.93108 27.3475 5.97201 27.6741 5.97034C30.6747 5.96199 33.6769 5.92356 36.6775 5.98204C39.7574 6.04218 42.0746 8.46635 42.083 11.5446C42.093 14.9211 42.083 18.2975 42.093 21.674C42.093 22.0081 41.9986 22.0958 41.6754 22.0917C40.4246 22.0744 39.1741 22.0744 37.9238 22.0917C37.5788 22.0975 37.4819 22.0081 37.4828 21.6556C37.4961 18.3485 37.4911 15.0422 37.4911 11.7351C37.4911 10.8295 37.1987 10.5338 36.3008 10.533C34.4429 10.533 32.5851 10.5347 30.7273 10.538C30.6146 10.5313 30.4884 10.4787 30.3506 10.5906ZM23.5359 6.16331C23.5393 5.83365 23.4776 5.50656 23.3544 5.20077C23.2312 4.89498 23.0489 4.61651 22.8178 4.38131C22.5868 4.1461 22.3117 3.95879 22.0082 3.83011C21.7046 3.70142 21.3787 3.63389 21.049 3.63138C20.3831 3.63585 19.7454 3.90043 19.2718 4.36864C18.7983 4.83685 18.5266 5.47161 18.5146 6.13741C18.4971 7.47897 19.6373 8.62757 20.9989 8.64345C21.3292 8.65147 21.6577 8.59333 21.9652 8.47246C22.2727 8.35158 22.5529 8.17042 22.7893 7.93962C23.0257 7.70882 23.2135 7.43307 23.3417 7.12858C23.4699 6.82409 23.5359 6.49703 23.5359 6.16665V6.16331Z" fill="#F9B48B"/>
</g>
<defs>
<clipPath id="clip0_575_906">
<rect width="53.3668" height="54" fill="white"/>
</clipPath>
</defs>
</svg>
