<svg width="" height="" viewBox="0 0 243 223" fill="none" xmlns="http://www.w3.org/2000/svg">
<path d="M170.643 48.2308V68.1538H202.357V48.2308H170.643ZM169.321 45.3846H203.679C204.029 45.3846 204.365 45.5345 204.613 45.8014C204.861 46.0683 205 46.4303 205 46.8077V69.5769C205 69.9543 204.861 70.3163 204.613 70.5832C204.365 70.8501 204.029 71 203.679 71H169.321C168.971 71 168.635 70.8501 168.387 70.5832C168.139 70.3163 168 69.9543 168 69.5769V46.8077C168 46.4303 168.139 46.0683 168.387 45.8014C168.635 45.5345 168.971 45.3846 169.321 45.3846ZM171.964 39.6923H201.036V42.5385H171.964V39.6923ZM175.929 34H197.071V36.8462H175.929V34Z" fill="#E3E3E3"/>
<path d="M31.845 56.0882H16.845V57.7869H31.845V56.0882ZM31.845 61.7132H16.845V63.53H31.845V61.7132ZM22.53 33.53V39.185H16.845V44.84H11.3081V80.3488H37.5V74.6657H43.0369V69.1569H48.6919V33.5319H22.53V33.53ZM35.6831 78.53H13.125V46.5369H35.6831V78.53ZM41.22 72.9632H37.5V44.8382H18.6619V41H41.22V72.9632ZM46.875 67.3382H43.0369V39.1832H24.345V35.345H46.875V67.3382ZM31.845 72.9332H16.845V74.75H31.845V72.9332ZM31.845 67.28H16.845V69.0969H31.845V67.28ZM31.8731 50.405H16.8731V52.28H31.8731V50.405Z" fill="#E3E3E3"/>
<path d="M202.75 140.475C200.029 138.901 196.87 138 193.5 138C183.283 138 175 146.283 175 156.5C175 159.459 175.695 162.256 176.93 164.737C177.259 165.396 177.368 166.15 177.178 166.861L176.076 170.979C175.597 172.767 177.233 174.402 179.021 173.924L183.139 172.822C183.85 172.632 184.604 172.741 185.263 173.07C187.743 174.305 190.541 175 193.5 175C203.717 175 212 166.717 212 156.5C212 153.13 211.099 149.971 209.525 147.25" stroke="#E3E3E3" stroke-width="4" stroke-linecap="round"/>
<path d="M18.3333 150.875H30.6666" stroke="#E3E3E3" stroke-linecap="round"/>
<path d="M18.3333 156.271H26.8124" stroke="#E3E3E3" stroke-linecap="round"/>
<path d="M7.927 153.187C7.927 153.826 8.44468 154.344 9.08325 154.344C9.72183 154.344 10.2395 153.826 10.2395 153.187H7.927ZM10.7382 161.091C10.4939 160.501 9.8175 160.221 9.22754 160.465C8.63757 160.709 8.3574 161.386 8.60177 161.976L10.7382 161.091ZM27.1702 170.562L28.006 169.15L26.0158 167.972L25.1801 169.384L27.1702 170.562ZM20.9938 169.15L21.8296 170.562L23.8196 169.384L22.9838 167.972L20.9938 169.15ZM25.1801 169.384C24.883 169.886 24.1168 169.886 23.8196 169.384L21.8296 170.562C23.0222 172.577 25.9776 172.577 27.1702 170.562L25.1801 169.384ZM22.1874 141.24H26.8124V138.927H22.1874V141.24ZM38.7603 153.187V154.729H41.0728V153.187H38.7603ZM18.0288 165.122C16.0933 165.089 15.0791 164.966 14.2842 164.637L13.3993 166.773C14.6403 167.287 16.0537 167.401 17.9889 167.434L18.0288 165.122ZM8.60177 161.976C9.50148 164.148 11.2272 165.873 13.3993 166.773L14.2842 164.637C12.6788 163.972 11.4032 162.696 10.7382 161.091L8.60177 161.976ZM38.7603 154.729C38.7603 156.541 38.7597 157.842 38.6897 158.868C38.6204 159.884 38.4868 160.547 38.2616 161.091L40.398 161.976C40.7596 161.103 40.9194 160.159 40.9968 159.025C41.0735 157.902 41.0728 156.509 41.0728 154.729H38.7603ZM31.0108 167.434C32.9461 167.401 34.3596 167.287 35.6005 166.773L34.7156 164.637C33.9207 164.966 32.9065 165.089 30.9711 165.122L31.0108 167.434ZM38.2616 161.091C37.5965 162.696 36.3211 163.972 34.7156 164.637L35.6005 166.773C37.7726 165.873 39.4983 164.148 40.398 161.976L38.2616 161.091ZM26.8124 141.24C29.358 141.24 31.1861 141.241 32.612 141.376C34.0208 141.51 34.9171 141.767 35.6317 142.205L36.84 140.233C35.7009 139.535 34.4088 139.224 32.8309 139.074C31.2701 138.926 29.3133 138.927 26.8124 138.927V141.24ZM41.0728 153.187C41.0728 150.687 41.0741 148.73 40.9256 147.169C40.7756 145.591 40.4645 144.299 39.7666 143.16L37.7948 144.368C38.2328 145.083 38.4896 145.979 38.6236 147.388C38.7591 148.814 38.7603 150.642 38.7603 153.187H41.0728ZM35.6317 142.205C36.5134 142.745 37.2546 143.487 37.7948 144.368L39.7666 143.16C39.0357 141.967 38.0328 140.964 36.84 140.233L35.6317 142.205ZM22.1874 138.927C19.6865 138.927 17.7297 138.926 16.1689 139.074C14.5909 139.224 13.2989 139.535 12.1598 140.233L13.3681 142.205C14.0827 141.767 14.9791 141.51 16.3878 141.376C17.8137 141.241 19.6418 141.24 22.1874 141.24V138.927ZM10.2395 153.187C10.2395 150.642 10.2407 148.814 10.3763 147.388C10.5102 145.979 10.7671 145.083 11.205 144.368L9.23329 143.16C8.5353 144.299 8.22422 145.591 8.07419 147.169C7.92578 148.73 7.927 150.687 7.927 153.187H10.2395ZM12.1598 140.233C10.9671 140.964 9.96422 141.967 9.23329 143.16L11.205 144.368C11.7453 143.487 12.4865 142.745 13.3681 142.205L12.1598 140.233ZM22.9838 167.972C22.6709 167.443 22.3962 166.976 22.129 166.61C21.8475 166.224 21.5248 165.876 21.0772 165.616L19.9146 167.615C19.9877 167.657 20.0872 167.735 20.2601 167.972C20.4472 168.229 20.6586 168.583 20.9938 169.15L22.9838 167.972ZM17.9889 167.434C18.6659 167.446 19.0946 167.455 19.4215 167.491C19.7269 167.525 19.8453 167.574 19.9146 167.615L21.0772 165.616C20.6259 165.353 20.1562 165.246 19.676 165.192C19.2172 165.142 18.6628 165.133 18.0288 165.122L17.9889 167.434ZM28.006 169.15C28.3411 168.583 28.5525 168.229 28.7397 167.972C28.9125 167.735 29.0121 167.657 29.0851 167.615L27.9226 165.616C27.475 165.876 27.1522 166.224 26.8708 166.61C26.6037 166.976 26.329 167.443 26.0158 167.972L28.006 169.15ZM30.9711 165.122C30.337 165.133 29.7826 165.142 29.3238 165.192C28.8436 165.246 28.374 165.353 27.9226 165.616L29.0851 167.615C29.1545 167.574 29.2729 167.525 29.5783 167.491C29.9052 167.455 30.3339 167.446 31.0108 167.434L30.9711 165.122Z" fill="#E3E3E3"/>
<g filter="url(#filter0_d_1065_39)">
<circle cx="111.5" cy="107.5" r="91.5" fill="white"/>
<circle cx="111.5" cy="107.5" r="91" stroke="#D7D7D7"/>
</g>
<g filter="url(#filter1_d_1065_39)">
<circle cx="111.5" cy="107.5" r="77.5" fill="white"/>
<circle cx="111.5" cy="107.5" r="77" stroke="#D7D7D7" stroke-dasharray="10 10"/>
</g>
<path d="M81.875 100.917V127.25C81.875 130.886 84.8225 133.833 88.4583 133.833H111.5M81.875 100.917V87.75C81.875 84.1141 84.8225 81.1667 88.4583 81.1667H134.542C138.178 81.1667 141.125 84.1141 141.125 87.75V100.917M81.875 100.917H141.125M141.125 100.917V110.792" stroke="#F97300" stroke-width="4" stroke-linecap="round" stroke-linejoin="round"/>
<path d="M129.604 117.375V137.125M129.604 137.125L137.833 128.896M129.604 137.125L121.375 128.896" stroke="#F97300" stroke-width="4" stroke-linecap="round" stroke-linejoin="round"/>
<path d="M93.0416 91.0417C93.0416 91.755 92.4633 92.3333 91.7499 92.3333C91.0366 92.3333 90.4583 91.755 90.4583 91.0417C90.4583 90.3283 91.0366 89.75 91.7499 89.75C92.4633 89.75 93.0416 90.3283 93.0416 91.0417Z" fill="white" stroke="#F97300" stroke-width="4"/>
<path d="M102.917 91.0417C102.917 91.755 102.338 92.3333 101.625 92.3333C100.912 92.3333 100.333 91.755 100.333 91.0417C100.333 90.3283 100.912 89.75 101.625 89.75C102.338 89.75 102.917 90.3283 102.917 91.0417Z" fill="white" stroke="#F97300" stroke-width="4"/>
<defs>
<filter id="filter0_d_1065_39" x="0.9" y="0.9" width="221.2" height="221.2" filterUnits="userSpaceOnUse" color-interpolation-filters="sRGB">
<feFlood flood-opacity="0" result="BackgroundImageFix"/>
<feColorMatrix in="SourceAlpha" type="matrix" values="0 0 0 0 0 0 0 0 0 0 0 0 0 0 0 0 0 0 127 0" result="hardAlpha"/>
<feOffset dy="4"/>
<feGaussianBlur stdDeviation="9.55"/>
<feComposite in2="hardAlpha" operator="out"/>
<feColorMatrix type="matrix" values="0 0 0 0 0 0 0 0 0 0 0 0 0 0 0 0 0 0 0.1 0"/>
<feBlend mode="normal" in2="BackgroundImageFix" result="effect1_dropShadow_1065_39"/>
<feBlend mode="normal" in="SourceGraphic" in2="effect1_dropShadow_1065_39" result="shape"/>
</filter>
<filter id="filter1_d_1065_39" x="14.9" y="14.9" width="193.2" height="193.2" filterUnits="userSpaceOnUse" color-interpolation-filters="sRGB">
<feFlood flood-opacity="0" result="BackgroundImageFix"/>
<feColorMatrix in="SourceAlpha" type="matrix" values="0 0 0 0 0 0 0 0 0 0 0 0 0 0 0 0 0 0 127 0" result="hardAlpha"/>
<feOffset dy="4"/>
<feGaussianBlur stdDeviation="9.55"/>
<feComposite in2="hardAlpha" operator="out"/>
<feColorMatrix type="matrix" values="0 0 0 0 0 0 0 0 0 0 0 0 0 0 0 0 0 0 0.1 0"/>
<feBlend mode="normal" in2="BackgroundImageFix" result="effect1_dropShadow_1065_39"/>
<feBlend mode="normal" in="SourceGraphic" in2="effect1_dropShadow_1065_39" result="shape"/>
</filter>
</defs>
</svg>
