<svg width="78" height="78" viewBox="0 0 78 78" fill="none" xmlns="http://www.w3.org/2000/svg">
<g clip-path="url(#clip0_1_593)">
<path d="M22.7226 58.4298C18.6724 58.4298 14.788 56.8908 11.9241 54.1514C9.06013 51.412 7.45117 47.6965 7.45117 43.8223C7.45117 39.9482 9.06013 36.2327 11.9241 33.4933C14.788 30.7539 18.6724 29.2149 22.7226 29.2149C23.6792 24.9533 26.4776 21.2083 30.5022 18.8037C32.495 17.613 34.7288 16.7873 37.0762 16.3736C39.4236 15.9599 41.8385 15.9664 44.183 16.3927C46.5276 16.819 48.7559 17.6567 50.7408 18.8581C52.7256 20.0594 54.4281 21.6008 55.751 23.3943C57.074 25.1879 57.9914 27.1983 58.4511 29.3109C58.9107 31.4236 58.9035 33.597 58.4298 35.7071H61.6759C64.6892 35.7071 67.579 36.9041 69.7097 39.0347C71.8403 41.1654 73.0373 44.0552 73.0373 47.0685C73.0373 50.0817 71.8403 52.9715 69.7097 55.1022C67.579 57.2328 64.6892 58.4298 61.6759 58.4298H58.4298" stroke="#484848" stroke-width="6.49222" stroke-linecap="round" stroke-linejoin="round"/>
<path d="M29.2153 48.6917L38.9537 38.9534L48.692 48.6917" stroke="#484848" stroke-width="6.49222" stroke-linecap="round" stroke-linejoin="round"/>
<path d="M38.9531 38.9534V68.1684" stroke="#484848" stroke-width="6.49222" stroke-linecap="round" stroke-linejoin="round"/>
</g>
<defs>
<clipPath id="clip0_1_593">
<rect width="77.9066" height="77.9066" fill="white"/>
</clipPath>
</defs>
</svg>
