<svg width="24" height="17" viewBox="0 0 24 17" fill="none" xmlns="http://www.w3.org/2000/svg">
<path d="M12.263 0.978027C19.6695 0.978027 23.0888 8.28797 23.0888 8.28797C23.0888 8.28797 19.6695 15.5979 12.263 15.5979C4.85653 15.5979 1.43726 8.28797 1.43726 8.28797C1.43726 8.28797 4.85653 0.978027 12.263 0.978027Z" stroke="#646465" stroke-width="1.4468" stroke-linejoin="round"/>
<path d="M15.493 8.28853C15.5029 8.76282 15.4241 9.23444 15.2612 9.67572C15.0983 10.117 14.8546 10.519 14.5444 10.8582C14.2341 11.1974 13.8637 11.4669 13.4547 11.6509C13.0457 11.8349 12.6065 11.9297 12.1628 11.9297C11.7191 11.9297 11.2799 11.8349 10.8709 11.6509C10.4619 11.4669 10.0914 11.1974 9.78123 10.8582C9.47101 10.519 9.2273 10.117 9.0644 9.67572C8.9015 9.23444 8.8227 8.76282 8.83262 8.28853C8.83262 7.34397 9.18356 6.43809 9.80825 5.77019C10.4329 5.10228 11.2802 4.72705 12.1636 4.72705C13.0471 4.72705 13.8943 5.10228 14.519 5.77019C15.1437 6.43809 15.4946 7.34397 15.4946 8.28853H15.493Z" stroke="#646465" stroke-width="1.4468" stroke-linejoin="round"/>
</svg>
