<svg width="30" height="30" viewBox="0 0 40 40" fill="none" xmlns="http://www.w3.org/2000/svg">
<path d="M32.6561 15.2319H31.4561V26.3444H32.6561C33.6718 26.3432 34.6456 25.9392 35.3639 25.221C36.0821 24.5027 36.4862 23.5289 36.4873 22.5132V19.0694C36.4875 18.0527 36.0841 17.0774 35.3657 16.3579C34.6474 15.6384 33.6728 15.2334 32.6561 15.2319Z" fill=""/>
<path d="M31.4561 25.0944V26.3444H30.2061C29.8746 26.3444 29.5566 26.2127 29.3222 25.9782C29.0877 25.7439 28.9561 25.4259 28.9561 25.0944C28.9555 24.9301 28.9874 24.7672 29.0501 24.6154C29.1126 24.4634 29.2047 24.3254 29.3209 24.2092C29.4371 24.0931 29.5751 24.001 29.727 23.9384C29.8789 23.8757 30.0417 23.8438 30.2061 23.8444C30.5376 23.8444 30.8555 23.9761 31.0899 24.2105C31.3244 24.4449 31.4561 24.7629 31.4561 25.0944Z" fill=""/>
<path d="M28.9561 25.0944V16.4819C28.9561 16.1504 29.0877 15.8324 29.3222 15.5981C29.5566 15.3636 29.8746 15.2319 30.2061 15.2319H31.4561V25.0944C31.4561 24.7629 31.3244 24.4449 31.0899 24.2106C30.8555 23.9761 30.5376 23.8444 30.2061 23.8444C30.0417 23.8438 29.8789 23.8757 29.727 23.9384C29.5751 24.001 29.4371 24.0931 29.3209 24.2092C29.2047 24.3254 29.1126 24.4635 29.0501 24.6154C28.9874 24.7673 28.9555 24.9301 28.9561 25.0944Z" fill=""/>
<path d="M30.2061 26.3444H31.4561V29.3919C31.4581 29.4609 31.4539 29.5299 31.4436 29.5982C31.407 29.9009 31.261 30.1798 31.0331 30.3824C30.8051 30.585 30.511 30.6973 30.2061 30.6982C29.8746 30.6982 29.5566 30.5665 29.3222 30.332C29.0877 30.0976 28.9561 29.7797 28.9561 29.4482V25.0919C28.9557 25.2563 28.9878 25.4191 29.0505 25.571C29.1132 25.723 29.2052 25.861 29.3213 25.9774C29.4374 26.0937 29.5753 26.186 29.7271 26.249C29.8789 26.312 30.0417 26.3444 30.2061 26.3444Z" fill=""/>
<path d="M31.4438 29.6007C31.3928 30.5807 30.9676 31.5039 30.2559 32.1796C29.5441 32.8552 28.6001 33.2319 27.6187 33.2319H26.875C27.0556 32.8399 27.1494 32.4136 27.15 31.9819C27.1494 31.5503 27.0556 31.1239 26.875 30.7319H27.6187C27.9637 30.7314 28.2952 30.5981 28.5443 30.3594C28.7934 30.1207 28.941 29.7953 28.9563 29.4507C28.9563 29.7822 29.0879 30.1001 29.3224 30.3346C29.5567 30.569 29.8748 30.7007 30.2063 30.7007C30.5112 30.6998 30.8053 30.5876 31.0332 30.3849C31.2612 30.1823 31.4071 29.9034 31.4438 29.6007Z" fill=""/>
<path d="M26.8752 30.7318C26.6374 30.216 26.2566 29.7793 25.7781 29.4735C25.2994 29.1678 24.7431 29.0058 24.1752 29.0068H19.0127C18.2246 29.0078 17.4691 29.3218 16.9123 29.8797C16.3556 30.4376 16.0433 31.1937 16.0439 31.9818C16.0446 32.769 16.3576 33.5237 16.9142 34.0803C17.4708 34.637 18.2255 34.95 19.0127 34.9506H24.1752C24.7419 34.9499 25.2968 34.788 25.7749 34.4836C26.2531 34.1792 26.6347 33.7451 26.8752 33.2318C27.0558 32.8398 27.1496 32.4135 27.1502 31.9818C27.1496 31.5502 27.0558 31.1238 26.8752 30.7318Z" fill=""/>
<path d="M28.9562 16.4819V8.65061C28.9552 8.31942 28.8232 8.00205 28.589 7.76786C28.3548 7.53361 28.0374 7.40161 27.7062 7.40061H12.7749C12.4434 7.40061 12.1254 7.53236 11.891 7.76673C11.6566 8.00117 11.5249 8.31911 11.5249 8.65061V16.4819C11.5239 16.1507 11.3919 15.8333 11.1577 15.5991C10.9235 15.3649 10.6061 15.2329 10.2749 15.2319H9.0249V8.65061C9.02671 7.65661 9.4224 6.70386 10.1253 6.001C10.8282 5.29813 11.7809 4.90245 12.7749 4.90063H27.7062C28.6998 4.9036 29.6519 5.29965 30.3545 6.00227C31.0572 6.70486 31.4532 7.65699 31.4562 8.65061V15.2319H30.2062C29.8747 15.2319 29.5567 15.3636 29.3223 15.598C29.0878 15.8324 28.9562 16.1504 28.9562 16.4819Z" fill=""/>
<path d="M11.5249 25.0944C11.5239 25.4256 11.3919 25.743 11.1577 25.9772C10.9235 26.2114 10.6061 26.3434 10.2749 26.3444C9.9434 26.3444 9.6254 26.2127 9.39103 25.9783C9.15659 25.7439 9.0249 25.4259 9.0249 25.0944V15.2319H10.2749C10.6061 15.2329 10.9235 15.3649 11.1577 15.5991C11.3919 15.8334 11.5239 16.1507 11.5249 16.4819V25.0944Z" fill=""/>
<path d="M9.0248 25.0944V15.2319H7.81855C6.8018 15.2334 5.82726 15.6384 5.1089 16.3579C4.39055 17.0774 3.98714 18.0527 3.9873 19.0694V22.5132C3.98847 23.5289 4.39249 24.5027 5.11074 25.221C5.82899 25.9392 6.8028 26.3432 7.81855 26.3444H10.2748C9.94331 26.3444 9.6253 26.2127 9.39093 25.9783C9.15649 25.7439 9.0248 25.4259 9.0248 25.0944Z" fill=""/>
</svg>
