<svg width="30" height="30" viewBox="0 0 40 40" fill="none" xmlns="http://www.w3.org/2000/svg">
<path d="M18.2558 18.5445C16.7175 18.5445 15.2138 18.0883 13.9347 17.2337C12.6557 16.379 11.6588 15.1643 11.0701 13.7431C10.4814 12.3219 10.3274 10.758 10.6275 9.2493C10.9276 7.74056 11.6683 6.3547 12.7561 5.26695C13.8438 4.17921 15.2297 3.43845 16.7384 3.13834C18.2472 2.83824 19.811 2.99226 21.2322 3.58094C22.6534 4.16962 23.8682 5.16652 24.7228 6.44557C25.5774 7.72462 26.0336 9.22837 26.0336 10.7667C26.0336 12.8295 25.2141 14.8078 23.7555 16.2664C22.2969 17.725 20.3186 18.5445 18.2558 18.5445ZM18.2558 5.30001C17.157 5.30001 16.0829 5.62583 15.1693 6.23629C14.2557 6.84674 13.5436 7.7144 13.1231 8.72954C12.7027 9.74469 12.5926 10.8617 12.807 11.9394C13.0214 13.0171 13.5505 14.007 14.3274 14.7839C15.1044 15.5609 16.0943 16.09 17.172 16.3044C18.2496 16.5187 19.3667 16.4087 20.3818 15.9882C21.397 15.5677 22.2646 14.8557 22.8751 13.9421C23.4855 13.0285 23.8114 11.9543 23.8114 10.8556C23.8114 10.126 23.6677 9.40357 23.3885 8.72954C23.1093 8.05551 22.7001 7.44307 22.1842 6.92719C21.6683 6.41131 21.0559 6.00209 20.3818 5.7229C19.7078 5.4437 18.9854 5.30001 18.2558 5.30001Z" fill=""/>
<path d="M24.4446 19.8888C18.4317 18.5358 12.1413 19.1875 6.5335 21.7444C5.76227 22.1128 5.11157 22.6927 4.65717 23.4166C4.20276 24.1405 3.96336 24.9786 3.96683 25.8333V32.4444C3.96683 32.7391 4.0839 33.0217 4.29227 33.2301C4.50064 33.4384 4.78326 33.5555 5.07795 33.5555C5.37263 33.5555 5.65525 33.4384 5.86362 33.2301C6.07199 33.0217 6.18906 32.7391 6.18906 32.4444V25.8333C6.17938 25.4007 6.29619 24.9748 6.52514 24.6076C6.7541 24.2405 7.08524 23.9482 7.47795 23.7666C10.856 22.2068 14.535 21.4066 18.2557 21.4222C20.3405 21.4195 22.4182 21.6657 24.4446 22.1555V19.8888Z" fill=""/>
<path d="M31.4223 30.4556H24.6001V32.0111H31.4223V30.4556Z" fill="black"/>
<path d="M36.8556 23.8555H31.1112V26.0777H35.7445V35.3778H20.0001V26.0777H27.0001V26.5444C27.0001 26.8391 27.1171 27.1217 27.3255 27.3301C27.5339 27.5385 27.8165 27.6555 28.1112 27.6555C28.4058 27.6555 28.6885 27.5385 28.8968 27.3301C29.1052 27.1217 29.2223 26.8391 29.2223 26.5444V22.2222C29.2223 21.9275 29.1052 21.6449 28.8968 21.4365C28.6885 21.2281 28.4058 21.1111 28.1112 21.1111C27.8165 21.1111 27.5339 21.2281 27.3255 21.4365C27.1171 21.6449 27.0001 21.9275 27.0001 22.2222V23.8555H18.8889C18.5943 23.8555 18.3116 23.9726 18.1033 24.181C17.8949 24.3893 17.7778 24.672 17.7778 24.9666V36.4889C17.7778 36.7835 17.8949 37.0662 18.1033 37.2745C18.3116 37.4829 18.5943 37.6 18.8889 37.6H36.8556C37.1503 37.6 37.4329 37.4829 37.6413 37.2745C37.8497 37.0662 37.9667 36.7835 37.9667 36.4889V24.9666C37.9667 24.672 37.8497 24.3893 37.6413 24.181C37.4329 23.9726 37.1503 23.8555 36.8556 23.8555Z" fill=""/>
</svg>
