<svg width="25" height="25" viewBox="0 0 40 40" fill="none" xmlns="http://www.w3.org/2000/svg">
<g clip-path="url(#clip0_326_910)">
<path d="M33.3332 6.70992H36.6665V11.6666H3.33317V6.70992H6.6665V5.04325H1.6665V34.9999H38.3332V5.04325H33.3332V6.70992ZM36.6665 33.3333H3.33317V13.3766H36.6665V33.3333ZM11.6665 6.70992V5.04325H28.3332V6.70992H11.6665ZM8.33317 3.33325H9.99984V8.33325H8.33317V3.33325ZM29.9998 3.33325H31.6665V8.33325H29.9998V3.33325ZM15.3482 28.8483L19.9998 25.4666L24.6515 28.8466L22.8748 23.3783L27.5248 19.9999H21.7765L19.9998 14.5316L18.2232 19.9999H12.4732L17.1248 23.3799L15.3482 28.8483ZM19.4332 21.6666L19.9998 19.9233L20.5665 21.6666H22.3948L20.9148 22.7433L21.4815 24.4833L19.9998 23.4083L18.5182 24.4833L19.0848 22.7433L17.6032 21.6666H19.4332Z" fill=""/>
</g>
<defs>
<clipPath id="clip0_326_910">
<rect width="40" height="40" fill="white"/>
</clipPath>
</defs>
</svg>
