<svg width="30" height="30" viewBox="0 0 40 40" fill="none" xmlns="http://www.w3.org/2000/svg">
<path d="M18.8725 25.195C20.0225 25.65 21.0725 26.255 22.0175 27.0075C22.9625 27.7575 23.77 28.6325 24.4425 29.6225C25.8141 31.6201 26.5528 33.9843 26.5625 36.4075V37.5H24.375V36.405C24.3797 35.1121 24.1268 33.8311 23.631 32.637C23.1353 31.4429 22.4066 30.3594 21.4875 29.45C20.5854 28.5607 19.5246 27.8484 18.36 27.35C17.1497 26.8314 15.8468 26.5635 14.53 26.5625C13.2371 26.5578 11.9562 26.8107 10.762 27.3065C9.5679 27.8023 8.48449 28.531 7.57504 29.45C6.68602 30.3523 5.97375 31.4131 5.47504 32.5775C4.96004 33.7625 4.70004 35.04 4.68754 36.405V37.5H2.50004V36.405C2.49365 33.9801 3.23383 31.6121 4.62004 29.6225C6.00078 27.6305 7.93949 26.091 10.1925 25.1975C9.6807 24.8458 9.21462 24.4318 8.80504 23.965C8.40032 23.5055 8.05046 23.0004 7.76254 22.46C7.47575 21.9201 7.2574 21.3465 7.11254 20.7525C6.96482 20.1474 6.88516 19.5278 6.87504 18.905C6.87504 17.8475 7.07504 16.855 7.47504 15.9325C8.25718 14.1048 9.71282 12.6483 11.54 11.865C12.4827 11.4637 13.4962 11.2554 14.5208 11.2524C15.5453 11.2494 16.56 11.4517 17.505 11.8475C19.3332 12.6302 20.7898 14.0868 21.5725 15.915C22.2199 17.4373 22.3576 19.1281 21.965 20.735C21.815 21.3275 21.595 21.8975 21.3 22.445C21.0069 22.9869 20.6575 23.4964 20.2575 23.965C19.8575 24.4325 19.395 24.84 18.8725 25.195ZM14.53 24.375C15.2825 24.375 15.99 24.2325 16.65 23.95C17.9586 23.394 19.0001 22.3515 19.555 21.0425C19.8525 20.37 20 19.6575 20 18.9075C20.0032 18.1916 19.8626 17.4824 19.5865 16.8219C19.3103 16.1614 18.9043 15.5631 18.3925 15.0625C17.8863 14.5689 17.2963 14.1693 16.65 13.8825C15.9832 13.5847 15.2604 13.4329 14.53 13.4375C13.78 13.4375 13.0725 13.58 12.4125 13.8625C11.0968 14.4237 10.0488 15.4717 9.48754 16.7875C9.20504 17.4475 9.06254 18.155 9.06254 18.9075C9.06254 19.6575 9.20504 20.365 9.48754 21.025C9.77504 21.685 10.1625 22.2675 10.6525 22.7675C11.1598 23.2801 11.7643 23.6863 12.4305 23.9623C13.0968 24.2384 13.8114 24.3787 14.5325 24.375H14.53ZM37.5 2.5V20H33.125L26.5625 26.5625V20H24.375V17.8125H28.75V21.2825L32.22 17.8125H35.3125V4.6875H13.4375V8.6175C13.0709 8.66383 12.7057 8.72136 12.3425 8.79C11.9702 8.8607 11.6046 8.96358 11.25 9.0975V2.5H37.5Z" fill=""/>
</svg>
