<svg width="20" height="20" viewBox="0 0 40 40" fill="none" xmlns="http://www.w3.org/2000/svg">
<path d="M23.3335 9.33329C23.3335 8.39988 23.3335 7.93316 23.5152 7.57664C23.675 7.26304 23.9298 7.00808 24.2435 6.84828C24.6 6.66663 25.0667 6.66663 26.0002 6.66663H30.6668C31.6003 6.66663 32.067 6.66663 32.4235 6.84828C32.7372 7.00808 32.992 7.26304 33.1518 7.57664C33.3335 7.93316 33.3335 8.39988 33.3335 9.33329V14C33.3335 14.9334 33.3335 15.4001 33.1518 15.7566C32.992 16.0702 32.7372 16.3252 32.4235 16.485C32.067 16.6666 31.6003 16.6666 30.6668 16.6666H26.0002C25.0667 16.6666 24.6 16.6666 24.2435 16.485C23.9298 16.3252 23.675 16.0702 23.5152 15.7566C23.3335 15.4001 23.3335 14.9334 23.3335 14V9.33329Z" stroke="black" stroke-width="2" stroke-linecap="round" stroke-linejoin="round"/>
<path d="M6.6665 9.33329C6.6665 8.39988 6.6665 7.93316 6.84815 7.57664C7.00795 7.26304 7.26292 7.00808 7.57652 6.84828C7.93304 6.66663 8.39975 6.66663 9.33317 6.66663H13.9998C14.9333 6.66663 15.4 6.66663 15.7565 6.84828C16.0701 7.00808 16.3251 7.26304 16.4849 7.57664C16.6665 7.93316 16.6665 8.39988 16.6665 9.33329V14C16.6665 14.9334 16.6665 15.4001 16.4849 15.7566C16.3251 16.0702 16.0701 16.3252 15.7565 16.485C15.4 16.6666 14.9333 16.6666 13.9998 16.6666H9.33317C8.39975 16.6666 7.93304 16.6666 7.57652 16.485C7.26292 16.3252 7.00795 16.0702 6.84815 15.7566C6.6665 15.4001 6.6665 14.9334 6.6665 14V9.33329Z" stroke="black" stroke-width="2" stroke-linecap="round" stroke-linejoin="round"/>
<path d="M6.6665 26C6.6665 25.0665 6.6665 24.5999 6.84815 24.2434C7.00795 23.9297 7.26292 23.6749 7.57652 23.515C7.93304 23.3334 8.39975 23.3334 9.33317 23.3334H13.9998C14.9333 23.3334 15.4 23.3334 15.7565 23.515C16.0701 23.6749 16.3251 23.9297 16.4849 24.2434C16.6665 24.5999 16.6665 25.0665 16.6665 26V30.6667C16.6665 31.6002 16.6665 32.0669 16.4849 32.4234C16.3251 32.737 16.0701 32.9919 15.7565 33.1517C15.4 33.3334 14.9333 33.3334 13.9998 33.3334H9.33317C8.39975 33.3334 7.93304 33.3334 7.57652 33.1517C7.26292 32.9919 7.00795 32.737 6.84815 32.4234C6.6665 32.0669 6.6665 31.6002 6.6665 30.6667V26Z" stroke="black" stroke-width="2" stroke-linecap="round" stroke-linejoin="round"/>
<path d="M23.3335 26C23.3335 25.0665 23.3335 24.5999 23.5152 24.2434C23.675 23.9297 23.9298 23.6749 24.2435 23.515C24.6 23.3334 25.0667 23.3334 26.0002 23.3334H30.6668C31.6003 23.3334 32.067 23.3334 32.4235 23.515C32.7372 23.6749 32.992 23.9297 33.1518 24.2434C33.3335 24.5999 33.3335 25.0665 33.3335 26V30.6667C33.3335 31.6002 33.3335 32.0669 33.1518 32.4234C32.992 32.737 32.7372 32.9919 32.4235 33.1517C32.067 33.3334 31.6003 33.3334 30.6668 33.3334H26.0002C25.0667 33.3334 24.6 33.3334 24.2435 33.1517C23.9298 32.9919 23.675 32.737 23.5152 32.4234C23.3335 32.0669 23.3335 31.6002 23.3335 30.6667V26Z" stroke="black" stroke-width="2" stroke-linecap="round" stroke-linejoin="round"/>
</svg>
