<svg width="30" height="30" viewBox="0 0 40 40" fill="none" xmlns="http://www.w3.org/2000/svg">
<path d="M25.5317 19.5413C22.6528 19.5413 20.3105 21.8834 20.3105 24.7624C20.3105 27.6413 22.6528 29.9835 25.5317 29.9835C28.4106 29.9835 30.7527 27.6413 30.7527 24.7624C30.7527 21.8834 28.4105 19.5413 25.5317 19.5413ZM25.5317 28.9251C23.2364 28.9251 21.369 27.0577 21.369 24.7624C21.369 22.467 23.2364 20.5997 25.5317 20.5997C27.8269 20.5997 29.6942 22.467 29.6942 24.7624C29.6942 27.0577 27.8269 28.9251 25.5317 28.9251Z" fill=""/>
<path d="M33.1714 30.0766C32.9647 29.8699 32.6298 29.8699 32.4231 30.0766C32.2163 30.2833 32.2163 30.6184 32.4231 30.8251L34.7139 33.1159C34.9422 33.3444 34.9424 33.7161 34.7139 33.9443C34.4853 34.173 34.1138 34.1728 33.8853 33.9443L30.3677 30.4268C31.9678 29.0587 32.985 27.0277 32.985 24.7624C32.985 20.6526 29.6415 17.3091 25.5319 17.3091C21.4222 17.3091 18.0786 20.6526 18.0786 24.7624C18.0786 28.8721 21.4222 32.2155 25.5319 32.2155C26.9925 32.2155 28.3553 31.7914 29.5067 31.0624L33.137 34.6929C33.4576 35.0135 33.8785 35.1737 34.2997 35.1737C34.7209 35.1737 35.1418 35.0134 35.4624 34.6929C36.1036 34.0518 36.1036 33.0086 35.4624 32.3674L33.1714 30.0766ZM25.5318 31.1572C22.0056 31.1572 19.137 28.2885 19.137 24.7624C19.137 21.2363 22.0056 18.3676 25.5318 18.3676C29.0578 18.3676 31.9265 21.2363 31.9265 24.7624C31.9264 28.2885 29.0577 31.1572 25.5318 31.1572Z" fill=""/>
<path d="M20.0136 31.4641L19.5666 31.9586L13.0505 19.0045H19.0012C19.2934 19.0045 19.5304 18.7675 19.5304 18.4752C19.5304 18.1829 19.2934 17.946 19.0012 17.946H13.1001L16.729 11.5399H22.1529L24.633 15.9181C24.7303 16.0901 24.9095 16.1866 25.0938 16.1866C25.1823 16.1866 25.2719 16.1645 25.3544 16.1177C25.6086 15.9738 25.6979 15.6507 25.5538 15.3964L23.3693 11.54H25.7157L32.0728 18.8234C32.2654 19.0438 32.5994 19.0662 32.8196 18.8741C33.0398 18.6819 33.0625 18.3476 32.8702 18.1273L26.3549 10.6627C26.2545 10.5476 26.1091 10.4816 25.9562 10.4816H12.9256C12.7727 10.4816 12.6273 10.5477 12.5269 10.6627L6.01141 18.1273C6.00375 18.136 5.99844 18.1459 5.99141 18.155C5.98172 18.1677 5.97211 18.1802 5.96359 18.1937C5.95391 18.209 5.94578 18.2249 5.93789 18.241C5.93117 18.2545 5.92414 18.2678 5.91859 18.282C5.91148 18.3002 5.90648 18.3187 5.90141 18.3373C5.89773 18.3507 5.89336 18.3637 5.89078 18.3775C5.88602 18.4027 5.88414 18.4283 5.88305 18.4539C5.88273 18.4612 5.88086 18.4681 5.88086 18.4754C5.88086 18.4763 5.88117 18.477 5.88117 18.4778C5.88133 18.5112 5.88477 18.5445 5.89117 18.5773C5.89359 18.5898 5.89813 18.6013 5.90141 18.6133C5.9068 18.6333 5.91203 18.6532 5.91977 18.6726C5.92539 18.6866 5.93281 18.6995 5.93961 18.7129C5.94773 18.7291 5.95562 18.7452 5.96555 18.7606C5.97437 18.7744 5.98469 18.7867 5.99469 18.7996C6.00266 18.8097 6.00898 18.8206 6.01766 18.8302L19.0484 33.2417C19.0489 33.2423 19.0495 33.2426 19.05 33.2431C19.0727 33.2681 19.0978 33.2901 19.1245 33.3099C19.1299 33.314 19.1355 33.3177 19.1412 33.3216C19.1666 33.3391 19.193 33.3547 19.2209 33.3674C19.2233 33.3685 19.2255 33.3699 19.228 33.371C19.2577 33.3841 19.2888 33.3936 19.3205 33.4011C19.3278 33.4027 19.3351 33.4043 19.3423 33.4057C19.3749 33.412 19.408 33.4163 19.4415 33.4163C19.4475 33.4163 19.4536 33.4144 19.4596 33.4141C19.4923 33.413 19.5245 33.4099 19.556 33.403C19.5677 33.4002 19.5791 33.3951 19.5908 33.3916C19.617 33.3838 19.6429 33.3754 19.6676 33.3638C19.6712 33.362 19.6751 33.3615 19.6787 33.3596C19.6926 33.3527 19.7041 33.3432 19.717 33.3352C19.7312 33.3266 19.7455 33.3187 19.7588 33.3086C19.7769 33.295 19.7927 33.2796 19.8085 33.2641C19.8166 33.2563 19.826 33.2501 19.8336 33.2417L20.7988 32.174C20.9948 31.9573 20.9779 31.6225 20.7612 31.4266C20.5445 31.2306 20.2097 31.2473 20.0136 31.4641ZM7.60227 19.0045H9.85726C10.1495 19.0045 10.3865 18.7676 10.3865 18.4753C10.3865 18.183 10.1495 17.9461 9.85726 17.9461H7.57461L13.1661 11.54H15.5126L11.7316 18.2145C11.6445 18.3682 11.6398 18.5553 11.7192 18.7132L17.2112 29.6316L7.60227 19.0045Z" fill=""/>
<path d="M27.5208 23.1616L24.0855 26.9609C23.8894 27.1777 23.9062 27.5124 24.1229 27.7084C24.2242 27.8 24.3513 27.845 24.4778 27.845C24.6222 27.845 24.766 27.7862 24.8704 27.6708L28.3057 23.8715C28.5018 23.6547 28.485 23.32 28.2682 23.124C28.0515 22.928 27.7167 22.9447 27.5208 23.1616Z" fill=""/>
<path d="M25.1802 21.4759C24.9193 21.3447 24.601 21.4499 24.4696 21.711L22.5804 25.4668C22.4492 25.728 22.5543 26.046 22.8155 26.1774C22.8918 26.2157 22.973 26.2341 23.0529 26.2341C23.2465 26.2341 23.4331 26.1273 23.5261 25.9425L25.4153 22.1867C25.5464 21.9254 25.4413 21.6072 25.1802 21.4759Z" fill=""/>
<path d="M11.7496 30.987C9.98302 30.1758 9.57349 27.9373 9.56989 27.9159C9.52528 27.6544 9.28942 27.4637 9.02911 27.4756C8.76403 27.4851 8.54684 27.6894 8.5213 27.9534C8.32419 29.9845 6.3088 31.262 6.28856 31.2747C6.04052 31.4284 5.96372 31.754 6.117 32.0023C6.27044 32.2512 6.59622 32.3282 6.84528 32.1749C6.92216 32.1275 8.31528 31.2518 9.08864 29.7101C9.41349 30.351 9.91185 31.0577 10.6627 31.58C10.2304 32.0508 9.61802 32.8251 9.1663 33.8324C9.09474 33.6846 9.01411 33.5321 8.92372 33.3775C8.7763 33.1251 8.45192 33.0402 8.19981 33.1875C7.94755 33.335 7.86247 33.6591 8.00989 33.9115C8.52692 34.7964 8.6613 35.6037 8.66247 35.6103C8.70208 35.8658 8.92052 36.055 9.1788 36.0581C9.18106 36.0582 9.18333 36.0582 9.18552 36.0582C9.44099 36.0582 9.66052 35.8752 9.70614 35.6231C10.1088 33.3955 11.8536 31.8863 11.8705 31.8719C12.0087 31.755 12.0775 31.5756 12.053 31.3962C12.0286 31.2168 11.914 31.0626 11.7496 30.987Z" fill=""/>
<path d="M6.84218 9.84416C6.69476 9.59166 6.37023 9.50673 6.11827 9.65416C5.86593 9.80158 5.78085 10.1257 5.92835 10.3781C6.44531 11.2631 6.57968 12.0702 6.58085 12.0769C6.62046 12.3323 6.8389 12.5216 7.09726 12.5247C7.09945 12.5248 7.10171 12.5248 7.1039 12.5248C7.35945 12.5248 7.5789 12.3418 7.6246 12.0897C8.02726 9.86212 9.77202 8.35283 9.7889 8.33845C9.92718 8.2215 9.99585 8.04212 9.9714 7.86275C9.94695 7.68337 9.83249 7.52908 9.66796 7.45353C7.90148 6.6422 7.49187 4.40377 7.48827 4.38252C7.44374 4.12095 7.20726 3.93001 6.94749 3.9422C6.68241 3.95166 6.46523 4.15595 6.43968 4.41994C6.2432 6.44494 4.23984 7.72064 4.20726 7.74119C3.95898 7.89478 3.8821 8.22048 4.03554 8.469C4.18882 8.71775 4.51484 8.79478 4.76382 8.6415C4.8407 8.59408 6.23374 7.71845 7.0071 6.17673C7.33218 6.81775 7.83023 7.52431 8.58124 8.04666C8.14882 8.51736 7.53663 9.2915 7.08484 10.2991C7.0132 10.1513 6.93249 9.99876 6.84218 9.84416Z" fill=""/>
<path d="M30.8311 10.0304C30.9081 9.98293 32.3011 9.10739 33.0745 7.56567C33.3993 8.20645 33.8979 8.91325 34.6485 9.43559C34.2161 9.90629 33.6039 10.6804 33.152 11.6879C33.0804 11.5401 33 11.3877 32.9097 11.2331C32.762 10.9807 32.4376 10.8957 32.1857 11.0431C31.9333 11.1905 31.8482 11.5147 31.9956 11.767C32.5125 12.6519 32.6469 13.4592 32.6482 13.4658C32.6878 13.7212 32.9061 13.9105 33.1645 13.9137C33.1667 13.9138 33.169 13.9138 33.1711 13.9138C33.4267 13.9138 33.6462 13.7308 33.6918 13.4787C34.0945 11.2511 35.8393 9.74176 35.8561 9.72739C35.9944 9.61044 36.0632 9.43106 36.0386 9.25168C36.0142 9.07231 35.8997 8.91801 35.7352 8.84239C33.9689 8.03114 33.5592 5.79262 33.5554 5.77137C33.5111 5.50981 33.2791 5.31684 33.0147 5.33106C32.7497 5.34051 32.5325 5.54481 32.5069 5.80879C32.31 7.84004 30.2947 9.11739 30.2744 9.13012C30.0263 9.28379 29.9496 9.60934 30.1029 9.85778C30.2561 10.1065 30.582 10.1838 30.8311 10.0304Z" fill=""/>
</svg>
