<svg width="20" height="20" viewBox="0 0 40 40" fill="none" xmlns="http://www.w3.org/2000/svg">
<path d="M13.3333 10.0011L35 10.0023M13.3333 20.0011L35 20.0025M13.3333 30.0011L35 30.0025M5.83333 9.99996H5.85M5.83333 20H5.85M5.83333 30H5.85M6.66667 9.99996C6.66667 10.4602 6.29357 10.8333 5.83333 10.8333C5.3731 10.8333 5 10.4602 5 9.99996C5 9.53973 5.3731 9.16663 5.83333 9.16663C6.29357 9.16663 6.66667 9.53973 6.66667 9.99996ZM6.66667 20C6.66667 20.4601 6.29357 20.8333 5.83333 20.8333C5.3731 20.8333 5 20.4601 5 20C5 19.5398 5.3731 19.1666 5.83333 19.1666C6.29357 19.1666 6.66667 19.5398 6.66667 20ZM6.66667 30C6.66667 30.4601 6.29357 30.8333 5.83333 30.8333C5.3731 30.8333 5 30.4601 5 30C5 29.5398 5.3731 29.1666 5.83333 29.1666C6.29357 29.1666 6.66667 29.5398 6.66667 30Z" stroke="black" stroke-width="3" stroke-linecap="round" stroke-linejoin="round"/>
</svg>
