<svg width="30" height="30" viewBox="0 0 40 40" fill="none" xmlns="http://www.w3.org/2000/svg">
<path d="M28.0167 5.34448H26.0125C25.0691 5.34448 24.2794 6.01362 24.0923 6.90214C22.5537 7.6719 15.0028 11.2471 5.05992 12.5558C4.50156 12.6293 4.02211 12.9328 3.71211 13.3611H1.96242C0.880312 13.3612 0 14.2415 0 15.3236V19.332C0 20.4141 0.880312 21.2944 1.96242 21.2944H3.71227C4.02219 21.7228 4.50172 22.0263 5.06 22.0997C5.15992 22.1129 5.25914 22.1267 5.35867 22.1404L8.43586 33.2184C8.67094 34.0646 9.44844 34.6556 10.3267 34.6556H13.9852C13.9859 34.6556 13.9866 34.6557 13.9873 34.6557C13.9881 34.6557 13.9888 34.6556 13.9897 34.6556H14.6556C15.0015 34.6556 15.282 34.3752 15.282 34.0292C15.282 33.6833 15.0016 33.4029 14.6556 33.4029H14.4637L11.6691 23.3429C18.24 24.9441 22.9178 27.1659 24.0923 27.7535C24.2794 28.642 25.0692 29.3111 26.0126 29.3111H28.0167C29.0988 29.3111 29.9791 28.4308 29.9791 27.3487V7.3069C29.9791 6.2248 29.0988 5.34448 28.0167 5.34448ZM3.34031 20.0417H1.96242C1.57102 20.0417 1.25258 19.7233 1.25258 19.3319V15.3235C1.25258 14.9321 1.57102 14.6137 1.96242 14.6137H3.34031V20.0417ZM13.1635 33.4029H10.3267C10.0091 33.4029 9.72789 33.1892 9.64289 32.8831L6.71445 22.3416C7.94758 22.5391 9.13828 22.7689 10.2794 23.0205L13.1635 33.4029ZM28.7265 27.3487C28.7265 27.7401 28.408 28.0585 28.0166 28.0585H26.0125C25.6211 28.0585 25.3027 27.7401 25.3027 27.3487V27.3479C25.3027 27.3465 25.3027 27.3451 25.3027 27.3436V12.6517C25.3027 12.3058 25.0223 12.0253 24.6763 12.0253C24.3304 12.0253 24.05 12.3057 24.05 12.6517V26.3404C21.5841 25.1695 14.3955 22.0651 5.22336 20.8578C4.86383 20.8106 4.59281 20.5077 4.59281 20.1534V14.5022C4.59281 14.1479 4.86391 13.8451 5.22336 13.7978C14.3955 12.5906 21.5841 9.48612 24.05 8.31526V9.9794C24.05 10.3253 24.3304 10.6057 24.6763 10.6057C25.0223 10.6057 25.3027 10.3253 25.3027 9.9794V7.31128C25.3027 7.3105 25.3027 7.30972 25.3027 7.30894V7.3069C25.3027 6.9155 25.6211 6.59706 26.0125 6.59706H28.0166C28.408 6.59706 28.7265 6.9155 28.7265 7.3069V27.3487Z" fill=""/>
<path d="M39.3738 16.7014H32.6932C32.3474 16.7014 32.0669 16.9818 32.0669 17.3277C32.0669 17.6736 32.3473 17.9541 32.6932 17.9541H39.3738C39.7197 17.9541 40.0002 17.6737 40.0002 17.3277C40.0002 16.9818 39.7198 16.7014 39.3738 16.7014Z" fill=""/>
<path d="M37.9449 10.4005C37.8087 10.0825 37.4405 9.93531 37.1226 10.0716L36.4544 10.3579C36.1366 10.4941 35.9892 10.8623 36.1255 11.1802C36.2273 11.4177 36.4586 11.5599 36.7015 11.5599C36.7838 11.5599 36.8675 11.5436 36.9479 11.5091L37.616 11.2228C37.9339 11.0866 38.0812 10.7184 37.9449 10.4005Z" fill=""/>
<path d="M35.2731 11.5457C35.1369 11.2278 34.7687 11.0806 34.4508 11.2168L32.4466 12.0758C32.1287 12.212 31.9814 12.5803 32.1177 12.8981C32.2195 13.1356 32.4508 13.2778 32.6937 13.2778C32.776 13.2778 32.8597 13.2615 32.9401 13.227L34.9442 12.3681C35.2621 12.2318 35.4094 11.8636 35.2731 11.5457Z" fill=""/>
<path d="M37.6164 23.4327L36.9464 23.1456C36.6285 23.0092 36.2603 23.1566 36.124 23.4745C35.9878 23.7924 36.1351 24.1606 36.4529 24.2968L37.1229 24.5839C37.2033 24.6184 37.287 24.6347 37.3694 24.6347C37.6124 24.6347 37.8435 24.4924 37.9453 24.2549C38.0816 23.9371 37.9344 23.5689 37.6164 23.4327Z" fill=""/>
<path d="M34.9432 22.287L32.94 21.4285C32.6221 21.2923 32.2539 21.4395 32.1177 21.7574C31.9814 22.0753 32.1287 22.4435 32.4466 22.5797L34.4498 23.4382C34.5302 23.4727 34.6139 23.489 34.6962 23.489C34.9393 23.489 35.1703 23.3467 35.2721 23.1093C35.4085 22.7914 35.2611 22.4232 34.9432 22.287Z" fill=""/>
</svg>
