<svg width="30" height="30" viewBox="0 0 40 40" fill="none" xmlns="http://www.w3.org/2000/svg">
<path d="M11.4233 27.1373H7.57071C6.76419 27.1373 6.11035 27.7912 6.11035 28.5977V32.4503C6.11035 33.2568 6.76419 33.9107 7.57071 33.9107H11.4233C12.2298 33.9107 12.8837 33.2568 12.8837 32.4503V28.5977C12.8837 27.7912 12.2298 27.1373 11.4233 27.1373ZM8.59935 31.024H8.29591C8.01979 31.024 7.79591 30.8002 7.79591 30.524C7.79591 30.2478 8.01979 30.024 8.29591 30.024H8.59935C8.87547 30.024 9.09935 30.2478 9.09935 30.524C9.09935 30.8001 8.87551 31.024 8.59935 31.024ZM10.6981 31.024H10.3946C10.1185 31.024 9.89463 30.8002 9.89463 30.524C9.89463 30.2478 10.1185 30.024 10.3946 30.024H10.6981C10.9742 30.024 11.1981 30.2478 11.1981 30.524C11.1981 30.8001 10.9742 31.024 10.6981 31.024Z" fill=""/>
<path d="M21.9262 27.1373H18.0736C17.2671 27.1373 16.6133 27.7912 16.6133 28.5977V32.4503C16.6133 33.2568 17.2671 33.9107 18.0736 33.9107H21.9262C22.7328 33.9107 23.3866 33.2568 23.3866 32.4503V28.5977C23.3866 27.7912 22.7328 27.1373 21.9262 27.1373ZM19.1023 31.024H18.7989C18.5228 31.024 18.2989 30.8002 18.2989 30.524C18.2989 30.2478 18.5228 30.024 18.7989 30.024H19.1023C19.3785 30.024 19.6023 30.2478 19.6023 30.524C19.6023 30.8001 19.3785 31.024 19.1023 31.024ZM21.201 31.024H20.8976C20.6214 31.024 20.3976 30.8002 20.3976 30.524C20.3976 30.2478 20.6214 30.024 20.8976 30.024H21.201C21.4771 30.024 21.701 30.2478 21.701 30.524C21.701 30.8001 21.4772 31.024 21.201 31.024Z" fill=""/>
<path d="M32.4291 27.1373H28.5766C27.77 27.1373 27.1162 27.7912 27.1162 28.5977V32.4503C27.1162 33.2568 27.77 33.9107 28.5766 33.9107H32.4291C33.2357 33.9107 33.8895 33.2568 33.8895 32.4503V28.5977C33.8895 27.7912 33.2357 27.1373 32.4291 27.1373ZM29.6052 31.024H29.3018C29.0257 31.024 28.8018 30.8002 28.8018 30.524C28.8018 30.2478 29.0257 30.024 29.3018 30.024H29.6052C29.8814 30.024 30.1052 30.2478 30.1052 30.524C30.1052 30.8001 29.8814 31.024 29.6052 31.024ZM31.704 31.024H31.4005C31.1244 31.024 30.9005 30.8002 30.9005 30.524C30.9005 30.2478 31.1244 30.024 31.4005 30.024H31.704C31.9801 30.024 32.204 30.2478 32.204 30.524C32.204 30.8001 31.9801 31.024 31.704 31.024Z" fill=""/>
<path d="M20 9.03406C18.886 9.03406 17.98 9.94006 17.98 11.0541C17.98 12.1681 18.886 13.0741 20 13.0741C21.114 13.0741 22.02 12.1681 22.02 11.0541C22.02 9.94006 21.114 9.03406 20 9.03406ZM20 11.7341C19.6244 11.7341 19.32 11.4297 19.32 11.0541C19.32 10.6785 19.6244 10.3741 20 10.3741C20.3756 10.3741 20.68 10.6785 20.68 11.0541C20.68 11.4297 20.3756 11.7341 20 11.7341Z" fill=""/>
<path d="M29.3031 21.8708C29.6887 21.8708 30.0031 22.1848 30.0031 22.5708V26.1376H31.0031V22.5708C31.0031 21.6332 30.2403 20.8708 29.3031 20.8708H27.6231C27.2371 20.8708 26.9231 20.5568 26.9231 20.1708V13.7418C27.6795 13.1062 28.2673 12.3653 28.6367 11.554H31.6023C31.7403 11.554 31.8655 11.498 31.9559 11.4076C32.0463 11.3172 32.1023 11.192 32.1023 11.054C32.1023 10.778 31.8783 10.554 31.6023 10.554H28.6367C27.5035 8.06483 24.3151 6.23683 20.4999 6.08923V6.67163C20.4999 6.94763 20.2759 7.17163 19.9999 7.17163C19.7239 7.17163 19.4999 6.94763 19.4999 6.67163V6.08923C15.6847 6.23683 12.4963 8.06483 11.3631 10.554H8.39746C8.25946 10.554 8.13426 10.61 8.04382 10.7004C7.95342 10.7908 7.89746 10.916 7.89746 11.054C7.89746 11.33 8.12146 11.554 8.39746 11.554H11.3631C11.7324 12.3653 12.3202 13.1062 13.0767 13.7418V20.1708C13.0767 20.5568 12.7627 20.8708 12.3767 20.8708H10.6967C9.75946 20.8708 8.99666 21.6332 8.99666 22.5708V26.1376H9.99666V22.5708C9.99666 22.1848 10.3111 21.8708 10.6967 21.8708H12.3767C13.3139 21.8708 14.0767 21.108 14.0767 20.1708V14.4602C15.0524 15.06 16.2088 15.5141 17.4799 15.7755V26.2104C17.6699 26.1628 17.8687 26.1376 18.0735 26.1376H18.4799V15.938C18.814 15.9781 19.1543 16.0055 19.4999 16.0188V15.4364C19.4999 15.1604 19.7239 14.9364 19.9999 14.9364C20.2759 14.9364 20.4999 15.1604 20.4999 15.4364V16.0188C20.8454 16.0055 21.1857 15.9781 21.5199 15.938V26.1376H21.9263C22.1311 26.1376 22.3299 26.1628 22.5199 26.2104V15.7755C23.7909 15.5141 24.9474 15.0599 25.9231 14.4602V20.1708C25.9231 21.108 26.6859 21.8708 27.6231 21.8708H29.3031ZM14.9175 11.734C14.7386 11.734 14.5763 11.6652 14.4551 11.5524C14.3211 11.4284 14.2375 11.2508 14.2375 11.054C14.2375 10.8572 14.3211 10.6796 14.4551 10.5556C14.5763 10.4428 14.7387 10.374 14.9175 10.374C15.2927 10.374 15.5975 10.6784 15.5975 11.054C15.5975 11.4296 15.2927 11.734 14.9175 11.734ZM19.9999 14.074C18.3347 14.074 16.9799 12.7192 16.9799 11.054C16.9799 9.38883 18.3347 8.03403 19.9999 8.03403C21.6651 8.03403 23.0199 9.38883 23.0199 11.054C23.0199 12.7192 21.6651 14.074 19.9999 14.074ZM25.0823 11.734C24.7071 11.734 24.4023 11.4296 24.4023 11.054C24.4023 10.6784 24.7071 10.374 25.0823 10.374C25.2611 10.374 25.4235 10.4428 25.5447 10.5556C25.6787 10.6796 25.7623 10.8572 25.7623 11.054C25.7623 11.2508 25.6787 11.4284 25.5447 11.5524C25.4235 11.6652 25.2611 11.734 25.0823 11.734Z" fill=""/>
</svg>
