<svg width="" height="" viewBox="0 0 152 151" fill="none" xmlns="http://www.w3.org/2000/svg">
<rect x="0.5" width="151" height="151" rx="75.5" fill="#E7F4FE"/>
<g clip-path="url(#clip0_326_690)">
<path d="M91.125 60.75C90.6952 60.4719 90.2037 60.3037 89.6937 60.2601C89.1837 60.2165 88.6707 60.2989 88.2 60.5L72.775 66.575C72.4098 66.7236 72.0193 66.8 71.625 66.8H61.75C60.9212 66.8 60.1263 67.1292 59.5403 67.7153C58.9542 68.3013 58.625 69.0962 58.625 69.925V70.175H55.5V77.675H58.625V78C58.6446 78.8157 58.9824 79.5914 59.5664 80.1614C60.1503 80.7313 60.934 81.0502 61.75 81.05L65.5 89C65.7539 89.5353 66.1537 89.9882 66.6534 90.3066C67.1531 90.625 67.7325 90.796 68.325 90.8H69.9C70.7245 90.7934 71.5129 90.4612 72.0936 89.8759C72.6742 89.2906 73 88.4995 73 87.675V81.35L88.2 87.425C88.5739 87.5738 88.9726 87.6501 89.375 87.65C89.9993 87.6399 90.6072 87.4489 91.125 87.1C91.5362 86.8223 91.8754 86.4508 92.1145 86.0161C92.3536 85.5813 92.4857 85.0959 92.5 84.6V63.325C92.4977 62.8163 92.3713 62.3158 92.1316 61.8671C91.892 61.4183 91.5465 61.0349 91.125 60.75ZM69.875 69.925V78H61.75V69.925H69.875ZM69.875 87.675H68.3L65.225 81.05H69.875V87.675ZM73.925 78.375C73.6282 78.2233 73.3187 78.0978 73 78V69.75C73.3156 69.6849 73.6251 69.5929 73.925 69.475L89.375 63.325V84.525L73.925 78.375ZM92.575 70.8V77.05C93.4038 77.05 94.1987 76.7207 94.7847 76.1347C95.3708 75.5486 95.7 74.7538 95.7 73.925C95.7 73.0962 95.3708 72.3013 94.7847 71.7153C94.1987 71.1292 93.4038 70.8 92.575 70.8Z" fill="#32012F"/>
</g>
<defs>
<clipPath id="clip0_326_690">
<rect width="40" height="40" fill="white" transform="translate(55.5 55.5)"/>
</clipPath>
</defs>
</svg>
